<svg width="36" height="14" viewBox="0 0 36 14" fill="none" xmlns="http://www.w3.org/2000/svg">
<path d="M34.6383 0.869641C32.9539 0.675857 31.3926 0.577637 30.001 0.577637C24.1996 0.577637 22.3412 2.25106 21.3425 3.1502L21.1822 3.29343C20.4482 3.93909 19.2264 4.03739 18.5619 4.03856L17.9993 4.03918L17.4369 4.03856C16.7731 4.03746 15.5514 3.93917 14.8176 3.29343L14.6576 3.1502C13.6589 2.25106 11.7996 0.577637 5.99847 0.577637C4.60612 0.577637 3.04608 0.675779 1.3611 0.869641C0.57245 0.960438 -0.0490642 1.68979 0.00305425 2.46187C0.136906 4.43371 0.835386 9.28761 4.4264 11.7677C5.99425 12.8502 7.76534 13.4223 9.54846 13.4223C13.2137 13.4223 15.9483 11.05 16.5155 7.37969C16.5237 7.33054 16.7291 6.17932 17.929 6.17932L18.0091 6.18042L18.0711 6.17932C19.271 6.17932 19.4758 7.33054 19.4842 7.37789C20.0517 11.05 22.7862 13.4223 26.4512 13.4223C28.2344 13.4223 30.0052 12.8502 31.5735 11.7677C35.1642 9.28636 35.8628 4.43378 35.9967 2.46187C36.0493 1.68979 35.4274 0.959891 34.6383 0.869641ZM10.3644 11.8673C10.1122 11.8839 9.86867 11.8911 9.63387 11.8911C7.63149 11.8911 6.07098 11.3197 4.99525 10.1899C3.27081 8.38096 3.21002 5.59117 3.26393 4.47598C3.27315 4.28704 3.45654 4.02949 3.63517 3.95698C4.54556 3.58527 6.36916 2.96102 8.35489 2.96102C9.16449 2.96102 9.92384 3.06698 10.6115 3.27686C13.4659 4.1478 14.6841 5.40208 14.6841 7.47283C14.6847 9.70541 12.7057 11.718 10.3644 11.8673ZM31.004 10.1898C29.9286 11.3196 28.3681 11.891 26.3668 11.891C26.1319 11.891 25.888 11.8838 25.6359 11.8672C23.2949 11.7179 21.3162 9.70534 21.3162 7.47268C21.3162 5.40192 22.534 4.14701 25.3892 3.27671C26.0762 3.0669 26.8358 2.96087 27.6456 2.96087C29.6315 2.96087 31.4549 3.58512 32.3648 3.95682C32.5433 4.02996 32.7275 4.28688 32.7362 4.47645C32.7898 5.5911 32.729 8.37956 31.004 10.1898Z" fill="#222222"/>
</svg>
