<svg width="368" height="175" viewBox="0 0 368 175" fill="none" xmlns="http://www.w3.org/2000/svg">
<g clip-path="url(#clip0_161_2585)">
<rect width="368" height="175" rx="14" fill="#D4FFBF"/>
<g clip-path="url(#clip1_161_2585)">
<path d="M148.241 118.29C145.185 124.627 140.979 133.367 140.288 142.101L140.244 142.178C137.275 156.505 148.333 170.064 163.013 169.974C174.281 169.904 184.229 161.737 195.489 161.312C205.823 160.923 213.32 166.439 225.389 163.856C227.69 170.763 230.041 177.602 232.456 184.206C233.274 186.397 236.385 186.391 238.517 185.429C239.828 185.235 241.095 184.134 241.526 182.805C242.511 179.765 240.932 177.679 236.253 159.651C248.636 152.81 266.246 134.68 274.393 118.466C283.055 101.225 284.8 80.6207 271.638 65.471C269.008 61.9475 265.188 58.9698 262.242 57.5461C248.315 49.2391 225.76 55.2242 210.808 61.6325C210.354 61.0939 209.718 60.6898 208.918 60.4132C212.903 50.5052 204.013 36.3492 195.755 29.319C194.107 27.9156 191.778 30.0193 193.021 31.799C194.702 34.2114 193.254 37.8368 191.506 40.2111C189.316 43.1853 186.094 45.9824 184.682 49.9794C182.677 55.6571 184.658 62.8918 192.53 66.0415C192.526 66.0482 192.52 66.0536 192.516 66.0604C191.598 67.5642 191.644 69.314 192.764 70.867C184.653 76.0427 178.197 81.8438 171.134 88.8908C162.978 97.0272 153.808 106.677 148.241 118.29ZM228.98 162.859C229.644 162.641 230.303 162.409 230.957 162.153C232.99 168.698 235.393 175.485 236.749 182.145C236.435 182.244 236.037 182.314 235.732 182.321C233.428 176.004 231.182 169.462 228.98 162.859ZM188.193 51.2201C190.01 46.0835 196.148 42.9973 197.343 36.0766C201.627 40.9138 206.405 49.1707 206.208 55.4395C206.059 60.1263 203.119 62.363 203.269 62.1541C198.297 66.2601 184.679 61.1643 188.193 51.2201ZM206.867 63.8037C207.084 63.8257 207.324 63.8815 207.51 63.8605C207.811 63.9357 207.922 64.0014 207.93 63.9952C208.174 64.5763 207.831 65.296 207.503 65.7967C205.331 69.1024 197.684 71.9061 195.588 68.3111C195.579 67.9165 196.289 67.3617 196.586 67.1371C196.916 67.0402 202.706 68.5867 206.867 63.8037ZM221.409 139.375C216.952 124.839 203.776 80.572 201.656 73.4111C202.934 73.1411 204.178 72.6754 205.361 72.1033C211.886 93.4693 218.022 110.723 224.643 137.337C223.598 138.09 222.519 138.767 221.409 139.375ZM214.367 128.973C215.575 132.981 216.781 136.989 218.009 140.994C214.72 142.238 211.775 142.527 209.724 141.835C209.485 137.158 211.199 132.417 214.367 128.973ZM225.961 121.779C228.359 121.084 230.956 119.965 233.333 121.68C234.192 122.299 234.761 123.272 234.968 124.302C234.154 127.078 232.256 130.321 229.246 133.433C228.605 130.998 227.34 126.552 225.961 121.779ZM196.041 73.1765C196.695 73.4254 197.313 73.5882 197.847 73.6696C202.428 89.1448 206.361 102.204 212.021 121.212C195.577 136.052 203.33 151.826 221.058 143.771C232.71 138.425 243.793 123.781 237.37 116.002C234.711 112.782 229.563 112.162 223.738 114.126C216.355 88.8238 213.895 78.8712 210.361 68.1636C210.996 67.2883 211.425 66.5083 211.635 65.3269C230.222 57.2135 256.275 51.3844 268.492 67.448C285.32 89.4871 257.638 139.125 229.628 153.052C215.512 160.265 207.539 153.158 195.144 153.617C181.563 154.106 168.647 165.528 156.015 161.988C150.673 160.486 146.202 155.833 144.628 150.132C141.856 140.102 147.717 127.948 151.597 119.903C156.913 108.819 165.826 99.4442 173.764 91.5281C187.945 77.3683 193.813 74.8156 196.041 73.1765Z" fill="#A6DF8B"/>
<path d="M153.574 144.924C156.327 148.258 162.552 147.346 168.056 142.801C173.56 138.256 175.633 132.316 172.88 128.982C170.127 125.647 163.902 126.56 158.398 131.105C152.894 135.65 150.82 141.589 153.574 144.924ZM170.009 131.352C171.013 132.567 169.825 136.512 165.685 139.93C161.546 143.348 157.447 143.768 156.444 142.553C155.441 141.338 156.629 137.394 160.768 133.975C164.908 130.557 169.006 130.137 170.009 131.352Z" fill="#A6DF8B"/>
<path d="M193.978 103.61C199.48 99.0668 201.554 93.1269 198.801 89.7927C196.047 86.4584 189.823 87.3707 184.32 91.9142C178.816 96.4592 176.743 102.399 179.496 105.733C182.249 109.068 188.474 108.155 193.978 103.61ZM186.691 94.7849C190.831 91.3665 194.927 90.9483 195.93 92.1631C196.933 93.378 195.747 97.3211 191.608 100.739C187.468 104.158 183.37 104.578 182.367 103.363C181.364 102.148 182.551 98.2033 186.691 94.7849Z" fill="#A6DF8B"/>
<path d="M234.358 81.41C239.862 76.8651 241.936 70.9252 239.182 67.5909C236.429 64.2567 230.204 65.169 224.7 69.714C219.196 74.259 217.123 80.1988 219.876 83.5331C222.629 86.8673 228.854 85.955 234.358 81.41ZM227.071 72.5847C231.21 69.1663 235.308 68.7466 236.312 69.9614C237.315 71.1762 236.127 75.1209 231.988 78.5393C227.848 81.9577 223.75 82.3774 222.747 81.1626C221.743 79.9478 222.931 76.0031 227.071 72.5847Z" fill="#A6DF8B"/>
<path d="M245.524 104.994C248.277 108.328 254.502 107.416 260.006 102.871C265.511 98.3256 267.584 92.3857 264.831 89.0515C262.079 85.7191 255.854 86.6314 250.35 91.1764C244.846 95.7214 242.773 101.661 245.524 104.994ZM261.96 91.4219C262.963 92.6368 261.776 96.5814 257.636 99.9998C253.496 103.418 249.398 103.838 248.395 102.623C247.393 101.41 248.581 97.4655 252.721 94.0471C256.86 90.6287 260.958 90.209 261.96 91.4219Z" fill="#A6DF8B"/>
<path d="M172.441 64.0789C168.507 63.6776 164.584 62.9313 160.78 61.8605C158.412 61.1859 157.399 64.7779 159.77 65.4417C163.781 66.5716 167.918 67.3608 172.067 67.7826C174.516 68.0328 174.891 64.3251 172.441 64.0789Z" fill="#A6DF8B"/>
<path d="M175.743 54.6098C173.723 53.7972 171.837 52.696 170.135 51.3319C168.225 49.7903 165.878 52.6898 167.805 54.2361C169.793 55.829 171.995 57.1169 174.353 58.065C176.64 58.9789 178.028 55.5337 175.743 54.6098Z" fill="#A6DF8B"/>
<path d="M173.172 41.5414C174.113 44.5805 175.968 47.3831 178.394 49.4345C180.273 51.0227 182.68 48.1846 180.798 46.589C178.908 44.9934 177.462 42.8083 176.727 40.4414C176.003 38.0937 172.438 39.1797 173.172 41.5414Z" fill="#A6DF8B"/>
</g>
</g>
<defs>
<clipPath id="clip0_161_2585">
<rect width="368" height="175" rx="14" fill="white"/>
</clipPath>
<clipPath id="clip1_161_2585">
<rect width="181.184" height="181.184" fill="white" transform="translate(79.582 99.8228) rotate(-39.5478)"/>
</clipPath>
</defs>
</svg>
