<svg width="368" height="175" viewBox="0 0 368 175" fill="none" xmlns="http://www.w3.org/2000/svg">
<g clip-path="url(#clip0_142_15485)">
<rect width="368" height="175" rx="14" fill="#FFE1D7"/>
<g clip-path="url(#clip1_142_15485)">
<path d="M191.061 114.589C190.279 113.861 189.534 113.161 188.81 112.465C185.815 109.835 183.727 107.089 181.905 104.967C180.961 103.937 180.364 102.838 179.753 101.961C179.159 101.056 178.675 100.291 178.276 99.6838C177.495 98.4399 177.121 97.7622 177.209 97.7049C177.296 97.6475 177.844 98.2105 178.771 99.3232C179.245 99.8819 179.808 100.577 180.486 101.391C181.176 102.198 181.852 103.227 182.855 104.184C185.258 106.812 188.536 110.09 192.845 113.418C192.848 113.42 192.851 113.422 192.854 113.424C193.54 112.974 195.13 112.572 198.858 112.253C200.161 112.186 201.74 111.966 203.611 111.758L203.605 111.748C201.309 109.068 198.754 105.937 195.939 102.248C193.007 98.353 189.352 93.2469 185.809 87.6052C185.251 86.729 184.706 85.8446 184.161 84.9603C184.157 84.9535 184.153 84.9462 184.149 84.9394C183.069 84.9158 182.029 84.8633 181.076 84.7896C178.219 84.6581 175.941 84.2499 174.115 83.9173C173.342 83.7981 172.671 83.6471 172.058 83.4895C172.059 83.4924 172.06 83.4966 172.061 83.4995C172.72 85.3737 173.436 86.9265 173.959 88.3219C174.237 89.0444 174.487 89.697 174.725 90.3039C174.983 90.9149 175.271 91.4354 175.502 91.9229C175.984 92.9018 176.352 93.707 176.639 94.3886C177.785 97.0603 177.558 97.4755 177.209 97.7049C176.859 97.9343 176.421 97.9738 174.61 95.5959C174.145 94.9963 173.603 94.2519 172.951 93.3134C172.642 92.8424 172.262 92.3463 171.925 91.7513C171.621 91.1521 171.264 90.4993 170.887 89.7886C170.178 88.3555 169.252 86.7276 168.4 84.7496C168.034 83.73 167.615 82.6562 167.185 81.4839L167.16 81.4467C167.156 81.4355 167.152 81.424 167.148 81.4129C167 81.2219 166.937 81.0418 166.944 80.8694C166.579 79.9054 166.226 78.8804 165.878 77.7809C164.662 73.3983 163.413 68.0424 162.982 61.5115L161.961 61.9687C158.505 63.5295 155.09 65.5128 152.483 65.21C151.034 65.0969 149.66 64.5263 148.54 63.6643C147.433 62.7938 146.586 61.6114 146.136 60.274C145.674 58.9446 145.66 57.4278 145.966 56.1801C149.832 40.4206 149.628 41.521 149.483 40.7581C149.414 40.2177 149.179 39.6975 148.836 39.2837C148.407 38.7974 139.536 28.826 139.213 28.4601C138.682 27.8684 138.037 26.9959 137.769 26.1249C137.117 24.3703 137.359 22.4547 138.155 20.9741C140.059 17.3648 142.891 17.3738 153.664 17.1277C156.433 17.0488 157.969 17.1048 157.98 17.3108C158.002 17.5086 156.507 17.8693 153.784 18.3442C143.371 20.1589 141.773 19.3548 140.503 22.1299C140.097 23.0352 140.045 24.1518 140.474 25.0772C140.671 25.5683 140.957 25.8953 141.423 26.3877C142.672 27.6516 149.354 34.4251 151.674 36.8348C152.467 37.7162 153.039 38.8316 153.283 40.0198C153.405 40.6137 153.445 41.2447 153.401 41.8585C153.379 42.4742 153.45 42.0317 150.357 57.13C150.122 58.2956 150.521 59.3113 151.407 59.9539C151.847 60.2691 152.37 60.4404 152.861 60.4547C154.225 60.7339 166.884 53.145 170.492 53.0148C171.207 52.9889 171.934 53.0622 172.626 53.2463C174.029 53.5749 173.95 53.6665 187.326 61.3052C187.425 61.3466 187.524 61.3883 187.618 61.4506C187.721 61.4715 187.824 61.4925 187.923 61.5343C188.677 61.731 189.581 61.3682 190.092 60.7312C190.331 60.415 190.478 60.0692 190.528 59.682C190.545 59.5754 188.655 44.1341 188.642 44.0272C188.396 39.4434 191.873 37.2347 191.976 37.0295C204.245 26.4853 203.366 26.7306 202.908 25.5052C202.718 25.0797 202.412 24.7489 202.046 24.5454C201.832 24.4372 201.684 24.3749 201.354 24.3073C180.516 20.0535 184.108 23.9311 176.154 4.63403C175.521 3.09788 175.428 2.82141 174.94 2.43165C174.06 1.66155 172.613 1.74174 171.867 2.37345C171.663 2.52516 171.483 2.71405 171.341 2.93197C171.295 2.99774 171.257 3.02234 171.207 3.10843L171.014 3.41278C170.724 3.97839 165.903 11.9618 163.423 15.5118C162.24 17.2464 160.822 17.8052 159.964 17.995C159.058 18.1646 158.559 18.0303 158.3 17.8809C158.046 17.7109 158.002 17.5086 157.98 17.3108C157.914 16.8571 158.115 16.5655 159.031 15.8396C159.469 15.4457 160.07 14.8916 160.456 13.8752C162.444 9.23623 165.555 3.39704 167.165 0.296847C167.543 -0.324233 168.024 -0.923904 168.615 -1.43671C170.955 -3.55773 175.068 -4.14641 178.197 -1.80015C178.993 -1.24023 179.638 -0.474999 180.151 0.359964C180.715 1.35551 180.852 1.78066 181.176 2.43741C181.701 3.61867 182.259 4.84927 182.829 6.12525C186.951 1.71567 191.803 -2.48047 197.451 -6.22417C197.884 -6.5083 198.325 -6.78042 198.766 -7.05213C194.951 -10.8946 188.181 -19.8285 184.87 -24.8722C176.763 -37.2208 177.731 -38.2258 179.134 -39.1469C180.538 -40.0682 181.845 -40.5568 189.951 -28.2082C193.28 -23.1372 198.83 -13.2916 200.811 -8.28836C207.099 -11.9011 214.292 -14.8135 222.218 -16.6102C239.094 -20.4012 256.74 -18.2125 270.846 -11.4299C277.016 -8.72069 282.96 -4.72587 288.528 0.0296117C299.602 9.63526 308.575 23.4404 312.269 39.2928C316.249 55.064 314.372 72.5497 307.644 87.6492C301.325 102.221 288.726 115.592 275.219 122.76C259.625 131.222 242.987 133.797 227.963 131.336C223.271 130.565 223.514 130.698 216.448 128.728C209.222 126.615 198.983 121.344 191.061 114.589ZM240.083 104.397C246.227 102.273 254.125 99.4451 262.12 95.4754C262.774 95.153 263.429 94.7887 264.084 94.4539C260.985 88.6418 256.868 81.5489 251.674 72.831C250.438 70.763 249.065 68.4873 247.598 66.0806C238.877 70.7954 230.388 74.727 223.488 77.2971C222.007 77.8524 220.56 78.363 219.141 78.8435C219.143 78.8458 219.144 78.8483 219.146 78.8506C221.61 82.4141 223.912 85.676 225.917 88.5123C230.63 95.1203 234.702 100.535 238.149 104.996C238.794 104.796 239.42 104.612 240.083 104.397ZM289.735 37.2068C285.883 40.8678 281.189 44.8041 275.901 48.6C275.429 48.9412 274.94 49.2783 274.461 49.618C280.074 59.4731 284.821 68.92 289.297 78.6623C289.66 78.3937 290.03 78.1197 290.388 77.8553C295.103 74.1311 299.252 70.6058 304.478 65.6699C300.183 55.5895 296.038 47.2569 289.735 37.2068ZM287.116 33.1317C283.076 27.0032 278.776 21.6071 275.431 17.4277C270.911 11.9404 266.909 7.69693 263.513 4.29529C263.513 4.29604 263.512 4.29669 263.512 4.29745C260.729 8.21802 256.974 12.7242 252.39 17.0824C252.385 17.0876 252.379 17.0927 252.373 17.0975C253.759 18.7793 255.168 20.5293 256.623 22.4255C260.851 28.0555 266.07 35.464 271.001 43.6938C271.426 44.4028 271.849 45.1234 272.272 45.8424C272.676 45.5863 273.091 45.3313 273.489 45.0745C279.012 41.5467 283.94 37.9146 288.047 34.5803C287.734 34.1008 287.43 33.6041 287.116 33.1317ZM218.363 -9.37643C218.362 -9.37618 218.362 -9.37618 218.361 -9.37593C212.414 -7.58314 206.981 -5.1165 202.158 -2.18119L202.152 -2.17669C204.219 -0.868369 214.064 9.6985 224.871 23.4395C226.128 25.0326 227.399 26.6744 228.673 28.34C228.674 28.3394 228.675 28.3389 228.676 28.3384C234.242 25.1277 239.85 21.4643 244.919 17.6046C232.232 2.64985 221.158 -6.12897 218.363 -9.37643ZM200.169 49.1829C204.03 55.6626 208.239 62.4279 212.387 68.7728C213.465 70.4424 214.552 72.0712 215.627 73.6545C217.481 73.0417 219.393 72.3764 221.377 71.6351C227.93 69.1941 236.097 65.5861 244.651 61.2845C242.542 57.8762 240.286 54.2847 237.921 50.6079C234.685 45.566 231.262 40.4025 227.847 35.3593C221.448 39.1513 215.276 42.2812 210.288 44.6336C206.643 46.3702 203.264 47.8603 200.169 49.1829ZM266.252 46.6639C261.148 38.7377 255.917 31.6111 251.798 26.1227C250.446 24.3612 249.143 22.729 247.864 21.1542C242.959 25.3499 237.491 29.3119 232.024 32.7589L232.017 32.7636C235.631 37.6062 239.219 42.6073 242.586 47.5084C245.199 51.3047 247.671 55.0306 249.95 58.5642C255.884 55.4594 261.902 52.1465 267.568 48.746C267.129 48.0551 266.692 47.3455 266.252 46.6639ZM270.042 52.6589C264.536 56.3323 258.686 59.8647 252.872 63.159C254.326 65.4787 255.68 67.6847 256.886 69.7024C262.111 78.4755 266.175 85.6749 269.193 91.7406C274.81 88.6176 280.323 85.1617 285.299 81.6177C285.665 81.3465 286.022 81.0829 286.385 80.8147C281.279 71.6058 276.469 63.0214 270.042 52.6589ZM232.062 106.766C228.801 102.696 225.093 97.8368 220.961 92.032C218.667 88.7825 216.015 84.9339 213.252 80.697C213.251 80.6955 213.25 80.6943 213.249 80.6931C210.542 81.4764 207.962 82.1367 205.527 82.6866C204.184 82.9601 202.888 83.2241 201.638 83.479C200.388 83.7341 199.157 83.8652 197.985 84.0507C195.642 84.4415 193.444 84.6038 191.414 84.7581C191.168 84.7841 190.931 84.7956 190.69 84.8145C194.348 90.0594 197.964 94.8337 200.777 98.5753C204.625 103.621 207.901 107.659 210.622 110.963C211.454 110.841 212.316 110.715 213.226 110.583C218.24 109.845 224.486 108.796 232.065 106.77C232.064 106.769 232.063 106.767 232.062 106.766ZM170.014 76.6279C170.285 77.6388 170.556 78.5961 170.836 79.5125L170.844 79.5237C171.826 79.5592 173.048 79.6681 174.641 79.6671C176.363 79.7149 178.479 79.8553 181.096 79.7754C181.095 79.7735 181.094 79.7719 181.093 79.7701C179.225 76.5429 177.452 73.2708 175.834 70.127C173.633 65.8229 171.752 61.7341 170.311 58.3148C170.166 58.3392 170.009 58.3714 169.86 58.4161C169.736 58.4444 169.196 58.71 168.748 58.8977L167.843 59.3145C167.918 66.3098 168.977 72.0024 170.014 76.6279ZM195.578 51.682C195.772 53.4182 195.982 55.1793 196.183 56.9813L196.339 58.334C196.398 58.9689 196.432 59.7278 196.313 60.4443C196.117 61.8862 195.488 63.2933 194.543 64.4106C192.682 66.6617 189.48 67.8226 186.525 67.0478C186.171 66.9434 185.808 66.8262 185.458 66.7011C185.125 66.5473 184.805 66.3852 184.476 66.2107C173.492 59.6519 176.147 61.239 175.726 60.9881L175.028 60.5771C176.414 62.879 177.939 65.3915 179.562 67.9994C181.913 71.7439 184.468 75.6911 187.066 79.5398C187.067 79.5413 187.068 79.5425 187.069 79.5443C188.29 79.4749 189.582 79.4047 190.953 79.2031C196.113 78.6475 202.403 77.5533 209.896 75.4218C209.136 74.2373 208.385 73.012 207.638 71.7659C203.569 65.0504 199.529 57.8363 195.957 50.954C195.804 51.0193 195.65 51.0846 195.509 51.1416C195.536 51.3191 195.563 51.4963 195.578 51.682ZM200.649 -1.2437C194.635 2.70456 189.591 7.20506 185.412 11.8825C185.841 12.8075 186.274 13.7656 186.702 14.7443C186.893 15.0625 187.171 15.3233 187.496 15.5184C187.66 15.6058 187.829 15.6723 188.023 15.7227C188.406 15.7905 188.79 15.858 189.182 15.9379C190.992 16.2754 192.885 16.6295 194.853 16.9881C203.378 18.5878 202.394 18.3442 203.723 18.7238C204.118 18.8903 204.526 19.0487 204.925 19.2482C206.491 20.0834 207.762 21.5026 208.476 23.1626C209.15 24.8142 209.325 26.7401 208.778 28.5719C208.501 29.4818 208.087 30.3747 207.488 31.122C206.858 32.0781 198.532 39.2979 196.843 40.7721C196.498 41.0884 196.143 41.3916 195.776 41.7034C196.199 42.4555 196.65 43.2239 197.101 43.9927C200.326 42.5678 203.874 40.9833 207.718 39.1693C212.517 36.9065 218.44 34.0467 224.629 30.6399C223.552 29.0746 222.475 27.5111 221.419 26.0001C211.405 11.6286 202.563 0.148956 201.802 -1.96592C201.411 -1.72635 201.032 -1.49523 200.649 -1.2437ZM223.506 -10.7311C223.225 -10.6706 222.943 -10.6097 222.67 -10.5367C222.668 -10.5366 222.667 -10.5358 222.666 -10.5357C231.572 -5.16971 242.854 5.98887 249.648 13.8612C249.648 13.8606 249.649 13.8601 249.649 13.8598C254.407 9.9024 258.418 5.81381 261.51 2.31118C255.469 -3.593 258.058 -0.979527 251.278 -7.4214C248.498 -10.0615 247.943 -11.1487 248.047 -11.8102C248.046 -11.8105 248.046 -11.8104 248.045 -11.8107C239.433 -12.935 231.097 -12.4137 223.506 -10.7311ZM268.283 -5.95036C264.016 -8.03733 258.45 -9.78585 253.947 -10.7882C253.947 -10.7892 253.945 -10.789 253.944 -10.7898C256.57 -9.26029 261.555 -5.28473 265.209 -2.03227C265.21 -2.03312 265.211 -2.03407 265.211 -2.03493C266.274 -3.35375 267.124 -4.47969 267.806 -5.31736C267.994 -5.54747 268.165 -5.74878 268.312 -5.93373C268.304 -5.94615 268.291 -5.93795 268.283 -5.95036ZM284.616 4.51415C279.74 0.404744 274.593 -3.08343 269.212 -5.5135C268.656 -4.21669 267.733 -2.32268 266.755 -0.63508C266.755 -0.634223 266.754 -0.632967 266.753 -0.632118C270.573 2.87868 275.079 7.44105 280.13 13.5731C283.602 17.9051 287.924 23.6144 291.837 30.119C292.003 30.3925 292.16 30.6827 292.325 30.9583C295.9 27.7937 298.536 25.1137 300.143 23.6246C300.142 23.6227 300.141 23.6211 300.14 23.6195C296 16.1697 290.626 9.67158 284.616 4.51415ZM300.668 24.5859C300.667 24.5847 300.667 24.5837 300.666 24.5824C298.871 27.3666 295.965 30.8168 293.666 33.2681C299.278 43.0467 303.699 52.9107 306.822 63.4887C307.64 62.7449 308.295 62.181 308.764 61.8307L308.76 61.8252C309.241 54.6428 308.626 47.4514 306.826 40.6301C305.453 34.9484 303.329 29.5642 300.668 24.5859ZM308.65 63.317C308.65 63.3165 308.65 63.3174 308.65 63.317C308.297 63.8478 307.852 64.4737 307.315 65.197C307.592 66.1834 307.847 67.1252 308.073 68.0012C308.074 67.997 308.075 67.993 308.075 67.9891C308.33 66.4197 308.528 64.8706 308.65 63.317ZM303.045 85.647C304.868 81.3802 306.292 76.9138 307.271 72.3673C307.272 72.3649 307.272 72.3624 307.273 72.3603C306.864 71.3956 306.408 70.2809 305.896 69.0034C305.724 68.6003 305.54 68.169 305.357 67.7381C301.744 72.2785 297.102 76.9226 292.856 80.8012C292.243 81.3211 291.615 81.8542 290.986 82.3874C293.776 88.6214 295.868 93.7348 296.952 96.8154L296.963 96.8085C299.345 93.3109 301.411 89.5767 303.045 85.647ZM296.129 98.0355C294.518 95.4921 291.829 90.6463 288.448 84.54C288.263 84.6973 288.083 84.8504 287.896 85.0087C282.908 89.0532 277.273 93.0024 271.465 96.5304C271.499 96.6064 271.539 96.6884 271.572 96.7639C274.689 103.749 276.106 108.819 276.792 112.272C277.139 114.055 277.298 115.41 277.348 116.446L277.356 116.441C284.649 111.6 291.249 104.926 296.129 98.0355ZM273.119 119.045C273.592 118.788 274.056 118.519 274.512 118.237C274.066 117.279 273.516 115.771 272.658 113.442C271.505 110.354 269.797 105.812 266.605 99.3554C265.953 99.7183 265.301 100.086 264.648 100.435C256.572 104.789 248.487 107.884 242.116 110.086C242.275 110.301 242.446 110.507 242.605 110.722C248.472 118.222 253.228 124.142 254.318 126.633C260.758 125.155 267.07 122.449 273.119 119.045ZM250.836 127.34C246.956 124.187 241.516 118.101 238.276 114.273C237.618 113.516 236.949 112.714 236.234 111.87C236.232 111.867 236.23 111.864 236.227 111.861C227.605 114.276 220.5 115.397 214.832 116.011C217.494 119.262 216.98 118.501 220.157 122.602C222.356 125.488 222.552 126.495 222.245 127.087C231.587 129.19 241.574 129.103 250.836 127.34ZM217.311 125.908C217.393 125.925 217.484 125.954 217.566 125.971C217.398 125.851 217.234 125.71 217.05 125.565C213.519 122.719 208.775 117.512 207.875 116.593L207.87 116.586C206.842 116.609 205.858 116.631 204.961 116.652C202.491 116.674 200.505 116.725 198.901 116.533C198.141 116.466 197.473 116.395 196.877 116.323C203.394 120.744 211.204 124.192 217.311 125.908Z" fill="#EFBEAE"/>
<path d="M113.683 28.0725C113.962 27.2829 114.272 26.5873 115.747 26.5114C117.228 26.4184 119.853 26.9873 124.881 28.4084C127.636 29.1915 131.913 30.6182 135.529 31.922C139.138 33.2343 142.087 34.4592 141.952 35.29C141.818 36.1101 138.578 36.374 134.631 36.1118C130.686 35.8606 126.063 35.0476 123.21 34.2359C117.998 32.7627 115.499 31.5185 114.347 30.5648C113.201 29.5934 113.405 28.862 113.683 28.0725Z" fill="#EFBEAE"/>
<path d="M189.526 133.191C191.841 130.612 197.82 125.977 199.065 127.088C200.31 128.199 196.351 134.635 194.036 137.214C189.81 141.921 188.712 141.119 187.467 140.008C186.222 138.896 185.3 137.897 189.526 133.191Z" fill="#EFBEAE"/>
<path d="M207.866 149.08C208.556 146.062 209.777 141.338 210.82 137.306C211.883 133.284 212.832 129.957 213.677 130.003C214.504 130.047 215.069 133.515 215.077 137.815C215.108 142.111 214.511 147.205 213.786 150.371C212.466 156.152 211.183 158.943 210.227 160.251C209.241 161.553 208.503 161.376 207.706 161.124C206.909 160.872 206.207 160.578 206.13 159.004C206.024 157.422 206.608 154.587 207.866 149.08Z" fill="#EFBEAE"/>
</g>
</g>
<defs>
<clipPath id="clip0_142_15485">
<rect width="368" height="175" rx="14" fill="white"/>
</clipPath>
<clipPath id="clip1_142_15485">
<rect width="202.993" height="201.74" fill="white" transform="matrix(-0.727997 0.68558 0.68558 0.727997 236.451 -104.031)"/>
</clipPath>
</defs>
</svg>
