<svg width="368" height="175" viewBox="0 0 368 175" fill="none" xmlns="http://www.w3.org/2000/svg">
<g clip-path="url(#clip0_142_15990)">
<rect width="368" height="175" rx="14" fill="#C5EDFA"/>
<g clip-path="url(#clip1_142_15990)">
<path d="M204.983 -16.5741C198.297 -20.0325 190.819 -21.8107 182.702 -20.7074C159.517 -17.2584 134.456 14.3599 126.788 36.5158C124.004 40.029 108.412 84.0145 105.759 91.3882L105.724 91.6798C101.377 95.8941 99.7801 96.8869 94.7804 101.615C92.3432 102.212 88.6006 103.836 84.5663 105.426C79.2613 107.752 79.296 107.46 78.9349 108.009C68.7966 118.631 56.2557 129.559 46.0826 140.473C45.7215 141.022 45.3604 141.57 45.5826 142.188C46.0753 145.5 48.0608 148.695 50.7686 150.792C53.3721 153.764 56.9548 155.965 60.9196 154.959C64.2664 154.174 66.9468 151.536 69.0439 148.828C77.2588 139.455 89.1259 131.7 94.5983 120.522C96.5428 116.613 96.6196 111.003 99.6959 107.524C102.481 104.011 107.293 98.3734 111.945 96.5616C120.597 93.4517 137.358 94.2655 158.523 87.914C177.868 81.9374 194.505 73.8635 210.205 61.2417C220.683 52.7299 230.53 42.0725 232.711 28.7274C235.31 11.8828 225.729 -7.00425 204.983 -16.5741ZM205.043 12.7134C199.787 17.1151 194.495 21.8084 189.496 26.5365C183.649 23.4739 177.512 20.3766 171.7 17.0224C176.117 12.2249 180.79 7.75371 185.463 3.28252L205.043 12.7134ZM186.128 29.9802C181.093 34.9999 176.024 40.3112 171.212 45.9488L155.027 37.8097C159.291 31.8109 164.103 26.1733 168.881 20.8272C174.435 23.855 180.282 26.9176 186.128 29.9802ZM168.17 49.1356C163.032 55.0302 158.476 60.9942 153.594 67.2152C152.837 68.6038 153.504 70.4577 155.254 70.6662C157.587 70.9441 156.302 69.3123 172.371 51.1149C194.985 62.386 193.853 61.9555 194.728 62.0597C197.061 62.3376 198.061 58.9076 196.124 57.7896L175.774 47.3796C180.551 42.0335 185.62 36.7222 190.981 31.4457C199.931 35.7652 208.589 40.0501 217.865 44.1128C215.476 46.7858 212.796 49.4241 210.477 51.5139C198.227 62.4766 186.43 69.6482 174.174 73.2161C160.065 77.4504 148.261 77.2272 139.054 72.5812C137.374 71.7895 136.055 70.4493 134.736 69.1091C136.333 68.1163 138.729 60.4162 152.861 41.1008L168.17 49.1356ZM160.287 -3.8575C168.55 -11.1544 175.814 -15.0213 183.347 -16.1941C208.316 -19.7261 233.442 10.1815 224.504 33.0733C223.677 35.0452 222.129 38.114 219.997 41.1134C211.269 37.4118 202.32 33.0922 193.661 28.8074C198.661 24.0793 203.952 19.386 209.501 15.019C215.382 17.79 215.382 17.79 215.965 17.8594C218.298 18.1374 219.298 14.7074 217.069 13.5546L213.16 11.6101C214.139 10.8394 215.153 9.77719 216.424 9.04129C217.403 8.27065 217.577 6.81254 216.806 5.83345C216.035 4.85435 214.577 4.68064 213.598 5.45128C211.966 6.73568 210.334 8.02008 208.703 9.30448L188.831 -0.161147C191.116 -1.95931 193.366 -3.46585 195.872 -4.64602C197.074 -4.79867 197.796 -5.89568 197.352 -7.13165C196.907 -8.36762 195.775 -8.79822 194.54 -8.35394C190.832 -7.02111 187.568 -4.45231 184.888 -1.81403L177.618 -5.34192C176.486 -5.77251 175.25 -5.32824 174.528 -4.23123C174.098 -3.09949 174.542 -1.86352 175.639 -1.1413L181.228 1.5949C176.555 6.06609 172.173 10.572 167.791 15.0779C163.66 12.5155 159.203 10.2098 155.072 7.64736C153.975 6.92515 152.739 7.36942 152.016 8.46643C151.294 9.56343 151.738 10.7994 152.835 11.5216C156.675 14.0494 160.841 16.3202 165.007 18.5911C160.194 24.2288 155.382 29.8664 151.118 35.8652L140.815 30.4971C139.683 30.0665 138.447 30.5107 137.759 31.3161C137.329 32.4479 137.773 33.6838 138.579 34.3713L148.077 39.052C142.042 47.5017 136.556 56.3125 131.362 65.158C129.001 60.1446 128.203 54.4301 128.072 50.5695C128.218 44.376 130.184 37.8076 134.107 29.698C140.663 16.874 149.413 5.49441 160.287 -3.8575ZM124.121 53.9437C124.641 61.9912 128.382 72.7886 136.492 76.7123C142.081 79.4485 147.844 80.7266 154.038 80.873C140.22 85.142 126.062 87.3002 111.612 89.4237C97.1629 91.5471 111.612 89.4237 111.321 89.3889C115.731 77.1966 119.349 66.6845 124.121 53.9437ZM92.079 106.913C91.1483 109.759 89.4607 113.995 88.2731 116.515C88.2731 116.515 88.2731 116.515 87.9815 116.48C85.718 115.619 83.5935 113.591 82.7049 111.12C86.156 109.46 89.3154 107.766 92.079 106.913ZM79.1497 113.654C80.6215 116.195 83.0029 118.549 85.5232 119.737C78.1695 126.846 66.7604 138.205 57.2401 148.605C54.0322 148.223 50.4843 145.73 49.7 142.383C59.0814 133.149 69.4072 123.436 79.1497 113.654Z" fill="#A1DAEC"/>
<path d="M189.545 98.1167C179.255 95.1163 166.965 98.9758 161.618 106.62C161.257 107.169 160.861 108.009 160.5 108.557C149.514 123.811 157.65 144.892 179.987 146.074C185.854 146.478 191.603 145.388 197.353 144.298C199.172 143.924 201.352 143 201.852 141.285C202.026 139.827 200.776 137.904 197.568 137.522C211.436 122.907 202.39 102.013 189.545 98.1167ZM162.29 128.291C171.781 125.577 183.029 130.466 187.924 139.034C177.967 143.172 165.844 138.178 162.29 128.291ZM191.736 136.827C191.479 136.5 191.514 136.209 191 135.556C184.752 125.939 172.337 120.911 161.353 123.743C160.777 118.646 162.312 113.209 165.492 108.856C166.937 106.662 169.513 104.899 172.054 103.427C175.726 114.808 188.398 120.162 199.042 115.219C199.334 115.254 199.369 114.962 199.695 114.705C201.861 123.836 197.902 132.238 191.736 136.827ZM188.441 102.422C192.746 103.526 195.863 107.151 198.001 111.546C197.71 111.511 197.418 111.477 197.092 111.733C188.954 115.496 179.094 111.364 176.019 102.42C179.984 101.414 184.428 101.352 188.441 102.422Z" fill="#A1DAEC"/>
<path d="M200.781 88.2163C201.655 88.3205 202.6 87.8415 202.961 87.293L208.121 78.7391C208.843 77.6421 208.399 76.4061 207.302 75.6839C206.205 74.9617 204.969 75.4059 204.246 76.5029L199.087 85.0568C198.364 86.1538 198.809 87.3898 199.906 88.112L200.781 88.2163Z" fill="#A1DAEC"/>
<path d="M209.5 96.9449L219.736 90.4744C220.715 89.7038 221.145 88.5721 220.409 87.3013C219.639 86.3222 218.507 85.8917 217.236 86.6276L207.001 93.098C206.022 93.8686 205.591 95.0004 206.327 96.2711C206.549 96.8891 207.39 97.2849 207.973 97.3544C208.556 97.4239 208.882 97.167 209.5 96.9449Z" fill="#A1DAEC"/>
<path d="M221.359 106.639L212.353 105.27C211.222 104.84 209.916 105.867 209.777 107.034C209.638 108.2 210.374 109.471 211.541 109.61L220.546 110.978C221.713 111.117 222.692 110.347 222.831 109.18C223.296 107.757 222.526 106.778 221.359 106.639Z" fill="#A1DAEC"/>
</g>
</g>
<defs>
<clipPath id="clip0_142_15990">
<rect width="368" height="175" rx="14" fill="white"/>
</clipPath>
<clipPath id="clip1_142_15990">
<rect width="199.705" height="199.705" fill="white" transform="translate(53.625 -42) rotate(6.79387)"/>
</clipPath>
</defs>
</svg>
