<svg width="368" height="175" viewBox="0 0 368 175" fill="none" xmlns="http://www.w3.org/2000/svg">
<g clip-path="url(#clip0_142_16053)">
<rect width="368" height="175" rx="14" fill="#FFF1CD"/>
<path d="M55.3705 178.551C55.1477 180.557 56.3658 182.491 57.9414 183.583C59.9224 184.955 62.4716 185.324 66.0448 186.098C70.3424 187.029 75.123 187.876 78.8573 185.39C78.1192 188.305 79.957 191.398 82.4002 192.871C84.8435 194.343 87.7453 194.572 90.5417 194.747C107.994 195.844 125.491 196.146 142.971 195.65C147.573 195.52 149.599 194.255 149.995 187.233C151.608 188.238 153.865 187.819 155.079 186.29C155.941 185.204 156.264 183.725 157.075 182.594C159.179 179.665 163.449 180.261 166.568 181.799C176.545 186.715 176.551 193.719 182.109 192.745C183.684 193.131 186.777 191.424 188.089 186.601C189.894 179.964 187.549 176.886 188.385 175.465C188.686 174.954 189.302 174.749 189.861 174.794C191.314 174.912 196.141 178.37 198.692 173.031C200.36 171.059 201.74 166.615 200.875 163.517C200.207 161.114 197.871 158.786 195.087 159.092C194.327 159.172 193.683 159.428 193.112 159.654C192.643 159.839 192.239 160.001 191.929 160.001C191.569 159.976 190.475 159.237 189.159 157.823C191.242 151.312 191.15 149.136 191.273 148.489C191.596 145.629 191.798 142.792 189.979 140.453C189.351 139.647 188.24 139.545 187.494 140.218C183.024 144.254 176.553 146.176 167.717 146.096C166.029 146.073 164.394 146.002 162.947 145.391C158.918 143.664 161.006 141.199 159.182 138.255C157.776 136.034 155.199 135.639 153.063 139.146C149.227 145.268 140.534 142.424 133.768 141.065C132.457 135.169 132.602 131.087 131.673 104.876C131.567 101.762 131.456 98.5421 132.21 95.6095C132.649 93.8976 133.818 90.8033 136.913 89.2172C137.813 88.7623 139.176 88.0732 139.595 86.4292C139.915 85.159 139.491 83.7626 138.483 82.7844C136.866 81.2108 134.607 81.109 133.669 80.091C132.425 78.743 132.012 76.4773 132.039 74.8045C132.162 67.0966 134.986 56.7545 141.018 51.0251C141.639 50.4365 141.753 49.4963 141.392 48.7399C141.276 48.1782 140.954 47.6733 140.43 47.417C136.599 45.543 132.538 44.9068 129.002 45.6251C127.627 45.9045 126.458 46.4235 125.15 46.9914C124.755 45.7408 123.809 44.7051 123.609 44.1042C123.077 42.5262 125.265 39.396 124.389 36.2391C123.795 34.1072 122.095 32.6789 119.333 31.9956C117.576 31.5611 115.288 31.1974 113.153 32.2477C110.979 33.3173 109.093 36.2459 109.703 39.297C109.958 40.5683 110.897 42.1304 110.972 42.8114C111.017 43.2544 110.391 44.7864 108.983 46.7136C106.794 47.1902 106.201 47.0241 103.801 46.0833C102.679 45.6423 101.518 45.1872 100.222 45.0201C97.0694 44.613 94.2023 45.6695 92.1099 47.9689C92.0817 47.9956 92.0508 48.0189 92.0231 48.0462C92.0201 48.0497 92.0162 48.0517 92.0131 48.0552C92.01 48.0586 92.0094 48.0632 92.0063 48.0667C90.393 49.6825 90.4333 51.8863 91.4245 52.9575C93.6086 55.3179 95.3642 54.7413 97.4063 61.1828C98.6822 65.208 99.4795 69.4099 99.7725 73.6537C100.146 79.0508 97.8752 79.1898 95.1394 81.638C94.2778 82.1425 94.1792 82.3826 93.9641 82.6346C92.5926 83.4228 90.6903 86.471 92.5452 87.7175C92.9675 88.0013 93.4612 88.1297 93.9233 88.3294C96.4104 89.4042 97.7091 92.4338 97.9885 95.308C98.3619 99.1466 97.7228 103.082 97.7299 106.924C97.7418 113.364 97.5217 121.36 96.8471 127.766C89.4125 121.185 82.4558 112.681 75.9361 114.327C75.0056 113.355 71.3838 112.539 69.7789 112.348C68.4345 112.189 64.3098 111.702 63.1298 116.282C59.3612 130.854 56.4687 163.113 55.4384 173.452C55.3354 174.618 55.1979 176.304 55.4844 177.881C55.4487 178.104 55.395 178.331 55.3705 178.551ZM128.146 105.024C129.185 135.105 128.673 140.184 132.924 149.773C121.435 150.302 109.825 149.912 98.3726 148.677C102.82 138.962 102.166 133.16 104.021 104.768C104.13 102.977 104.229 101.052 104.175 99.0958C112.803 99.6347 120.392 99.8141 128.113 99.7362C128.035 101.558 128.089 103.349 128.146 105.024ZM144.692 177.962C122.971 179.442 101.766 178.364 85.5272 177.22C82.5743 172.343 91.1214 162.3 96.5476 152.326C108.764 153.723 120.98 154.139 133.17 153.572C133.677 153.548 134.117 153.29 134.424 152.905C139.632 163.067 147.8 173.187 144.692 177.962ZM145.437 181.719C145.681 184.036 145.517 186.335 144.931 188.027C144.606 188.968 141.955 189.053 140.824 189.089C127.15 189.575 97.9255 189.933 85.8155 188.009C84.88 187.86 84.3116 187.578 84.2828 184.909C84.267 183.573 84.4291 182.251 84.6727 180.972C104.981 182.417 125.119 183.143 145.437 181.719ZM195.422 162.879C196.331 162.774 197.245 163.72 197.497 164.619C197.845 165.872 197.453 167.358 197.025 168.646C196.06 171.551 195.229 171.275 193.102 170.235C189.679 168.559 188.677 169.053 186.407 170.335C186.38 167.529 187.047 164.654 187.904 161.801C191.87 165.437 193.895 163.037 195.422 162.879ZM167.673 149.9C176.267 149.978 182.903 148.249 187.881 144.639C188.011 145.639 187.909 146.805 187.771 148.036C187.64 148.701 187.797 150.499 185.687 157.021C183.95 162.398 182.177 167.703 183.108 173.305C183.694 176.834 184.228 176.597 183.302 182.03C182.949 184.102 182.837 185.183 182.681 186.053C178.817 181.105 172.857 177.494 164.519 175.065C160.696 173.964 157.216 173.518 154.126 176.195C155.601 166.079 156.847 155.849 157.845 145.657C160.085 149.252 163.678 149.847 167.673 149.9ZM147.316 146.604C150.194 146.243 152.669 145.015 154.555 143.045C153.45 154.743 152.017 166.515 150.278 178.108C149.877 177.33 149.395 176.602 148.828 175.928C149.045 171.317 146.501 166.832 144.102 162.615C144.791 157.377 145.607 152.019 146.529 146.649C146.791 146.628 147.053 146.64 147.316 146.604ZM142.953 146.608C142.321 150.324 141.752 154.019 141.229 157.688C138.767 153.521 136.466 149.497 134.926 145.17C138.199 145.838 140.704 146.38 142.953 146.608ZM128.809 94.6019C128.69 95.0638 128.631 95.5333 128.546 96C127.128 95.7282 121.126 96.3743 103.786 95.2614C103.73 94.9529 103.707 94.6414 103.637 94.3347C102.905 91.1241 101.357 88.5118 99.1492 86.6667C110.651 86.3639 122.273 86.4252 133.755 86.8671C131.422 88.5977 129.669 91.2456 128.809 94.6019ZM114.615 35.7077C115.771 35.1336 117.252 35.3836 118.537 35.7029C121.461 36.428 121.379 37.4462 120.607 40.1655C119.46 44.2156 120.027 45.3287 121.464 47.5717C119.307 47.1559 117.134 45.9191 113.665 45.9552C115.615 41.8081 113.494 40.157 113.151 38.4871C112.931 37.382 113.745 36.1358 114.615 35.7077ZM102.589 49.6587C110.599 52.8022 110.225 47.8608 118.297 50.6222C122.651 52.1109 124.093 51.5616 126.735 50.4064C127.724 49.9737 128.655 49.565 129.65 49.364C131.889 48.906 134.434 49.178 136.977 50.0739C130.978 57.1123 128.626 67.4975 128.51 74.7463C128.463 77.6999 129.339 80.9875 131.398 82.9871C121.397 82.6537 111.31 82.5969 101.294 82.8166C104.529 79.9259 104.693 75.7694 104.227 71.2561C103.216 61.5627 100.661 54.3653 96.4626 49.3037C98.7808 48.2318 100.595 48.8748 102.589 49.6587ZM96.2752 132.131C92.3399 157.543 80.2915 154.841 80.2202 176.97C76.9285 178.557 71.0562 181.612 68.3416 179.029C69.6667 156.479 73.1512 134.828 76.1013 118.277C80.6991 115.967 88.0911 125.284 96.2752 132.131ZM58.984 173.436C60.1634 159.608 63.2911 129.82 66.5307 117.296C66.7318 116.515 66.9016 115.838 69.3861 116.13C70.5421 116.267 71.6654 116.578 72.7444 116.963C69.7283 133.829 66.1226 156.092 64.7918 179.325C62.7432 179.298 60.768 178.86 59.3634 178.072C58.8091 177.761 58.7332 176.285 58.984 173.436Z" fill="#E9D090"/>
<path d="M95.613 161.957C92.6889 164.482 91.197 168.842 91.9048 172.805C92.0893 173.84 93.0201 174.508 93.9711 174.308C94.9273 174.108 95.5541 173.109 95.3702 172.078C94.9041 169.465 95.8868 166.59 97.8161 164.924C98.5785 164.266 98.7024 163.069 98.0929 162.25C97.4835 161.429 96.3731 161.302 95.613 161.957Z" fill="#E9D090"/>
<path d="M175.921 168.825C176.86 168.541 177.409 167.491 177.149 166.479C176.64 164.507 177.006 162.243 178.103 160.57C178.666 159.71 178.477 158.524 177.684 157.919C176.887 157.312 175.786 157.519 175.223 158.376C173.502 161.001 172.951 164.415 173.749 167.507C174.008 168.515 174.98 169.107 175.921 168.825Z" fill="#E9D090"/>
<path d="M113.889 58.9455C115.861 59.526 118.034 59.6124 120.162 59.0971C121.112 58.867 121.711 57.8496 121.5 56.8238C121.288 55.7992 120.343 55.1525 119.394 55.3863C117.891 55.749 116.308 55.713 114.825 55.2747C113.88 55.0033 112.911 55.596 112.657 56.6094C112.397 57.6227 112.951 58.6692 113.889 58.9455Z" fill="#E9D090"/>
<path d="M195.749 136.827L201.636 133.846C202.52 133.4 202.9 132.266 202.488 131.316C202.075 130.369 201.033 129.957 200.142 130.403L194.255 133.384C193.371 133.83 192.991 134.963 193.403 135.915C193.817 136.866 194.87 137.272 195.749 136.827Z" fill="#E9D090"/>
<path d="M188.264 132.066C188.944 132.075 189.6 131.657 189.896 130.944L192.22 125.395C192.621 124.437 192.227 123.311 191.341 122.881C190.46 122.453 189.409 122.875 189.005 123.834L186.682 129.385C186.158 130.639 186.999 132.05 188.264 132.066Z" fill="#E9D090"/>
<path d="M180.07 128.594C180.282 129.428 180.98 129.977 181.745 129.987C182.921 130.003 183.784 128.797 183.471 127.576L182.233 122.73C181.975 121.718 180.993 121.121 180.065 121.405C179.124 121.686 178.572 122.734 178.832 123.747L180.07 128.594Z" fill="#E9D090"/>
</g>
<defs>
<clipPath id="clip0_142_16053">
<rect width="368" height="175" rx="14" fill="white"/>
</clipPath>
</defs>
</svg>
