<svg width="368" height="175" viewBox="0 0 368 175" fill="none" xmlns="http://www.w3.org/2000/svg">
<g clip-path="url(#clip0_142_16149)">
<rect width="368" height="175" rx="14" fill="#F9E7E5"/>
<g clip-path="url(#clip1_142_16149)">
<path d="M75.9658 99.244C67.4918 139.974 105.342 166.078 136.052 149.588C137.29 148.775 138.842 147.684 138.638 146.187C138.416 144.986 137.289 144.026 136.124 143.656C142.055 138.98 147.524 132.197 151.329 123.529C154.544 124.323 157.742 125.413 160.661 126.189L160.606 127.076C154.148 173.571 193.051 197.069 222.541 181.097C223.779 180.284 225.331 179.193 225.127 177.696C224.924 176.199 223.519 174.925 220.821 175.35C228.286 169.879 234.733 161.673 239.499 151.878C242.696 152.967 246.207 153.78 249.423 154.574C250.273 155.22 251.142 155.571 252.029 155.627C261.194 156.198 267.86 130.196 257.493 129.847L246.146 126.172C248.083 104.625 240.558 87.2372 230.153 77.9811C210.783 60.1525 179.647 69.1949 165.665 103.052C162.449 102.258 159.529 101.482 156.314 100.688C157.807 81.4879 151.133 64.747 139.415 57.4869C125.738 43.5747 95.8945 46.1677 80.305 82.002C76.4429 82.0582 73.0247 84.5166 71.621 87.991C70.4208 92.9621 73.6373 98.5053 75.9658 99.244ZM77.2821 120.994C78.7245 126.426 80.5179 130.99 83.2351 135.018C79.9818 130.067 78.17 125.798 77.2821 120.994ZM132.696 93.8739C128.483 94.7987 124.714 98.1257 122.959 102.469C122.941 102.764 120.262 107.643 125.419 115.385C126.251 116.327 127.138 116.383 129.171 117.103C119.804 124.533 109.453 114.39 111.816 100.29C114.621 83.8432 130.938 79.2202 135.339 94.3354C133.879 93.9476 133.306 93.6151 132.696 93.8739ZM128.579 112.317C127.248 109.86 125.972 106.515 127.025 103.909C128.078 101.303 130.295 99.067 133.011 98.3458C144.062 102.003 154.578 104.735 164.816 107.154C162.304 114.121 161.769 117.947 161.215 122.068C157.722 120.96 128.283 112.299 128.579 112.317ZM219.928 142.051C220.834 146.559 224.179 150.033 227.949 151.455C221.446 160.548 212.3 164.431 206.939 155.192C200.229 143.792 204.678 120.026 215.782 108.549C225.925 98.1983 235.369 103.833 236.831 118.468C225.429 115.68 217.579 132.109 219.928 142.051ZM224.917 142.955C223.087 138.983 223.973 134.289 225.691 130.537C226.744 127.931 228.406 125.067 230.864 123.736C230.79 124.918 231.326 125.842 232.195 126.193L252.542 133.1C249.013 137.333 246.797 144.318 247.334 149.991C228.096 144.341 227.042 142.197 224.917 142.955ZM257.829 143.522C256.315 148.77 253.488 151.265 252.601 151.21C252.028 150.877 251.066 147.256 252.58 142.007C254.058 137.35 256.293 134.818 257.217 134.282L257.809 134.319C258.936 135.28 259.325 138.569 257.829 143.522ZM242.395 124.454L241.231 124.085C242.131 100.098 226.034 91.6751 212.695 105.685C194.922 124.168 194.819 163.935 214.037 165.132C221.133 165.575 228.598 160.103 233.955 150.345C234.546 150.382 235.119 150.714 235.415 150.733C228.617 164.557 218.215 174.297 206.999 178.051C195.302 179.993 175.859 163.347 176.962 136.109C177.551 121.898 181.614 109.091 189.483 97.1151C193.769 90.2585 201.493 85.3969 205.502 82.9754C211.064 79.4632 222.373 78.9805 228.139 81.7143C238.267 90.6563 243.777 107.028 242.395 124.454ZM218.75 75.193C213.114 75.1387 207.09 76.5443 203.099 78.6702C198.775 81.369 190.72 86.8035 185.805 94.2146C163.84 127.574 171.276 165.436 193.602 178.7C193.306 178.682 193.01 178.663 192.715 178.645C170.132 174.27 157.153 139.624 169.916 106.285C178.393 84.5514 198.459 67.3987 218.75 75.193ZM152.821 99.58C149.033 98.4536 144.653 97.2902 140.291 95.8312C137.886 82.0277 126.04 76.8373 116.709 83.6765C101.799 94.3234 105.057 123.021 121.91 124.071C126.345 124.347 130.632 122.24 134.124 118.599L147.245 122.385C134.518 150.383 106.597 155.47 95.1716 129.232C81.3984 97.8015 104.378 52.9294 130.786 57.8397C144.83 61.0893 154.129 78.5874 152.821 99.58ZM120.326 54.2198C105.561 57.7523 92.0748 74.1275 87.7733 95.5273C84.3211 112.825 87.7807 133.521 100.46 144.402C82.8289 136.774 71.8467 108.189 88.2688 78.0459C95.0112 65.1091 105.764 54.4999 120.326 54.2198ZM79.4005 86.9916C77.9968 90.4659 77.9047 91.9443 77.166 94.2728C76.3526 93.0349 76.3333 88.5814 79.4005 86.9916Z" fill="#EDBFBA"/>
<path d="M200.912 47.0712C199.711 47.2931 199.028 48.7347 199.25 49.9358L202.171 60.2097C202.412 61.1151 203.262 61.7617 204.149 61.817C205.627 61.9091 206.902 60.5044 206.403 58.9892L203.481 48.7153C203.259 47.5142 202.132 46.5535 200.912 47.0712Z" fill="#EDBFBA"/>
<path d="M215.75 42.3558C214.568 42.2821 213.33 43.0955 213.256 44.2782L211.226 57.8054C211.152 58.988 211.965 60.226 213.148 60.2997C214.627 60.3918 215.569 59.56 215.642 58.3774L217.673 44.8501C218.042 43.6859 217.21 42.7436 215.75 42.3558Z" fill="#EDBFBA"/>
<path d="M228.688 53.8475L223.552 60.0576C222.277 61.4622 223.331 63.6056 225.105 63.7162C225.696 63.753 226.601 63.5126 226.934 62.9397L232.07 56.7296C232.717 55.8795 232.809 54.4011 231.663 53.7361C230.831 52.7938 229.334 52.9974 228.688 53.8475Z" fill="#EDBFBA"/>
</g>
</g>
<defs>
<clipPath id="clip0_142_16149">
<rect width="368" height="175" rx="14" fill="white"/>
</clipPath>
<clipPath id="clip1_142_16149">
<rect width="201.447" height="201.447" fill="white" transform="translate(73.5264 5) rotate(3.56512)"/>
</clipPath>
</defs>
</svg>
