<svg width="368" height="175" viewBox="0 0 368 175" fill="none" xmlns="http://www.w3.org/2000/svg">
<g clip-path="url(#clip0_142_16280)">
<rect width="368" height="175" rx="14" fill="#D0FFFC"/>
<path d="M261.006 93.3558H254.547V77.4778C254.547 71.019 249.703 65.9058 243.783 65.9058L186.191 65.3675C184.308 65.3675 182.693 64.5602 181.347 62.9455C181.078 62.6764 182.424 63.7528 165.469 50.0278C163.585 47.8749 160.625 46.5293 157.665 46.5293C157.396 46.7984 112.991 46.5293 113.53 46.5293C111.108 46.5293 108.685 47.3367 107.071 48.6822C103.303 49.2205 99.8046 55.1411 98.7281 58.3705C96.8443 63.4837 96.8443 63.4837 96.8443 68.8661C96.8443 105.466 96.5752 142.066 96.5752 178.666C96.5752 184.048 97.9208 187.009 104.918 187.009C156.588 186.47 202.069 187.547 252.125 186.201C254.547 186.201 256.969 185.932 258.584 184.587C260.199 183.241 261.006 180.012 259.391 178.397C258.853 177.859 258.315 177.859 257.777 177.59C259.391 175.706 260.737 173.284 261.275 170.593C265.581 148.256 268.541 124.035 270.694 105.466C271.233 99.0072 266.927 93.3558 261.006 93.3558ZM113.53 50.5661C164.931 50.8352 156.588 50.8352 157.934 50.8352C160.894 50.8352 162.509 52.9881 163.047 53.5264L178.656 66.1749C180.54 68.3278 183.5 69.6734 186.46 69.6734L244.321 69.9425C248.088 69.9425 251.049 73.4411 251.049 77.4778V93.3558H241.899C241.899 88.7808 241.36 84.4749 240.822 80.9764C240.553 80.169 240.015 79.3617 238.938 79.3617C228.712 78.2852 217.678 79.3616 206.375 78.5543C192.65 77.7469 181.616 79.6308 168.16 78.8234C152.013 78.0161 140.172 79.6308 124.025 80.9764C123.218 80.9764 122.41 81.7837 122.141 82.5911C118.105 107.619 111.915 132.378 105.725 156.329L107.071 58.1014C106.802 53.7955 109.762 50.5661 113.53 50.5661ZM237.324 93.3558L142.863 93.0866C138.827 93.0866 135.328 95.7778 133.983 99.8146C127.793 115.962 117.297 138.029 109.224 157.406C115.144 133.723 121.603 109.234 125.64 84.744C140.71 83.3984 152.013 82.0528 167.622 82.8602C181.347 83.6675 192.381 81.7837 205.837 82.5911C216.333 83.1293 227.366 82.3219 236.516 83.1293C237.055 86.0896 237.324 89.5881 237.324 93.3558ZM266.658 104.659C264.505 123.228 261.275 147.179 257.238 169.516C256.431 173.553 253.471 176.782 249.703 177.32C241.091 177.59 246.743 177.32 105.994 177.59C114.068 154.176 129.677 123.497 137.75 101.16C138.558 98.7381 140.71 97.1234 142.863 97.1234L261.006 97.3925C264.235 97.3925 266.927 100.622 266.658 104.659Z" fill="#A4E3E0"/>
<path d="M191.305 107.888C174.62 107.888 160.895 121.613 160.895 138.298C160.895 154.984 174.62 168.709 191.305 168.709C207.99 168.709 221.715 154.984 221.715 138.298C221.715 121.613 207.99 107.888 191.305 107.888ZM191.305 164.672C176.772 164.672 164.931 152.831 164.931 138.298C164.931 123.766 176.772 111.925 191.305 111.925C205.837 111.925 217.678 123.766 217.678 138.298C217.678 152.831 205.837 164.672 191.305 164.672Z" fill="#A4E3E0"/>
<path d="M195.879 140.721C196.687 139.375 197.225 137.491 196.687 136.146C196.149 134.531 194.803 133.454 193.457 132.916V123.766C193.457 122.69 192.65 121.613 191.304 121.613C189.959 121.613 189.152 122.421 189.152 123.766V133.185C186.999 134.262 185.922 137.222 186.729 139.644C187.537 141.797 189.69 143.143 191.843 143.143H192.381L204.222 154.984C205.029 155.791 206.375 155.791 207.182 154.984C207.99 154.177 207.99 152.831 207.182 152.024L195.879 140.721Z" fill="#A4E3E0"/>
</g>
<defs>
<clipPath id="clip0_142_16280">
<rect width="368" height="175" rx="14" fill="white"/>
</clipPath>
</defs>
</svg>
