<svg width="368" height="175" viewBox="0 0 368 175" fill="none" xmlns="http://www.w3.org/2000/svg">
<g clip-path="url(#clip0_161_2661)">
<rect width="368" height="175" rx="14" fill="#F6D2FF"/>
<path d="M192.418 50.506C187.194 44.4118 180.229 39.8413 172.176 37.6648C169.347 22.2118 168.476 30.4824 172.394 9.80596C173.265 4.80008 175.006 -8.47639 171.741 -8.91168C171.306 -9.12933 170.87 -9.34698 170.435 -9.12933C169.565 -8.91168 168.912 -8.04109 169.129 -7.17051C170.435 -1.07639 168.912 5.45302 167.606 11.7648C166.518 17.206 165.212 25.0413 166.518 31.353C166.082 31.353 157.812 31.353 157.159 31.353C155.635 25.2589 156.723 18.9471 157.812 13.2883C159.118 7.1942 159.553 -0.205801 158.9 -7.17051C158.9 -8.04109 158.029 -8.69404 157.159 -8.69404C156.288 -8.69404 155.635 -7.82345 155.635 -6.95286C156.288 -0.205801 155.853 6.7589 154.765 12.6354C153.459 19.1648 152.37 26.1295 154.112 32.4413C153.241 33.3118 152.588 35.053 152.588 37.6648C141.488 40.4942 132.129 48.3295 126.47 59.4295C123.206 57.4707 119.941 55.7295 116.241 54.6413C114.718 40.9295 111.235 42.8883 113.412 21.3413C114.935 6.7589 110.8 -4.34109 110.365 -6.73521V-6.95286C110.147 -7.82345 109.494 -8.47639 108.406 -8.25874C107.535 -8.04109 106.882 -7.38815 107.1 -6.29992V-6.08227C109.494 8.50008 109.276 11.1118 108.188 20.906C106.665 37.6648 107.753 38.1001 109.494 47.6766C109.276 47.6766 99.6999 47.4589 98.1763 47.8942C95.1293 40.0589 95.1293 30.0471 95.5646 20.4707C95.9999 11.5471 95.3469 2.18832 94.0411 -8.04109C93.8234 -8.91168 93.1705 -9.56462 92.2999 -9.34698C91.4293 -9.12933 90.7763 -8.47639 90.994 -7.6058C92.2999 2.40596 92.9528 11.5471 92.5175 20.253C92.0822 30.4824 92.2999 41.1471 95.5646 49.6354C94.9116 50.7236 94.694 52.0295 94.694 54.206C81.4175 57.4707 70.3175 67.9177 64.8763 82.0648C54.4293 109.706 79.2411 141.482 109.712 137.565C124.076 135.824 137.353 126.465 144.1 113.624C172.829 123.635 200.035 108.835 203.3 82.9354C204.606 71.1824 201.123 59.8648 192.418 50.506ZM156.288 34.8354C156.941 34.4001 166.953 34.6177 167.17 34.6177C167.388 34.6177 167.606 34.8354 167.606 35.2707C167.823 37.6648 167.823 44.8471 167.823 46.5883C167.606 48.7648 167.606 49.2001 164.994 49.4177C161.512 49.6354 157.159 49.853 156.941 49.853C156.506 49.6354 156.506 47.6766 156.506 46.5883C155.418 33.0942 156.288 35.9236 156.288 34.8354ZM171.306 48.9824C181.1 52.9001 187.847 62.9118 188.065 73.5766C188.282 87.7236 178.053 98.3883 165.212 99.6942C149.976 101.435 140.618 88.1589 141.053 73.7942C141.27 64.653 146.276 55.5118 153.894 50.506C155.635 54.6413 169.565 53.3354 171.306 48.9824ZM116.676 58.1236C119.723 59.2118 122.553 60.5177 125.382 62.2589C124.512 64.0001 124.076 65.5236 123.423 67.7001C121.029 65.7413 118.635 64.2177 116.023 63.1295C116.459 61.3883 116.676 59.8648 116.676 58.1236ZM98.6116 50.9413C99.2646 50.2883 109.929 50.7236 110.147 50.7236C110.582 50.7236 110.8 50.9413 110.8 51.3766C111.018 55.7295 111.018 62.6942 111.018 63.3471C110.8 65.5236 110.8 66.1766 107.97 66.3942C101.441 66.6118 99.6999 66.8295 99.4822 66.8295C99.0469 66.6118 98.8293 67.2648 98.6116 50.9413ZM96.2175 67.9177C97.7411 71.4001 101.006 69.8766 107.97 69.8766C110.8 69.6589 112.759 69.2236 114.5 66.1766C117.329 67.2648 119.941 69.006 122.553 71.4001C120.812 82.5001 124.512 93.8177 130.823 100.565C127.559 111.012 118.635 118.412 107.97 119.5C92.7352 121.241 83.3763 107.312 83.8116 92.0766C83.8116 82.5001 88.8175 73.3589 96.2175 67.9177ZM67.7058 106.877C60.5234 85.7648 75.5411 62.6942 94.9116 57.4707C94.9116 58.9942 95.1293 60.7354 95.3469 62.2589C82.9411 66.3942 74.2352 78.3648 74.2352 91.8589C74.2352 111.447 90.1234 124.941 108.188 122.982C119.288 121.677 129.082 114.494 133.218 103.394C135.176 105.353 137.788 107.312 139.529 108.4C126.47 141.265 79.0234 139.524 67.7058 106.877ZM127.123 87.7236C120.376 67.9177 134.523 46.153 152.806 40.9295C152.806 42.453 153.023 43.9766 153.241 45.2824C137.57 50.506 130.388 68.1354 134.306 80.7589C138.006 96.2118 152.37 104.482 165.647 102.959C182.623 101 193.506 85.3295 190.894 69.6589C189.37 58.9942 181.753 49.6354 171.959 45.7177C172.176 44.1942 172.394 42.6707 172.394 41.1471C186.976 45.5001 198.076 59.2118 198.076 75.5354C197.641 117.324 139.747 124.071 127.123 87.7236Z" fill="#DEABEB"/>
</g>
<defs>
<clipPath id="clip0_161_2661">
<rect width="368" height="175" rx="14" fill="white"/>
</clipPath>
</defs>
</svg>
