<svg width="368" height="175" viewBox="0 0 368 175" fill="none" xmlns="http://www.w3.org/2000/svg">
<g clip-path="url(#clip0_142_16174)">
<rect width="368" height="175" rx="14" fill="#C9FAD9"/>
<path d="M206.662 89.57C206.662 89.2172 205.251 86.0417 205.251 86.3946L201.017 76.5153L193.607 59.5795C195.724 57.4625 197.841 55.6983 199.958 53.5814C201.017 55.3455 202.075 56.7568 203.487 58.521C205.604 60.9908 207.721 63.8134 210.543 65.9304C209.485 65.9304 208.426 66.6361 207.721 67.6946C207.015 68.7531 206.309 69.8115 205.956 70.87C205.251 72.987 204.898 75.4568 205.251 77.9266C205.604 80.3965 207.368 83.5719 209.838 84.9832C211.602 86.0417 213.719 86.3946 215.836 86.3946C215.836 88.8644 216.541 90.6285 218.305 92.3927C219.364 93.0983 220.422 93.804 222.187 94.1568C223.245 92.7455 223.598 91.3342 223.598 90.2757C223.598 88.1587 222.892 86.0417 221.128 84.2776C222.892 82.8663 223.951 81.1021 224.656 78.9851C225.362 76.1625 224.656 72.6342 223.245 70.87C221.834 68.7531 220.07 67.3417 217.953 66.2832C216.894 65.9304 215.836 65.2248 214.424 65.2248C213.366 65.2248 211.954 65.2248 211.249 66.2832C213.366 66.2832 214.777 67.6946 215.836 69.1059C216.894 70.5172 217.953 72.2814 218.658 73.6927C219.717 76.1625 218.305 78.2795 216.541 79.338C214.777 80.0436 212.307 79.338 211.249 76.8681C210.543 75.4568 210.19 73.6927 210.19 71.9285C210.19 70.1644 210.19 68.4002 211.602 66.6361C211.249 63.1078 210.19 59.9323 209.132 56.7568C208.073 54.287 207.368 51.8172 205.956 49.7002C207.721 46.5248 210.19 44.0549 212.66 41.5851C213.013 41.2323 213.366 40.5266 213.366 39.4681C213.366 38.0568 211.954 36.6455 210.543 36.6455C198.547 36.9983 186.198 37.3512 174.202 38.0568C161.853 38.7625 149.856 39.1153 137.507 40.1738C149.856 40.8795 161.853 41.2323 174.202 41.5851C184.081 41.938 193.96 41.938 203.839 42.2908C202.781 43.3493 201.722 44.4078 200.311 45.4663H199.958C190.785 47.9361 181.964 50.7587 173.143 53.9342C166.439 56.404 160.088 58.8738 153.385 61.6965C151.268 62.7549 149.151 63.8134 147.034 64.8719C148.798 64.5191 150.562 64.5191 152.679 64.1663C152.326 64.8719 151.621 65.2248 151.268 65.5776C150.209 66.2832 148.798 66.6361 147.387 66.9889C145.975 67.3417 144.917 67.3417 143.858 66.9889C142.8 66.6361 142.447 66.2832 142.447 66.2832C142.447 66.2832 142.447 65.9304 142.8 64.8719C143.505 63.8134 144.564 62.7549 145.622 62.0493C146.681 61.3436 148.092 60.638 149.504 60.638C150.915 60.2851 152.326 60.2851 153.738 61.6965C153.738 59.5795 151.973 57.8153 149.856 57.1097C147.739 56.404 145.622 56.404 143.505 56.7568C141.388 57.4625 139.271 58.521 137.86 60.2851C137.154 61.3436 136.449 62.4021 136.096 63.8134C135.743 65.2248 135.743 66.9889 136.449 68.4002C137.154 69.8115 138.213 71.2229 139.624 71.9285C141.036 72.6342 142.094 72.987 143.505 72.987C145.975 73.3398 148.092 72.6342 150.209 71.5757C151.973 70.5172 153.738 69.1059 154.796 66.9889C155.502 65.9304 155.502 64.5191 155.502 63.1078C162.558 62.0493 169.262 60.2851 175.966 58.8738C180.553 57.8153 184.787 56.404 189.373 55.3455C187.256 57.4625 184.787 59.5795 182.67 61.3436L156.56 85.3361L121.277 85.6889C111.398 86.0417 101.519 86.0417 91.6394 86.3946C98.696 79.338 105.753 72.6342 112.809 65.5776C121.277 56.7568 130.098 48.2889 138.566 39.1153C127.981 47.9361 118.807 55.6983 109.281 63.8134C100.107 71.9285 90.9337 80.0436 81.7602 88.1587C81.0545 88.5115 80.7017 89.2172 80.7017 90.2757C80.7017 91.687 81.7602 93.0983 83.5243 93.0983C92.3451 93.4512 100.813 93.4512 109.634 93.4512C111.751 99.4493 113.868 105.095 115.985 110.74L118.454 117.444C112.456 127.676 109.987 140.025 110.692 152.374C111.751 165.429 116.69 177.778 124.805 188.01C132.921 198.242 144.564 206.004 157.266 209.885C162.911 211.649 168.556 212.355 174.554 212.708H176.671C183.375 212.708 190.079 211.649 196.43 209.532C209.132 205.298 220.422 197.536 228.538 186.951C236.653 176.366 241.592 163.664 241.945 150.61C242.651 137.555 239.122 124.147 232.419 113.21C226.068 102.625 217.247 94.5097 206.662 89.57ZM199.958 88.5115L201.017 90.9814L201.37 92.0398V92.7455C201.722 93.804 201.37 94.8625 200.664 95.921C199.605 98.3908 197.136 100.861 194.666 102.625C192.196 104.742 189.373 106.859 186.551 108.27C180.905 111.798 174.554 114.621 168.204 117.444C161.853 119.913 155.149 122.03 148.798 123.442C145.622 124.147 142.094 124.5 138.919 124.853C135.743 125.206 132.568 124.853 130.098 123.795C128.687 123.442 127.981 122.736 127.275 122.03C127.275 121.678 126.922 121.678 126.922 121.325C126.922 120.972 125.158 117.444 125.511 117.796L124.805 116.385C126.217 117.091 127.628 117.444 129.039 117.796C133.273 118.502 137.507 118.502 141.741 118.149C145.975 117.796 150.209 116.738 154.09 116.032C157.971 114.974 162.205 113.562 166.087 112.151C173.849 108.976 181.258 105.095 187.962 100.155C191.138 97.6851 194.313 94.5097 197.136 91.3342C197.841 89.9229 198.9 88.8644 199.253 87.4531L199.958 88.5115ZM178.788 144.259C187.256 144.259 196.077 143.906 204.545 143.553C204.545 147.787 204.192 152.021 203.487 156.255C202.781 162.606 201.37 168.604 199.958 174.602C192.902 174.249 186.198 174.249 179.141 173.896C179.141 170.015 179.494 165.781 179.494 161.9C179.141 156.255 179.141 150.257 178.788 144.259ZM178.436 137.202C178.083 131.91 177.73 126.97 177.024 121.678C181.611 119.561 186.198 117.091 190.432 114.621C193.607 112.857 196.43 110.74 199.253 107.917C199.605 107.564 199.958 107.212 200.311 106.859C203.134 117.091 204.545 127.323 204.545 137.555C195.724 137.555 187.256 137.555 178.436 137.202ZM172.438 174.249C165.381 174.249 157.971 174.602 150.915 174.955C147.739 165.076 146.328 154.491 145.622 143.906C154.443 144.259 163.617 144.612 172.438 144.612C172.085 150.61 172.085 156.608 172.085 162.606C172.438 166.134 172.438 170.015 172.438 174.249ZM145.622 137.908C145.622 135.791 145.622 133.674 145.622 131.204C147.034 130.851 148.798 130.851 150.209 130.498C157.266 129.087 164.322 126.97 171.026 124.147C172.085 123.795 173.496 123.089 174.554 122.736C173.849 127.676 173.496 132.262 173.143 137.202C163.97 137.555 154.796 137.555 145.622 137.908ZM114.573 93.0983H156.913C157.619 93.0983 158.677 92.7455 159.383 92.0398C180.905 71.5757 182.67 70.1644 190.432 62.7549L196.077 78.2795L198.194 83.9248C197.136 85.6889 195.724 87.1002 194.313 88.5115C191.49 90.9814 188.315 93.0983 184.787 95.2153C178.083 99.0965 170.673 102.625 163.264 105.447C155.854 108.27 148.445 110.74 140.683 112.857C136.802 113.562 132.921 114.621 129.039 114.621C126.922 114.621 125.158 114.621 123.041 113.915L121.277 108.623C119.16 103.33 117.043 98.3908 114.573 93.0983ZM118.807 117.444L119.866 120.266L120.924 122.736L121.277 123.795C121.63 124.147 121.983 124.853 121.983 125.559C122.688 126.617 123.394 127.676 124.453 128.381C125.511 129.087 126.57 129.793 127.275 130.146C131.509 131.91 135.39 131.91 138.919 131.91C141.036 131.91 142.8 131.557 144.917 131.557C144.564 133.674 144.211 135.791 143.858 137.908C133.626 138.261 123.394 139.319 113.515 140.378C113.868 132.968 115.632 124.853 118.807 117.444ZM114.221 151.668C113.515 148.14 113.515 144.612 113.515 141.083C123.394 142.495 133.626 143.2 143.505 143.553C142.8 154.138 143.153 164.723 145.622 174.955C138.213 175.308 131.156 176.013 123.747 177.072C118.807 169.663 115.632 160.842 114.221 151.668ZM129.039 184.129C127.275 182.364 125.864 180.247 124.453 178.13C131.862 179.189 139.624 179.895 147.034 180.247C147.034 180.6 147.034 180.953 147.387 181.306C149.504 188.715 152.679 196.478 158.324 202.829C147.034 199.653 136.802 192.949 129.039 184.129ZM174.907 205.298C171.379 205.298 168.204 203.181 165.381 200.712C159.736 195.772 155.854 188.363 153.032 180.6C159.736 180.953 166.439 180.953 172.79 181.306C172.79 182.717 172.79 184.129 173.143 185.54C173.496 192.244 174.202 198.595 174.907 205.298ZM184.787 201.77C182.317 203.887 179.494 204.946 176.319 205.298C177.377 198.595 178.083 192.244 178.436 185.54C178.436 184.129 178.436 182.717 178.788 181.306C185.139 181.306 191.49 180.953 198.194 180.953C198.194 181.306 198.194 181.306 197.841 181.659C195.019 189.421 190.785 197.183 184.787 201.77ZM194.313 202.476C198.547 197.183 202.075 190.479 204.192 183.776C204.545 182.717 204.898 181.659 205.251 180.6C212.307 180.247 219.364 179.542 226.421 178.483C218.658 189.774 207.368 198.242 194.313 202.476ZM236.653 149.551C235.947 159.43 232.419 168.604 227.126 177.072C220.422 176.013 213.366 175.661 206.662 174.955C208.073 168.957 209.132 162.959 209.485 156.608C209.838 152.021 209.838 147.787 209.485 143.2C218.658 142.847 227.832 142.142 237.005 140.73C237.005 143.906 236.653 146.729 236.653 149.551ZM208.779 138.261C207.721 127.323 205.251 116.738 200.664 106.859C202.781 104.742 205.251 102.272 206.662 98.7436C207.015 97.6851 207.368 96.6266 207.721 95.5681C207.721 94.5097 208.073 93.0983 207.721 91.687C207.721 90.9814 207.368 90.2757 207.368 89.9229C216.894 95.921 225.009 104.389 229.949 114.268C234.183 122.383 236.653 131.204 237.005 140.378C227.479 139.319 217.953 138.613 208.779 138.261Z" fill="#9DDDB2"/>
</g>
<defs>
<clipPath id="clip0_142_16174">
<rect width="368" height="175" rx="14" fill="white"/>
</clipPath>
</defs>
</svg>
