<svg width="368" height="175" viewBox="0 0 368 175" fill="none" xmlns="http://www.w3.org/2000/svg">
<g clip-path="url(#clip0_142_16193)">
<rect width="368" height="175" rx="14" fill="#FFEDAD"/>
<path d="M137.658 44.3126C134.793 33.6959 124.662 25.7576 113.596 25.5235C104.074 25.322 94.9473 30.7932 90.6501 39.1986C88.9248 35.5576 85.6392 32.656 81.286 31.534C58.9945 26.428 46.6297 63.2415 41.4025 79.0938C34.2432 101.084 31.9884 110.305 35.6105 133.811C38.1202 149.055 44.2218 164.889 59.6574 165.473C59.9039 165.994 60.1176 168.058 61.6128 170.407C61.8592 170.927 62.3685 171.195 62.6149 171.715C63.1133 172.498 63.6171 173.024 64.1209 173.549C66.0926 177.71 71.6727 181.691 74.7282 183.3C84.4041 188.397 95.7166 189.151 106.525 189.379C131.231 189.902 155.75 187.074 179.557 181.398C182.919 180.697 186.817 178.977 186.883 175.889C186.937 173.316 184.15 171.197 181.592 170.37C178.269 169.27 174.66 169.451 171.298 170.153C171.567 169.643 171.578 169.129 171.331 168.608C173.439 166.336 174.791 163.275 175.119 159.935C176.169 146.826 176.436 134.216 175.476 118.748C175.284 115.654 174.062 112.539 172.052 110.179C172.583 109.418 172.337 108.898 172.38 106.839C172.477 90.1057 172.497 76.9753 165.12 60.5989C160.191 50.196 149.223 45.3296 137.658 44.3126ZM98.4769 58.6741C91.6007 67.2825 89.8116 78.8306 88.5644 89.1028C86.6937 104.511 85.9067 117.368 85.3881 129.715C85.3881 129.715 85.1307 129.71 85.1253 129.967C77.2686 136.238 70.1336 132.74 65.4345 123.629C65.1826 123.366 65.188 123.109 64.9307 123.103C66.6298 91.4709 65.0871 103.539 68.6327 81.987C69.8254 74.2883 72.0965 64.2952 78.168 57.2146C83.714 50.6378 92.5564 46.448 103.14 45.1271C108.819 44.4748 114.732 44.8574 120.64 45.4973C111.836 47.8857 103.497 52.6012 98.4769 58.6741ZM77.7006 176.669C75.669 175.338 73.632 174.265 71.595 173.193C69.0432 172.109 66.2451 170.505 65.0019 168.419C62.5046 164.761 63.5884 162.21 64.7891 129.794C70.2984 137.12 77.7126 139.594 85.5365 134.868C85.2371 149.022 85.7151 162.935 86.3688 180.714C83.0396 179.871 83.0396 179.871 77.7006 176.669ZM113.515 29.3837C122.265 29.5688 130.123 35.3993 133.299 43.448C118.663 41.5935 106.354 39.2734 92.6109 43.8745C95.6268 35.1845 104.507 29.1932 113.515 29.3837ZM39.4817 133.378C36.1005 110.65 38.0925 101.681 45.241 80.2048C49.6472 66.6524 61.7328 30.8629 80.4377 35.1206C84.7963 35.9852 88.0548 40.1736 87.9731 44.0338C87.9622 44.5485 88.2087 45.0687 88.4552 45.5888C86.1172 46.5692 83.8011 46.5202 81.4468 48.2727C67.6112 57.2487 62.6359 73.3638 60.2287 89.7907C56.0486 116.994 57.5808 154.101 58.9616 161.854C46.1213 160.295 41.5365 145.78 39.4817 133.378ZM171.516 159.859C171.166 164.228 168.259 167.771 164.109 169.228C149.337 173.807 135.9 176.098 123.799 176.099C117.36 176.22 112.064 170.959 112.2 164.525C112.09 157.571 112.55 160.156 111.819 133.879C112.071 134.142 112.328 134.147 112.586 134.153C114.382 134.448 116.183 134.486 117.984 134.524C117.169 136.567 116.31 140.668 117.301 142.491C118.046 143.794 120.351 144.358 121.66 143.356C123.746 142.113 125.103 138.794 122.617 134.622C139.613 134.467 155.409 130.167 171.978 125.883C172.494 137.995 172.265 148.803 171.516 159.859ZM158.944 109.129C165.147 107.973 171.231 112.479 171.61 118.923C171.594 119.696 171.577 120.468 171.813 121.502C171.041 121.486 172.848 121.267 166.639 122.68C148.515 127.446 131.432 131.719 112.678 129.778C112.163 129.767 111.649 129.756 111.38 130.265C111.424 128.206 111.216 125.885 111.259 123.826C111.1 119.188 114.79 115.147 119.433 114.73C132.848 113.469 146.016 111.688 158.944 109.129ZM168.509 107.272C160.372 102.465 158.21 107.311 119.257 110.864C112.55 111.495 107.535 117.31 107.651 124.007C108.141 149.506 108.166 124.018 108.346 164.186C108.423 172.684 115.225 179.78 123.98 179.708C126.811 179.767 129.647 179.57 132.741 179.378C118.779 182.172 100.737 183.078 90.2182 181.31C88.9162 145.495 88.3278 124.628 92.4138 89.6992C93.3655 81.2229 94.8483 71.9856 99.3866 64.3576C98.2864 67.6814 99.9681 73.3812 100.932 76.4912C105.78 90.7543 118.977 99.7874 134.976 98.0661L134.96 98.8382C134.916 100.897 136.68 102.737 139.001 102.528L139.258 102.534C141.065 102.314 142.385 100.798 142.423 98.9961L142.466 96.9373C154.375 93.8422 163.031 86.3013 165.882 73.2309C168.731 84.6196 168.508 95.171 168.509 107.272ZM161.479 62.3242C161.972 63.3645 162.465 64.4047 162.958 65.445L162.952 65.7024C161.892 79.3256 156.335 86.4171 147.487 90.8643C145.674 91.3409 143.862 91.8175 142.307 92.2995C142.088 90.4926 140.571 89.1732 139.027 89.1405C136.968 89.097 135.391 90.6084 135.348 92.6672L135.321 93.954C132.227 94.146 128.887 93.8179 126.067 93.2433C111.217 89.3246 109.622 79.5071 107.803 68.1402C107.584 66.3333 106.449 59.1002 105.715 57.2825C120.662 44.4679 153.121 43.6098 161.479 62.3242Z" fill="#EDD580"/>
<path d="M150.355 40.4621L154.729 28.4538C155.008 27.4298 154.515 26.3895 153.497 25.8531C152.473 25.5739 151.432 26.0669 150.896 27.0854L146.522 39.0937C146.243 40.1177 146.736 41.158 147.755 41.6944C148.779 41.9736 149.819 41.4807 150.355 40.4621Z" fill="#EDD580"/>
<path d="M164.355 35.8661L159.346 41.4244C158.558 42.1801 158.788 43.4723 159.544 44.2607C160.299 45.049 161.591 44.8189 162.38 44.0632L167.132 38.4995C167.92 37.7438 167.69 36.4516 166.934 35.6632C166.173 35.1322 164.887 35.1049 164.355 35.8661Z" fill="#EDD580"/>
<path d="M167.572 54.2144C169.116 54.2471 174.811 52.8227 176.108 52.3353C178.441 51.6122 180.51 51.1411 183.867 50.6971C184.902 50.4616 185.695 49.4485 185.46 48.4137C185.224 47.3788 184.211 46.585 183.176 46.8206C176.458 47.9658 173.852 49.4554 167.139 50.3433C164.817 50.5516 165.256 54.1654 167.572 54.2144Z" fill="#EDD580"/>
</g>
<defs>
<clipPath id="clip0_142_16193">
<rect width="368" height="175" rx="14" fill="white"/>
</clipPath>
</defs>
</svg>
