<svg width="368" height="175" viewBox="0 0 368 175" fill="none" xmlns="http://www.w3.org/2000/svg">
<g clip-path="url(#clip0_142_16225)">
<rect width="368" height="175" rx="14" fill="#C9DFFF"/>
<path d="M180.783 122.753C179.446 123.434 175.871 124.753 175.329 124.942C170.969 126.469 170.662 126.799 172.405 133.196C173.574 137.46 173.132 138.882 171.698 141.45C170.491 143.62 170.626 143.902 171.516 145.361C171.934 146.043 172.407 146.816 172.618 147.779C173.72 152.434 170.638 156.775 167.036 158.65C159.911 162.426 149.361 158.907 144.938 161.474C142.683 162.809 141.805 165.636 141.732 167.855C141.649 169.917 142.042 170.846 142.158 172.431C142.971 174.586 142.4 176.948 141.081 178.737C139.132 181.382 135.649 182.644 132.698 183.803C120.802 188.475 107.658 188.963 95.0451 188.963C72.6411 188.963 54.479 186.329 54.479 183.08C54.479 180.024 63.5764 178.976 68.2222 178.577C72.1689 172.564 77.1348 167.022 78.5761 162.611C81.5403 153.538 77.8594 147.403 72.6455 139.705C67.5326 132.158 61.552 122.863 58.4862 114.238C48.4078 85.8873 58.8997 55.347 86.8375 43.3302C106.245 33.3777 126.044 33.7591 144.385 44.1142C157.055 51.2691 166.254 64.2273 167.975 84.59C169.16 98.593 171.194 99.7039 175.958 106.449C179.321 111.241 189.003 118.67 180.783 122.753ZM172.907 108.593C167.911 101.49 165.53 99.9138 164.26 84.9043C162.651 65.8175 154.28 53.9826 142.55 47.3603C123.624 36.6725 102.736 37.7545 85.8369 48.1613C72.8255 56.1705 63.8988 69.9828 61.3383 86.0571C58.6601 102.881 70.8223 120.834 78.9305 135.754C79.1677 135.993 79.3204 136.279 79.3852 136.6C81.595 140.719 83.2171 144.063 84.4365 147.045C88.4533 156.922 87.5067 165.191 81.2644 174.707C80.2692 176.2 81.0761 178.228 82.8152 178.648C91.4583 180.727 97.4406 182.222 106.697 182.056C118.257 181.867 127.393 180.406 135.446 177.458C137.574 176.678 138.844 174.394 138.397 172.144C137.021 165.241 139.489 160.368 143.055 158.257C148.917 154.854 159.123 158.625 165.301 155.35C167.58 154.164 169.648 151.408 168.985 148.607C168.571 146.757 165.375 145.155 168.441 139.637C169.419 137.879 169.704 137.447 168.81 134.179C167.416 129.106 166.898 125.788 169.922 123.447C171.357 122.324 172.973 121.788 177.215 120.236C178.057 119.926 180.056 119.2 180.193 118.39C180.516 116.46 176.816 114.156 172.907 108.593Z" fill="#A0C0EF"/>
<path d="M154.971 95.5343C154.016 96.2346 152.798 96.529 152.554 96.7927C152.348 97.2345 152.248 97.8776 152.144 98.5584C151.986 99.5936 151.806 100.767 151.18 101.909C149.388 105.196 146.777 107.122 143.198 108.223C141.683 115.629 133.485 119.395 126.873 115.732C120.976 119.767 112.792 119.836 107.993 114.774C106.319 116.505 103.714 117.356 101.438 117.328C99.9209 117.296 98.4671 117.685 97.1905 118.448C96.3726 118.937 96.0158 119.398 95.6008 120.507C93.958 124.863 89.8346 124.766 85.4533 123.197C81.0648 121.626 79.5208 116.545 81.9025 112.954C80.2861 111.342 79.2667 108.612 79.0386 105.079C73.2494 100.398 73.8312 93.3469 77.5071 89.9679C75.0858 84.208 77.2589 76.9102 82.468 73.4846C83.3271 60.7651 95.9579 51.0885 109.357 56.7065C112.612 54.0986 116.898 52.8062 121.051 53.2273C125.378 53.6642 128.247 56.3897 130.456 59.2949C137.543 56.8344 143.594 60.2647 143.884 66.5226C149.706 65.8551 154.633 70.5301 153.878 76.437C153.903 77.1291 153.78 77.885 153.448 78.459C157.346 80.9939 159.821 87.3512 158.073 91.5952C157.43 93.1558 156.357 94.5174 154.971 95.5343ZM151.356 81.5401C148.057 83.4424 144.781 83.3405 145.03 83.3032C144.008 83.3032 143.176 82.4792 143.166 81.455C143.156 80.426 143.984 79.585 145.013 79.5753C146.474 79.5627 147.929 79.1712 149.223 78.484C149.265 78.3989 149.27 78.3011 149.326 78.2222C150.683 76.3 150.525 73.6387 148.952 71.8925C147.399 70.1669 144.489 69.6802 142.45 70.8161C140.881 71.6979 139.089 70.0369 139.853 68.4C140.715 66.5554 139.71 63.7558 137.86 62.8517C135.895 61.8906 133.244 62.0399 130.579 63.2595C129.766 63.6345 128.795 63.3736 128.276 62.6345C126.046 59.4502 123.9 57.2623 120.677 56.9358C117.645 56.6343 114.544 57.5112 112.103 59.306C112.22 60.456 111.613 61.6699 112.236 64.7606C112.467 65.9077 111.595 66.9935 110.406 66.9935C109.537 66.9935 108.76 66.3831 108.581 65.4984C108.238 63.799 108.209 62.0786 108.363 60.3642C96.743 55.133 86.2537 64.0722 86.1547 74.5877C86.1474 75.2721 85.7664 75.8971 85.162 76.2175C80.7535 78.5509 78.8548 84.9314 81.3865 89.3716C82.9584 90.0583 84.9591 90.4833 86.3707 89.9521C87.2275 89.633 87.8439 88.974 88.2541 87.9401C88.6376 86.9814 89.7225 86.5215 90.6763 86.8977C91.6325 87.2787 92.0985 88.3624 91.7199 89.3187C89.7737 94.2019 84.7522 94.8963 79.944 92.8197C78.2426 94.49 78.0017 97.4801 79.1454 99.5535C80.5143 102.03 83.6233 104.368 86.6838 103.854C88.3791 103.581 88.5112 103.658 91.0719 102.051C91.9481 101.502 93.0961 101.768 93.6421 102.639C94.1882 103.511 93.9237 104.661 93.0524 105.209C89.7873 107.258 89.3955 107.146 87.3124 107.529C85.8659 107.778 84.4436 107.651 83.1063 107.256C83.5432 109.15 84.3611 110.69 85.5577 110.854C87.5836 111.134 87.9246 114.175 85.247 114.706C83.8505 116.319 84.5164 118.901 86.7105 119.687C87.492 119.966 88.4361 120.204 89.6011 120.412C93.1131 121.037 91.1199 117.737 95.2755 115.249C97.7573 113.763 99.7512 113.669 101.591 113.601C103.258 113.601 105.775 112.555 105.814 111.105C105.869 109.195 108.434 108.6 109.326 110.285C112.451 116.189 120.511 116.149 125.623 112.019C126.286 111.484 127.225 111.468 127.907 111.973C132.277 115.217 138.796 112.748 139.602 107.038C137.435 105.076 137.781 102.887 139.45 102.436C140.445 102.167 141.467 102.758 141.736 103.75C141.824 104.08 142.096 104.368 142.414 104.496C143.423 104.098 144.739 103.533 144.994 103.396C146.19 102.557 147.197 101.426 147.908 100.123C148.537 98.9745 148.368 96.9292 149.185 95.1982C150.051 93.3729 152.147 92.9859 152.767 92.5272C153.59 91.9241 154.25 91.0892 154.627 90.1754C155.601 87.8048 153.969 83.1742 151.356 81.5401Z" fill="#A0C0EF"/>
<path d="M129.516 87.5896C130.334 86.9538 131.499 87.0969 132.135 87.9076C134.433 90.8484 127.079 93.8364 123.818 89.4548C123.204 88.6284 123.374 87.461 124.199 86.8457C125.029 86.2293 126.194 86.404 126.808 87.2268C127.08 87.5945 127.55 87.8457 128.094 87.9185C128.65 87.9937 129.157 87.8712 129.516 87.5896Z" fill="#A0C0EF"/>
<path d="M107.246 77.7635C106.912 77.7767 106.517 78.2213 106.549 78.5571C106.649 79.6423 105.798 80.5922 104.69 80.5922C103.739 80.5922 102.926 79.8665 102.836 78.8993C102.424 74.3614 108.919 72.285 109.044 75.8352C109.081 76.863 108.275 77.7271 107.246 77.7635Z" fill="#A0C0EF"/>
<path d="M111.792 102.27C110.784 102.053 110.168 101.079 110.384 100.073C109.445 100.46 108.345 99.9956 107.959 99.0393C107.576 98.0843 108.039 96.9982 108.996 96.6147C111.599 95.5619 114.579 98.068 113.986 100.823C113.766 101.838 112.785 102.485 111.792 102.27Z" fill="#A0C0EF"/>
<path d="M131.106 71.8295C128.444 71.8295 126.183 69.4622 127.91 67.814C128.65 67.1029 129.837 67.1271 130.543 67.8747C130.737 68.0761 131.116 68.1538 131.369 68.0531C134.074 66.9939 135.514 71.8295 131.106 71.8295Z" fill="#A0C0EF"/>
<path d="M95.0037 72.695C93.5422 73.1758 92.1304 71.7452 92.6786 70.2728C93.4325 68.2498 96.3446 68.2455 97.1759 70.1393C97.8051 71.567 96.4999 73.0828 95.0037 72.695Z" fill="#A0C0EF"/>
<path d="M74.6409 42.4308C73.8788 42.4308 73.1653 41.9611 72.8886 41.2027L69.0126 30.5395C68.6607 29.5723 69.1606 28.5032 70.129 28.1512C71.0901 27.7969 72.1629 28.2993 72.5172 29.2677L76.3932 39.9309C76.8356 41.1467 75.9305 42.4308 74.6409 42.4308Z" fill="#A0C0EF"/>
<path d="M61.4745 49.0601L51.1353 40.0121C50.361 39.3338 50.2834 38.1566 50.9605 37.3812C51.6401 36.6045 52.8196 36.5305 53.5914 37.2065L63.9307 46.2545C64.7049 46.9328 64.7825 48.11 64.1054 48.8842C63.4321 49.6549 62.255 49.7418 61.4745 49.0601Z" fill="#A0C0EF"/>
<path d="M56.2245 61.8182C55.6158 61.8182 56.1723 61.8814 46.1936 58.1425C45.23 57.7772 44.747 56.702 45.1111 55.7385C45.4751 54.7737 46.5625 54.2907 47.5139 54.6572L56.8847 58.2116C58.8177 58.9444 58.2843 61.8182 56.2245 61.8182Z" fill="#A0C0EF"/>
</g>
<defs>
<clipPath id="clip0_142_16225">
<rect width="368" height="175" rx="14" fill="white"/>
</clipPath>
</defs>
</svg>
