<svg width="368" height="175" viewBox="0 0 368 175" fill="none" xmlns="http://www.w3.org/2000/svg">
<g clip-path="url(#clip0_142_15974)">
<rect width="368" height="175" rx="14" fill="#E7EFCA"/>
<path d="M283.55 127.772C283.751 126.348 282.86 125.298 281.714 125.029C280.657 124.778 270.709 120.491 268.301 119.693C271.591 115.317 274.845 111.028 277.971 107.022C279.158 105.504 278.218 103.246 276.272 103.044C276.207 103.038 261.881 101.166 257.714 100.708C260.907 96.7831 264.101 92.8768 267.278 89.0042C268.81 87.1387 267.013 84.3887 264.672 85.0659C207.027 102.371 208.45 100.666 207.554 102.79C191.978 86.5401 178.001 70.3117 162.755 54.4705C161.905 53.5855 160.535 53.4612 159.537 54.1714C136.536 70.6012 112.751 87.59 93.0463 108.73C92.2721 109.562 92.1638 110.812 92.7847 111.765C93.3233 112.591 93.8956 113.404 94.4538 114.222L83.0978 126.804C82.0625 127.954 82.3262 129.748 83.629 130.558C86.4553 132.312 89.3722 134.063 92.3152 135.81C86.6949 141.008 82.0976 147.418 79.0405 154.437C78.5865 155.481 78.8318 156.826 80.1432 157.545C78.4773 159.793 75.7418 163.708 74.6497 165.039C73.6711 166.229 73.9061 168.165 75.7374 168.844L75.7693 169.091C76.1606 172.136 78.5543 174.523 81.6021 174.89C100.987 177.224 121.25 179.712 140.558 180.974C138.819 189.055 156.678 195.699 161.041 186.76C185.546 193.448 209.238 200.94 233.656 207.714C236.118 208.397 238.744 207.43 240.175 205.313C253.587 185.464 267.669 165.482 280.88 145.673C283.014 142.472 284.591 138.938 285.459 135.191C286.212 131.946 286.204 130.097 283.55 127.772ZM277.62 128.788C265.178 151.845 250.967 174.17 235.346 195.191C233.437 197.772 233.042 197.84 230.286 197.137C206.456 191.116 183.26 184.482 159.658 178.244C158.981 178.058 158.261 178.185 157.671 178.564C155.533 179.97 152.556 180.14 150.265 179.004C145.145 176.452 148.794 171.704 144.787 171.337C123.859 169.373 102.456 167.127 81.1009 164.649C81.1736 164.548 85.3626 158.758 85.4217 158.649C95.0154 160.368 104.584 161.896 113.868 163.335C149.604 168.89 144.582 168.598 146.949 168.813C148.454 170.109 149.939 171.386 151.399 172.638C151.442 173.934 152.463 174.995 153.776 175.031C153.948 175.036 154.134 175.048 154.307 175.053C155.413 175.56 155.896 175.148 156.225 175.133C178.872 175.906 202.747 178.384 224.319 177.664C225.564 177.622 226.519 176.65 226.648 175.445C238.876 159.751 252.577 140.718 265.317 123.656C265.575 123.892 277.295 128.658 277.62 128.788ZM271.414 107.417C270.91 108.07 222.785 172.351 222.497 172.741C205.46 173.18 186.181 171.692 168.64 170.734C183.283 165.904 198.329 162.247 213.535 159.86C214.251 159.749 214.882 159.328 215.26 158.711C226.714 139.981 240.229 122.35 253.98 105.307C258.113 105.642 267.276 106.858 271.414 107.417ZM258.381 92.06C241.999 112.078 225.429 132.797 211.641 155.158C193.851 158.021 176.283 162.593 159.317 168.733C170.491 155.329 208.769 106.856 208.987 106.019C210.562 106.579 207.923 106.632 258.381 92.06ZM160.67 59.4383C175 74.4242 188.849 90.3908 203.332 105.545C186.674 126.371 170.873 147.349 153.546 167.971C135.088 152.13 112.82 132.725 97.9961 110.683C116.607 91.075 138.933 74.9674 160.67 59.4383ZM97.3773 118.36C105.383 129.301 114.964 139.522 124.806 148.924C110.584 140.637 100 134.782 88.7557 127.913L97.3773 118.36ZM96.1607 138.945C96.3534 138.772 96.4801 138.559 96.6052 138.347C109.991 146.175 123.978 153.887 137.216 162.122C115.815 158.475 101.981 156.674 84.9134 153.576C87.7317 148.076 91.579 143.063 96.1607 138.945Z" fill="#C8D695"/>
<path d="M148.052 82.3056C153.876 84.2872 158.649 89.1615 160.512 95.0225C161.473 98.0333 161.907 101.861 164.417 104.83C166.636 107.454 169.842 108.613 172.188 110.02C173.811 110.993 175.62 112.707 175.371 114.339C174.881 117.564 179.763 118.325 180.258 115.083C180.782 111.644 178.713 108.165 174.726 105.779C168.81 102.237 167.796 103.245 165.945 96.1153C165.719 95.2434 165.492 94.3715 165.224 93.5228C162.894 86.1949 156.925 80.1061 149.646 77.6284C148.35 77.1812 146.948 77.8781 146.51 79.1719C146.07 80.4626 146.76 81.8681 148.052 82.3056Z" fill="#C8D695"/>
<path d="M140.482 118.571C142.828 123.972 142.094 126.508 151.281 130.299C154.325 131.544 156.163 126.966 153.162 125.727C147.519 123.408 147.07 122.346 145.858 118.844C142.437 108.994 134.85 105.66 125.081 102.137C122 101.035 120.33 105.674 123.403 106.783C126.885 108.04 130.486 109.341 133.624 111.266C135.917 112.677 138.968 115.086 140.482 118.571Z" fill="#C8D695"/>
<path d="M208.622 116.091C208.146 117.37 208.795 118.795 210.073 119.271C216.512 121.677 222.005 122.864 226.998 118.479C227.444 118.093 227.866 117.726 228.201 117.589C229.799 116.926 233.086 118.857 236.284 117.007C239.117 115.376 236.644 111.085 233.815 112.726C233.343 112.997 232.373 112.867 231.342 112.728C220.862 111.289 226.606 120.171 211.802 114.644C210.527 114.164 209.1 114.816 208.622 116.091Z" fill="#C8D695"/>
<path d="M205.996 135.42C201.983 136.655 202.457 138.431 194.299 137.079C191.038 136.578 190.289 141.424 193.487 141.957C196.86 142.517 200.153 142.966 203.386 141.869C205.294 141.23 208.285 139.287 209.173 140.183C210.129 141.156 211.693 141.162 212.668 140.207C215.095 137.816 211.286 133.772 205.996 135.42Z" fill="#C8D695"/>
</g>
<defs>
<clipPath id="clip0_142_15974">
<rect width="368" height="175" rx="14" fill="white"/>
</clipPath>
</defs>
</svg>
