<svg width="368" height="175" viewBox="0 0 368 175" fill="none" xmlns="http://www.w3.org/2000/svg">
<g clip-path="url(#clip0_152_2541)">
<rect width="368" height="175" rx="14" fill="#FFC7BF"/>
<g clip-path="url(#clip1_152_2541)">
<path d="M136.504 -34.3921C135.95 -34.2741 135.396 -34.156 135.178 -33.8201C123.728 -34.5644 112.274 -31.2546 101.152 -23.6728C84.9628 -12.695 73.8314 2.99498 69.8775 19.7608C65.2473 40.1449 65.9559 61.1282 71.8672 80.713C72.7934 83.7003 73.7786 86.9644 76.1485 89.9334C78.1234 92.4076 80.811 94.1509 83.5395 94.7274C82.1686 100.52 82.9723 107.008 84.1527 112.546C83.8758 112.605 83.9348 112.882 83.6579 112.941C80.5482 117.368 80.1851 123.814 82.5323 129.394C84.6026 135.032 88.6523 139.091 91.971 142.437C94.5588 145.07 98.0954 148.08 102.563 150.023C108.987 152.996 115.138 151.975 116.623 150.79C129.294 155.906 142.564 155.683 151.316 145.132C163.674 147.42 177.384 142.471 184.752 132.216C184.97 131.88 185.247 131.821 185.465 131.485C189.619 130.599 193.419 128.052 196.152 124.575C200.31 119.635 203.165 112.657 204.182 105.203C205.199 97.7485 204.159 90.1533 201.753 84.2969C199.978 80.0431 196.995 76.9152 194.03 75.231C193.971 74.954 193.912 74.6771 193.794 74.1232C193.463 69.8512 191.352 65.3795 187.756 62.0927C189.399 60.2949 188.569 60.472 189.104 58.9102C193.671 59.9634 198.656 58.901 201.548 54.8105C204.004 51.3919 204.503 46.9428 204.785 42.8297C205.352 30.5493 203.922 18.4052 199.445 6.91036C190.156 -16.2973 167.397 -37.5025 136.504 -34.3921ZM171.904 126.269C170.065 125.792 168.168 125.038 166.27 124.285C163.424 123.154 161.231 121.016 160.305 118.029C157.544 110.511 157.158 101.908 159.183 95.1072C161.148 88.0295 165.289 81.6464 170.673 77.0247C172.87 75.1088 176.134 74.1236 178.922 74.977C179.535 75.1359 180.148 75.2948 180.701 75.1768C165.802 82.6951 160.568 112.472 171.904 126.269ZM113.862 107.951C110.348 102.331 107.387 96.5928 110.161 91.9485C112.063 88.6479 116.753 86.2008 124.108 88.1074C123.79 89.3332 123.413 90.2821 123.372 91.4488C120.535 99.8703 119.872 108.986 122.197 117.176C118.719 114.443 116.014 111.256 113.862 107.951ZM98.8067 76.7083C94.8658 63.6518 94.1119 47.8893 96.3225 33.8112C100.431 20.4866 107.84 9.0641 117.895 0.551644C123.992 -4.80098 131.492 -9.00506 139.7 -9.88596C151.013 -11.1392 162.359 -5.45096 170.299 3.27905C176.06 15.3686 178.894 28.6613 178.78 41.7134C178.617 46.3804 178.513 51.3243 181.613 55.0061C181.178 55.678 180.96 56.014 180.801 56.6268C172.42 52.6229 159.409 51.3429 151.891 54.1033C142.217 57.6128 133.605 66.107 128.093 78.2831C119.477 73.1714 108.522 72.0321 98.8067 76.7083ZM141.755 135.59C134.028 130.578 128.303 121.376 126.673 111.011C125.279 101.754 126.596 91.6303 131.076 81.411C133.932 74.4332 140.886 62.2389 152.994 57.9213C157.584 56.364 164.525 56.3321 170.595 57.644C153.702 61.2444 134.708 87.5851 141.164 115.16C142.581 121.807 145.205 127.327 149.037 131.721C152.138 135.403 156.505 138.236 161.19 139.843C154.762 140.924 147.525 139.571 141.755 135.59ZM180.034 70.6868C175.803 69.8516 171.431 71.0729 167.967 73.8378C161.87 79.1904 157.294 86.2454 155.229 94.2129C153.104 101.904 153.667 111.337 156.328 119.745C157.767 123.781 160.75 126.909 164.822 128.357C168.894 129.805 172.967 131.253 177.257 132.366C177.593 132.583 178.147 132.465 178.424 132.406C171.355 139.993 159.274 137.646 152.342 129.57C148.846 125.393 146.617 120.367 145.318 114.275C138.136 81.9329 168.725 50.2259 184.687 65.3524C186.544 67.2727 187.906 69.588 188.437 72.0804C184.542 71.4631 182.762 71.2633 180.034 70.6868ZM198.524 35.1892C198.756 40.3511 198.769 45.8488 196.155 49.8803C194.411 52.5679 190.493 54.561 187.152 53.8256C186.421 53.1129 186.144 53.1719 185.867 53.2309C182.508 51.0519 182.889 46.0489 182.834 41.7179C183.352 21.0524 175.919 -0.234924 162.885 -16.5646C158.876 -21.7899 153.978 -27.115 148.049 -30.4835C172.963 -27.6875 195.763 -7.64893 198.524 35.1892ZM75.9621 79.5508C70.1689 60.5197 69.5783 40.0903 74.1087 20.5961C77.6858 4.77907 88.1635 -9.90308 103.581 -20.4268C115.198 -28.4036 127.324 -31.2776 139.682 -28.9897C147.195 -27.696 153.438 -21.4992 158.572 -15.0663C145.96 -19.9056 125.667 -17.3174 111.117 -4.08343C101.18 4.98289 94.1839 18.3439 91.9325 33.5888C89.5039 48.0029 90.7709 64.814 94.8888 78.7014C90.3172 81.7024 86.8716 85.9109 84.9876 90.6551C79.6487 90.0559 77.6375 84.6944 75.9621 79.5508ZM94.822 139.513C88.6976 133.87 83.3858 126.606 85.7282 118.58C87.9165 124.772 90.8766 130.51 95.1034 135.4C98.9351 139.794 104.211 144.171 110.14 147.539C104.029 147.394 99.2076 143.789 94.822 139.513ZM98.2903 132.694C91.2397 124.064 87.0991 112.787 87.0126 101.514C87.0531 82.6876 109.235 71.3011 126.032 82.1965C125.874 82.8094 125.715 83.4223 125.22 83.8172C121.878 83.0818 118.873 82.5644 116.104 83.1546C111.95 84.04 108.368 86.251 106.466 89.5515C102.008 97.1604 107.615 105.809 110.221 109.885C113.794 115.783 118.792 120.218 124.721 123.587C129.003 132.807 137.261 140.311 146.908 143.466C133.802 156.682 109.904 146.431 98.2903 132.694ZM197.499 86.0721C199.728 91.0977 200.591 97.8621 199.733 104.704C198.875 111.545 196.397 117.574 192.733 122.119C180.97 136.206 167.795 121.933 170.528 100.795C173.32 79.9347 189.845 69.1749 197.499 86.0721Z" fill="#F4A297"/>
<path d="M216.339 73.9502L211.35 79.0668C210.637 79.7977 210.655 81.2414 211.386 81.9541C212.117 82.6669 213.561 82.6487 214.274 81.9178L219.263 76.8012C219.976 76.0703 219.957 74.6266 219.226 73.9139C218.496 73.2011 217.329 73.1603 216.339 73.9502Z" fill="#F4A297"/>
<path d="M228.071 88.2418L214.842 87.2978C213.675 87.2569 212.685 88.0469 212.644 89.2136C212.604 90.3804 213.394 91.37 214.56 91.4109L227.454 92.137C228.62 92.1778 229.61 91.3879 229.651 90.2211C230.028 89.2723 229.238 88.2826 228.071 88.2418Z" fill="#F4A297"/>
<path d="M224.548 108.39C225.202 107.382 224.63 106.056 223.622 105.402L215.459 101.062C214.451 100.409 213.125 100.981 212.472 101.989C211.818 102.996 212.39 104.322 213.398 104.976L221.561 109.316C222.787 109.633 223.894 109.397 224.548 108.39Z" fill="#F4A297"/>
</g>
</g>
<defs>
<clipPath id="clip0_152_2541">
<rect width="368" height="175" rx="14" fill="white"/>
</clipPath>
<clipPath id="clip1_152_2541">
<rect width="192.543" height="192.543" fill="white" transform="translate(30.4844 -17.0068) rotate(-12.0317)"/>
</clipPath>
</defs>
</svg>
