<svg width="368" height="175" viewBox="0 0 368 175" fill="none" xmlns="http://www.w3.org/2000/svg">
<g clip-path="url(#clip0_161_2628)">
<rect width="368" height="175" rx="14" fill="#E0CFFD"/>
<g clip-path="url(#clip1_161_2628)">
<path d="M109.122 59.7067C115.676 60.511 121.449 64.42 124.67 70.0507C123.36 70.7722 123.299 72.3327 124.18 73.2204C125.023 74.071 125.86 76.044 126.813 77.3536C129.371 80.8425 130.005 83.0888 131.861 83.0679L143.646 82.938C145.947 82.8077 147.186 81.1799 148.326 80.2354C148.851 79.7914 148.493 80.1208 153.518 71.0353C153.886 70.3634 153.844 69.54 153.407 68.9084C152.28 67.2789 150.56 64.3698 149.489 62.7066C148.6 61.3239 147.363 59.7608 146.546 58.4904C145.84 57.3918 144.343 57.2696 143.451 58.1071C143.438 58.1193 143.424 58.1297 143.411 58.1418C138.731 52.7511 142.728 43.4523 142.126 36.061C141.261 25.4253 131.443 16.1858 119.771 15.0257C111.714 14.2353 103.643 17.0318 98.2124 22.5268C92.484 28.3298 90.0841 36.9669 92.0992 44.5335C94.2175 52.4966 101.217 58.7356 109.122 59.7067ZM149.368 70.164L145.418 77.3855C144.634 78.0863 143.912 78.8567 143.509 78.883L132.794 79C132.517 78.6265 132.239 78.1842 131.961 77.7556C135.761 76.9959 139.458 75.5061 142.689 73.3661C143.624 72.7494 143.879 71.4884 143.261 70.5547C142.641 69.6185 141.382 69.3642 140.449 69.9834C134.822 73.7061 130.681 73.5781 129.687 74.2892C129.504 73.9849 129.31 73.6904 129.137 73.3764C129.01 73.148 128.879 72.912 128.742 72.6709C134.438 70.1173 139.809 66.6954 144.486 62.6379C146.695 65.6425 147.043 66.5744 149.368 70.164ZM101.1 25.3806C105.68 20.7463 112.515 18.3928 119.371 19.066C128.988 20.0196 137.381 27.7915 138.08 36.3907C138.65 43.3836 134.191 53.6573 140.32 60.7715C136.662 63.7389 132.617 66.2846 128.338 68.3261C124.521 61.4454 117.55 56.6518 109.616 55.6769C103.315 54.9034 97.7238 49.8922 96.0208 43.491C94.3686 37.2854 96.3628 30.1773 101.1 25.3806Z" fill="#C2ADE6"/>
<path d="M87.3164 43.6846C87.248 42.5689 86.2906 41.7179 85.176 41.781L85.1667 41.7815C83.0045 41.9701 80.7503 41.8437 78.5837 41.5587C77.4746 41.4151 76.4549 42.198 76.3101 43.3099C76.1653 44.4218 76.948 45.4388 78.06 45.5849C80.4224 45.8932 82.8358 45.9788 85.2379 45.8428C86.6476 45.763 87.3812 44.741 87.3164 43.6846Z" fill="#C2ADE6"/>
<path d="M85.9996 28.845C87.8291 28.7414 88.6023 26.4322 87.178 25.2555L82.1885 21.1339C81.3238 20.4232 80.047 20.5432 79.3308 21.4042C78.6175 22.2677 78.7389 23.5471 79.6024 24.2605C84.4504 28.048 84.6362 28.9222 85.9996 28.845Z" fill="#C2ADE6"/>
<path d="M100.051 14.6201C100.712 15.5243 101.978 15.7237 102.887 15.063C103.792 14.4004 103.989 13.1321 103.328 12.2273C102.335 10.8675 101.55 9.37418 100.995 7.78851C100.622 6.72973 99.4652 6.18122 98.4085 6.54277C97.3508 6.91231 96.7932 8.07137 97.164 9.12759C97.8508 11.0922 98.8236 12.9401 100.051 14.6201Z" fill="#C2ADE6"/>
<path d="M122.465 11.3767C123.391 11.3243 124.192 10.6385 124.351 9.68464L125.237 4.37547C125.422 3.26928 124.675 2.2238 123.57 2.0402C122.469 1.85111 121.42 2.60394 121.235 3.7075L120.348 9.01667C120.133 10.3018 121.166 11.4503 122.465 11.3767Z" fill="#C2ADE6"/>
<path d="M141.831 18.5643C143.385 18.4763 143.657 17.0192 145.109 15.2291C145.752 14.3114 145.528 13.0457 144.609 12.4043C143.695 11.76 142.425 11.9827 141.783 12.9031L140.054 15.3751C139.07 16.7806 140.173 18.6581 141.831 18.5643Z" fill="#C2ADE6"/>
<path d="M45.3591 57.8147C111.358 145.723 107.091 140.537 109.378 142.103C113.593 144.986 122.292 142.605 126.884 140.37C131.974 137.892 135.082 136.079 137.218 134.679C204.333 101.69 203.065 102.901 206.383 99.2256C208.774 96.5732 211.45 91.9885 207.089 82.8211C206.792 82.1959 207.15 83.1903 205.517 80.3628C214.016 76.0785 212.603 69.2163 206.155 62.333L139.199 -9.12443C131.558 -17.2828 126.315 -19.707 110.983 -13.3523C99.1459 -8.44537 38.7256 18.5682 38.4544 19.0192C34.6493 22.6042 32.2889 28.8159 33.8427 33.6508C33.5694 42.4158 40.399 51.208 45.3591 57.8147ZM201.829 82.1421C203.581 84.9679 203.758 88.3008 200.729 89.7159C174.107 102.198 144.505 115.381 117.267 130.406C116.481 127.101 117.623 123.557 119.102 120.521C146.488 107.346 173.794 95.5621 201.829 82.1421ZM196.297 101.117C125.91 135.567 126.526 136.177 121.942 136.152C120.958 135.723 120.166 135.539 119.012 134.076C145.887 119.232 174.966 106.267 202.451 93.3926C203.608 92.8505 204.576 92.1032 205.332 91.2016C205.531 96.4001 200.982 98.813 196.297 101.117ZM112.537 -9.6026C126.449 -15.3692 129.906 -13.1066 136.237 -6.34974L203.193 65.1103C206.829 68.9883 208.093 72.0293 206.952 74.145C206.252 75.4419 204.651 76.2921 202.788 77.1916C174.793 90.6846 146.453 102.887 118.131 116.479C93.636 84.9351 67.6786 52.1731 43.381 20.8909C66.6853 11.1149 89.1571 0.0905149 112.537 -9.6026ZM40.0591 23.2237C65.4436 55.904 90.3068 87.2674 115.199 119.326C113.522 122.948 112.482 126.773 113.192 130.655C57.8166 61.8708 50.6198 53.6698 38.1541 33.4489C36.5734 30.8816 37.5589 26.3916 40.0591 23.2237Z" fill="#C2ADE6"/>
</g>
</g>
<defs>
<clipPath id="clip0_161_2628">
<rect width="368" height="175" rx="14" fill="white"/>
</clipPath>
<clipPath id="clip1_161_2628">
<rect width="184" height="184" fill="white" transform="translate(26 -23.5991) rotate(-3.2404)"/>
</clipPath>
</defs>
</svg>
