<svg width="368" height="175" viewBox="0 0 368 175" fill="none" xmlns="http://www.w3.org/2000/svg">
<g clip-path="url(#clip0_142_15484)">
<rect width="368" height="175" rx="14" fill="#B8DBFF"/>
<g clip-path="url(#clip1_142_15484)">
<path d="M216.22 88.834C216.319 87.3299 216.171 85.7989 215.739 84.3154C206.544 45.3892 196.672 12.0565 185.6 -17.4465C183.455 -24.6405 175.907 -28.4183 169.131 -26.2983C169.129 -26.2975 169.129 -26.2975 169.126 -26.2966C126.633 -14.8017 72.9314 0.377641 34.6435 15.7756C32.3991 16.4779 30.5202 17.7678 29.0177 19.3707C24.948 21.222 22.8575 26.4144 22.3753 30.5951C21.7408 36.0977 23.2927 41.5914 24.8285 46.9129C32.0945 72.0882 40.1634 96.9262 47.4292 122.101C55.889 151.413 59.8654 152.071 88.3732 144.564C124.659 135.01 160.052 122.39 195.379 109.74C198.626 119.323 201.929 128.89 205.306 138.385C205.55 139.072 206.656 139.654 207.32 139.943C208.5 140.937 210.158 140.42 210.704 139.152C212.372 135.275 213.774 132.494 216.963 125.685C222.353 130.832 228.303 136.173 233.735 141.335C235.293 142.815 237.231 143.059 239.311 142.521C239.883 142.556 240.395 142.578 241.341 142.18C245.284 140.532 247.579 137.955 248.778 133.838C249.286 132.149 248.779 130.295 247.482 129.111C241.422 123.601 235.424 118.112 228.908 111.789C234.495 109.128 238.729 107.495 246.409 104.176C248.152 103.423 248.152 100.941 246.406 100.19C236.645 95.99 226.389 92.1871 216.22 88.834ZM191.761 81.605C190.083 81.1656 188.628 82.758 189.143 84.3657L189.311 84.8861L188.56 88.0769C188.314 89.1235 188.361 88.6507 192.463 100.982C179.788 105.106 132.635 121.582 72.8845 138.003C68.2416 139.455 63.2791 136.849 61.7654 132.03C53.03 110.219 44.7383 84.972 36.5821 55.3322L189.766 7.40579C201.784 43.5935 211.785 85.2679 211.913 87.4987C205.832 85.5636 198.19 83.2974 191.761 81.605ZM36.102 19.8602C74.9999 4.22635 129.726 -11.1401 170.34 -22.1326C174.894 -23.5574 179.963 -21.1595 181.489 -16.0654C183.84 -9.79785 186.124 -3.32326 188.369 3.29631L35.4374 51.1436C33.6718 44.6281 31.9116 37.9189 30.1542 30.9744C28.7008 26.3288 31.2964 21.3696 36.102 19.8602ZM224.222 109.244C222.881 109.91 222.61 111.693 223.668 112.733C231.102 120.039 237.794 126.168 244.562 132.322L246.022 130.716L244.616 132.609C243.651 135.928 242.006 137.2 239.383 138.145C239.063 137.841 219.118 118.503 218.73 118.123C217.642 117.154 215.884 117.507 215.292 118.887C213.485 123.09 211.224 127.652 209.053 132.268C208.111 129.357 194.623 87.2188 194.502 86.8392C209.122 90.8759 225.742 96.3254 239.992 102.199C233.992 104.729 229.894 106.421 224.222 109.244Z" fill="#9DC5EE"/>
<path d="M45.2324 39.8942C48.4641 38.1772 48.8583 34.1007 46.0221 31.8028C44.6894 30.7219 42.9867 30.3607 41.4634 30.8373C41.2324 31.0546 40.8958 31.0859 40.6706 31.2836C39.4889 31.549 37.885 33.4627 38.0957 35.9966C38.404 39.6341 41.9645 41.5928 45.2324 39.8942Z" fill="#9DC5EE"/>
<path d="M60.8591 34.7861C64.7402 33.5719 65.7819 28.9059 62.5629 26.3051C60.2633 24.4471 57.7015 25.3605 58.0013 25.3494C57.7048 25.4422 57.4419 25.5954 57.2212 25.7888C56.9305 25.8531 56.6607 25.9938 56.4168 26.1885C52.4065 29.3459 55.5314 36.453 60.8591 34.7861Z" fill="#9DC5EE"/>
<path d="M79.5619 29.2337C82.7966 27.5218 83.1828 23.4422 80.3462 21.1439C78.4088 19.5683 75.9773 19.7684 75.0028 20.6222C74.7219 20.6894 74.4423 20.8272 74.1975 21.0192C69.8229 24.4752 73.9607 32.2036 79.5619 29.2337Z" fill="#9DC5EE"/>
<path d="M105.018 15.2839L105.042 15.2764L161.911 -3.24419C163.05 -3.61533 163.673 -4.84043 163.302 -5.9794C162.931 -7.11838 161.78 -7.65527 160.566 -7.37038L103.698 11.1502C102.559 11.5213 101.936 12.7464 102.307 13.8854C102.676 15.0163 103.885 15.6382 105.018 15.2839Z" fill="#9DC5EE"/>
<path d="M90.5823 53.6819L57.7452 63.9556C52.8327 65.4925 49.9496 70.299 51.3178 74.6722L59.4632 100.707C60.8129 105.021 65.8674 107.344 70.7311 105.887C112.978 93.2253 100.62 96.9593 102.939 96.2336C107.717 94.7388 110.627 90.066 109.437 85.7523L102.042 59.0597C101.484 57.0497 100.117 55.3669 98.1941 54.3197C95.9569 53.1015 93.1815 52.8687 90.5823 53.6819ZM105.253 86.9105C105.833 88.9996 104.098 91.2978 101.571 92.115L69.4839 101.731C66.8854 102.508 64.2482 101.468 63.6046 99.4111L55.4592 73.3765C54.8054 71.287 56.4121 68.9194 59.0409 68.0969L91.878 57.8233C93.3609 57.3593 94.9083 57.4702 96.1219 58.1324C96.7429 58.471 97.5522 59.1088 97.8586 60.2206L105.253 86.9105Z" fill="#9DC5EE"/>
<path d="M171.453 35.9018L123.722 50.8353C122.578 51.193 121.941 52.4107 122.299 53.5538C122.656 54.697 123.874 55.3343 125.017 54.9767L172.748 40.0432C173.891 39.6855 174.529 38.4678 174.171 37.3246C173.813 36.1814 172.596 35.5441 171.453 35.9018Z" fill="#9DC5EE"/>
<path d="M177.936 59.603L120.237 77.6551C119.094 78.0128 118.456 79.2305 118.814 80.3737C119.172 81.5169 120.389 82.1542 121.532 81.7965L179.231 63.7444C180.374 63.3867 181.012 62.169 180.654 61.0258C180.296 59.8826 179.079 59.2453 177.936 59.603Z" fill="#9DC5EE"/>
<path d="M168.614 85.4811L139.76 94.5089C138.616 94.8666 137.979 96.0842 138.337 97.2274C138.694 98.3706 139.912 99.0079 141.055 98.6503L169.91 89.6225C171.053 89.2648 171.691 88.0472 171.333 86.904C170.975 85.7608 169.758 85.1235 168.614 85.4811Z" fill="#9DC5EE"/>
</g>
</g>
<defs>
<clipPath id="clip0_142_15484">
<rect width="368" height="175" rx="14" fill="white"/>
</clipPath>
<clipPath id="clip1_142_15484">
<rect width="211.181" height="211.181" fill="white" transform="translate(4.69824 9.05762) rotate(-17.3732)"/>
</clipPath>
</defs>
</svg>
