<svg width="368" height="175" viewBox="0 0 368 175" fill="none" xmlns="http://www.w3.org/2000/svg">
<g clip-path="url(#clip0_142_16094)">
<rect width="368" height="175" rx="14" fill="#E4E6FD"/>
<g clip-path="url(#clip1_142_16094)">
<path d="M127.466 65.557C143.111 71.666 160.97 63.4621 167.302 47.2448C173.634 31.0275 166.059 12.8931 150.414 6.78416C134.768 0.67522 116.9 8.9029 110.568 25.1202C104.236 41.3375 111.844 59.4574 127.466 65.557ZM149.01 10.3801C162.679 15.7173 169.281 31.6331 163.721 45.8739C158.16 60.1146 142.52 67.3459 128.851 62.0088C115.182 56.6716 108.589 40.7319 114.14 26.5149C119.691 12.298 135.34 5.04288 149.01 10.3801Z" fill="#BFC2E9"/>
<path d="M125.556 48.7288C126.604 49.1379 125.709 48.8985 152.483 42.8855C153.089 42.7381 153.589 42.3019 153.836 41.7397C154.068 41.1443 154.02 40.4943 153.674 39.975L138.989 17.4177C138.59 16.8228 137.904 16.4724 137.187 16.5496C136.471 16.6267 135.848 17.0971 135.588 17.7639L124.467 46.2454C124.077 47.2456 124.58 48.3476 125.556 48.7288Z" fill="#BFC2E9"/>
<path d="M182.597 110.905C182.922 109.934 182.448 108.898 181.495 108.526L181.471 108.517C180.543 108.154 179.478 108.562 179.035 109.486C177.523 112.656 173.565 114.569 170.017 113.815C166.445 113.051 163.531 109.69 163.388 106.121C163.299 104.029 160.366 103.597 159.652 105.568C157.861 110.577 155.67 115.485 153.15 120.182C152.728 117.466 146.273 116.427 144.262 120.664C141.629 126.141 150.291 133.338 156.156 122.674C158.065 119.192 159.801 115.589 161.314 111.926C164.509 117.098 170.775 119.325 176.545 116.775C174.205 123.683 173.528 125.697 173.189 126.497C172.011 124.171 168.183 123.994 166.855 126.412C166.293 127.428 166.28 128.657 166.783 129.759C168.287 133.146 172.756 133.299 175.337 130.273C176.456 128.953 176.98 127.401 177.462 126.025C179.206 120.998 180.925 115.961 182.597 110.905Z" fill="#BFC2E9"/>
<path d="M64.701 65.6955C88.0941 76.9152 112.805 87.3596 137.371 95.7164C128.749 102.477 125.477 115.004 128.317 125.581C133.73 145.808 159.768 158.829 177.098 148.607C194.256 141.283 202.087 120.875 192.944 103.665C195.43 100.602 193.026 104.438 222.712 29.1125C225.036 23.159 222.242 16.4692 216.526 14.2377C201.721 8.155 154.54 -12.7097 102.053 -30.459C99.8142 -31.333 97.4541 -31.4037 95.2467 -30.8111C95.3036 -30.8163 95.346 -30.8546 95.3885 -30.8929C91.5082 -30.5143 88.0632 -28.0172 85.6485 -24.9257C82.3931 -20.7353 83.3268 -22.0723 57.0908 41.5369C55.1917 46.1196 53.2785 51.3006 55.1254 55.9189C56.9328 60.357 60.378 63.6233 64.701 65.6955ZM73.1801 23.1739C78.8955 25.4055 88.0546 29.0091 88.6923 29.2032L82.8809 44.0869C82.328 43.8162 71.2452 39.5163 67.3873 38.01L73.1801 23.1739ZM90.0685 25.6787C89.5155 25.408 78.647 21.1918 74.5749 19.6018L80.3677 4.76568L95.8706 10.8188L90.0685 25.6787ZM67.143 59.0194C63.3328 57.5317 61.5015 53.0842 63.0636 49.0835L66.0019 41.5583C71.9316 43.8735 80.8525 47.3842 81.5141 47.5876C75.1738 63.9664 75.7376 62.1007 75.6399 62.9134C72.7665 61.6268 69.9263 60.3257 67.143 59.0194ZM97.2653 7.24673L81.7624 1.19358L87.5459 -13.6187C103.877 -7.29705 102.235 -7.80096 103.077 -7.637L97.2653 7.24673ZM190.413 130.671C183.9 145.033 166.862 151.417 152.404 144.866C137.946 138.315 131.501 121.363 138.034 106.953C144.566 92.5427 161.633 86.2253 176.043 92.7575C190.477 99.299 196.955 116.237 190.413 130.671ZM193.246 48.8393L208.582 54.8274L202.78 69.6873C202.227 69.4165 191.644 65.3119 187.453 63.6754L193.246 48.8393ZM186.058 67.2475C191.917 69.5349 200.742 73.0083 201.404 73.2118L195.592 88.0955C195.039 87.8247 184.362 83.6829 180.266 82.0836L186.058 67.2475ZM209.977 51.2553L194.641 45.2672L200.424 30.4549C216.565 36.7022 214.947 36.2076 215.788 36.3716L209.977 51.2553ZM177.485 89.204L178.88 85.6319C184.572 87.8542 193.588 91.402 194.226 91.5962C190.677 100.475 191.639 98.5725 190.768 100.099C187.459 95.431 182.994 91.6842 177.485 89.204ZM219.163 27.7271L217.127 32.9423C216.483 32.5536 217.946 33.2347 201.819 26.8828L206.756 14.2376C209.505 15.4208 212.287 16.5894 215.084 17.7911C218.894 19.2789 220.726 23.7263 219.163 27.7271ZM203.221 12.7476L173.895 87.8569C164.508 84.9055 154.49 86.4552 146.561 91.5102C121.657 82.4726 99.4269 73.5459 78.9325 64.3911C79.431 63.8173 77.228 68.9675 112.897 -22.2452C112.944 -22.3643 112.943 -22.502 112.965 -22.6304C139.862 -13.1439 169.596 -1.50662 203.221 12.7476ZM100.753 -26.8497C103.61 -25.8716 106.514 -24.8748 109.466 -23.8595C109.162 -23.2921 106.559 -16.4865 104.425 -11.09C103.781 -11.4787 105.244 -10.7977 88.9499 -17.2146L90.9584 -22.3584C92.5112 -26.3354 96.8715 -28.3653 100.753 -26.8497Z" fill="#BFC2E9"/>
<path d="M221.821 12.6273C222.607 12.9342 223.493 12.7037 224.038 12.0109L229.279 5.19297C229.937 4.35199 229.771 3.16176 228.93 2.50407C228.079 1.87018 226.875 2.00357 226.241 2.85384L220.999 9.67172C220.219 10.6846 220.606 12.1531 221.821 12.6273Z" fill="#BFC2E9"/>
<path d="M229.239 18.1586L237.359 14.3031C238.305 13.849 238.727 12.6966 238.273 11.7509C237.819 10.8052 236.667 10.3827 235.721 10.8367L227.601 14.6922C226.656 15.1463 226.233 16.2987 226.687 17.2444C227.132 18.214 228.294 18.6126 229.239 18.1586Z" fill="#BFC2E9"/>
<path d="M231.797 24.3994C230.956 23.7417 229.766 23.9082 229.118 24.7254C228.469 25.5426 228.627 26.7566 229.444 27.405C231.274 28.8331 233.84 29.149 236.002 28.1817C236.971 27.7369 237.408 26.6176 236.963 25.6481C236.519 24.6785 235.399 24.2415 234.43 24.6863C233.593 25.073 232.514 24.9537 231.797 24.3994Z" fill="#BFC2E9"/>
</g>
</g>
<defs>
<clipPath id="clip0_142_16094">
<rect width="368" height="175" rx="14" fill="white"/>
</clipPath>
<clipPath id="clip1_142_16094">
<rect width="173.841" height="173.841" fill="white" transform="translate(89.2231 -56.573) rotate(21.3283)"/>
</clipPath>
</defs>
</svg>
