<svg width="368" height="175" viewBox="0 0 368 175" fill="none" xmlns="http://www.w3.org/2000/svg">
<g clip-path="url(#clip0_161_2683)">
<rect width="368" height="175" rx="14" fill="#FFCBE4"/>
<g clip-path="url(#clip1_161_2683)">
<path d="M82.7571 127.312C84.2414 130.749 87.4332 136.649 92.2391 137.63C92.4967 137.674 92.8062 137.721 93.1174 137.742C94.6218 137.845 96.6286 137.462 98.7816 135.707C99.646 136.783 100.54 137.808 101.489 138.785C102.998 140.348 105.047 141.244 107.2 141.392C108.497 141.481 109.812 141.31 111.096 140.825C111.925 140.517 112.804 140.239 113.659 139.932C114.518 142.988 117.369 145.112 120.027 145.868C120.871 146.108 121.721 146.244 122.551 146.301C124.734 150.959 126.795 155.479 128.807 159.969C132.133 167.337 135.574 174.922 139.695 183.231C140.744 185.414 141.997 187.662 144.362 188.893C145.317 189.402 146.318 189.626 147.33 189.696C149.561 189.849 151.8 189.116 153.832 188.37C156.106 187.509 159.05 186.382 161.031 184.094C163.429 182.174 165.439 179.471 165.999 177.008C166.573 174.337 166.033 171.564 165.381 168.913C162.934 158.999 158.941 149.578 154.841 140.202C157.032 138.268 156.9 135.626 156.156 133.178C157.697 132.371 162.962 133.123 164.499 133.124C170.206 133.125 175.899 133.333 181.578 133.748C193.144 134.567 204.655 136.19 216.006 138.636C218.959 139.282 221.936 139.955 224.964 139.876C227.992 139.797 232.185 138.703 234.216 136.445C235.119 135.438 235.514 134.241 235.653 132.973C238.906 123.528 234.122 100.945 228.67 85.0657C229.55 84.0055 230.296 83.0143 230.854 82.0884C231.059 81.7636 231.162 81.4058 231.161 81.0409C231.113 74.1318 227.455 65.9067 222.059 60.6115C221.742 60.303 221.337 60.1189 220.872 60.061C220.07 59.9799 219.16 59.9436 218.169 59.9539C209.13 41.6656 193.029 18.4109 184.18 22.0519C183.053 22.5219 182.211 23.4023 181.585 24.5581C152.467 58.8892 123.34 82.3525 92.6061 96.1679C89.1374 97.7282 86.9655 101.28 87.2317 104.999C87.3882 107.277 87.7281 109.541 88.1494 111.759C84.8307 112.652 83.1616 114.57 82.3546 116.078C80.7978 119.021 80.9613 123.097 82.7571 127.312ZM117.343 138.648C128.027 135.237 139.416 132.942 151.356 131.728C153.196 135.685 153.159 136.986 151.328 137.85C149.846 138.557 148.054 138.851 146.341 139.124L128.611 141.922C126.187 142.303 123.421 142.739 121.069 142.082C119.432 141.631 117.698 140.314 117.343 138.648ZM152.467 184.706C150.302 185.496 147.85 186.292 146.164 185.42C144.856 184.731 144.023 183.189 143.228 181.492C139.131 173.211 135.688 165.652 132.386 158.312C130.576 154.305 128.742 150.27 126.811 146.124C127.652 146.026 128.469 145.899 129.259 145.771L146.989 142.973C147.095 142.955 147.226 142.937 147.332 142.919C148.335 145.776 149.354 148.764 150.397 151.807C147.723 154.698 143.97 156.604 140.035 156.986C138.959 157.094 138.189 158.058 138.274 159.106C138.363 160.077 139.149 160.782 140.083 160.846C140.187 160.853 140.29 160.86 140.422 160.843C144.62 160.427 148.651 158.645 151.812 155.865C153.006 159.361 154.205 162.778 155.347 165.88C152.729 168.723 149.429 170.868 145.75 172.075C144.737 172.397 144.166 173.504 144.486 174.543C144.746 175.316 145.44 175.833 146.218 175.886C146.451 175.902 146.714 175.868 146.953 175.806C150.658 174.601 154.029 172.565 156.87 169.893C157.113 170.535 157.383 171.153 157.604 171.741C158.855 174.772 160.078 178.218 158.735 180.705C157.637 182.663 155.248 183.672 152.467 184.706ZM230.903 133.456C228.033 134.64 219.481 124.828 209.585 106.481C209.935 106.323 210.214 106.055 210.42 105.705C212.254 102.521 216.661 97.9238 220.953 93.4752C222.608 91.7644 224.209 90.0761 225.673 88.4826C233.576 112.322 234.39 132.001 230.903 133.456ZM216.932 63.9344C216.48 70.9134 218.993 77.9655 223.857 83.0419C224.1 83.2931 224.396 83.5479 224.693 83.7767C222.824 85.9419 220.468 88.3863 218.167 90.7824C214.098 95.0118 209.944 99.3396 207.674 102.806C204.591 96.8357 201.429 90.13 198.292 82.6703C195.83 76.7683 193.71 71.2025 191.928 66.0248C195.544 66.1163 200.586 65.55 205.891 64.9495C209.778 64.5123 213.771 64.0564 216.932 63.9344ZM227.238 80.4853C227.156 80.5318 227.075 80.5784 226.992 80.6508C226.893 80.5659 226.795 80.481 226.65 80.3147C222.734 76.2415 220.617 70.6238 220.768 65.0052C224.455 69.3755 227.014 75.3883 227.238 80.4853ZM213.932 60.1845C211.311 60.3958 208.423 60.7189 205.428 61.0609C199.808 61.6919 193.977 62.3606 190.794 62.0381C190.716 62.0327 190.662 62.0551 190.585 62.0498C184.622 43.7379 183.016 31.0409 184.624 26.9816C185.019 26.5396 185.388 26.0958 185.785 25.6279C189.651 24.3554 202.732 38.0477 213.932 60.1845ZM180.175 32.2012C180.268 45.6545 188.337 68.9839 194.673 84.1421C200.812 98.7396 212.316 122.148 222.17 132.362C197.326 127.166 174.034 125.569 152.421 127.606L152.395 127.604C150.9 127.736 149.402 127.92 147.904 128.104C135.849 115.029 129.238 96.6728 130.195 78.9136C130.2 78.8357 130.178 78.7821 130.157 78.7025C147.073 66.4936 163.663 51.057 180.175 32.2012ZM94.2129 99.718C105.076 94.8339 115.708 88.7612 126.24 81.4829C126.014 98.4584 132.23 115.745 143.251 128.697C131.538 130.396 120.347 133.225 109.733 137.135C107.781 137.862 105.648 137.429 104.284 136.032C96.7842 128.352 91.9893 116.947 91.1338 104.719C90.963 102.648 92.2224 100.624 94.2129 99.718ZM85.7996 117.904C86.3984 116.773 87.4669 116.012 88.955 115.593C90.5361 121.799 93.0865 127.551 96.446 132.524C95.2283 133.561 94.1033 134.005 92.9969 133.799C90.7858 133.361 88.308 130.35 86.3278 125.784C85.0279 122.698 84.8121 119.765 85.7996 117.904Z" fill="#E49BBE"/>
<path d="M87.0211 79.9408C86.0934 79.4081 84.8996 79.7172 84.3669 80.6449C83.8342 81.5726 84.1433 82.7664 85.0709 83.2991L92.8396 87.8189C93.116 87.9682 93.396 88.0655 93.6813 88.0851C94.4076 88.1349 95.1086 87.792 95.4938 87.1148C96.0265 86.1872 95.7175 84.9933 94.7898 84.4606L87.0211 79.9408Z" fill="#E49BBE"/>
<path d="M98.6501 84.4125C98.9614 84.4339 99.3039 84.3792 99.5999 84.2431C100.569 83.7884 101.012 82.6461 100.559 81.6508C99.0421 78.3154 98.0318 74.8062 97.6028 71.1805C97.4682 70.1029 96.5029 69.3591 95.427 69.4678C94.3493 69.6024 93.6056 70.5677 93.7142 71.6436C94.1926 75.6896 95.3058 79.5967 97.0076 83.2836C97.3262 83.9569 97.9757 84.3663 98.6501 84.4125Z" fill="#E49BBE"/>
<path d="M107.685 69.7084L105.698 81.5858C105.521 82.6421 106.233 83.6552 107.29 83.8318L107.471 83.8443C108.457 83.9118 109.365 83.2183 109.538 82.2139L111.525 70.3365C111.701 69.2802 110.989 68.2671 109.933 68.0905C108.85 67.912 107.861 68.6521 107.685 69.7084Z" fill="#E49BBE"/>
<path d="M104.527 122.993C104.942 123.021 105.392 122.922 105.774 122.662C106.65 122.044 106.89 120.836 106.272 119.959C103.263 115.584 101.516 110.278 101.332 104.975C101.301 103.905 100.369 103.059 99.3241 103.091C98.2536 103.122 97.4096 104.029 97.4405 105.099C97.6522 111.134 99.6348 117.185 103.046 122.162C103.403 122.655 103.956 122.954 104.527 122.993Z" fill="#E49BBE"/>
<path d="M104.822 125.15C104.749 126.213 105.57 127.156 106.634 127.229L106.841 127.243C107.905 127.316 108.743 126.487 108.816 125.424C108.889 124.36 107.964 123.411 106.9 123.338C105.837 123.265 104.896 124.061 104.822 125.15Z" fill="#E49BBE"/>
</g>
</g>
<defs>
<clipPath id="clip0_161_2683">
<rect width="368" height="175" rx="14" fill="white"/>
</clipPath>
<clipPath id="clip1_161_2683">
<rect width="176.792" height="176.792" fill="white" transform="translate(78.0928 11) rotate(3.92213)"/>
</clipPath>
</defs>
</svg>
