<svg width="368" height="175" viewBox="0 0 368 175" fill="none" xmlns="http://www.w3.org/2000/svg">
<g clip-path="url(#clip0_142_15639)">
<rect width="368" height="175" rx="14" fill="#FFD2F3"/>
<path d="M241.354 133.419C239.923 132.373 240.476 130.774 240.978 129.073C241.841 126.153 243.3 123.301 244.328 120.517C248.891 108.157 250.352 102.485 252.459 94.7606C253.329 91.5676 255.231 87.4965 253.182 85.4429C251.5 83.756 252.071 80.1995 252.926 77.8781C254.822 72.7355 255.627 67.2934 255.254 61.2379C255.307 61.1092 255.38 60.9922 255.406 60.8498C257.061 51.6847 251.927 39.889 244.42 35.6063C243.683 35.1937 242.804 35.2908 242.181 35.7832C241.926 35.8498 241.679 35.966 241.458 36.1372C228.941 45.9009 227.475 63.7636 222.405 76.4117C221.973 76.1848 221.537 75.9749 221.106 75.7402C219.866 75.0655 218.15 75.8527 218.17 77.521C217.722 78.2276 219.188 74.3688 203.414 121.363C199.988 121.468 196.582 121.698 193.951 121.737C192.842 121.753 191.959 122.665 191.975 123.773C191.975 123.79 191.984 123.804 191.985 123.821C191.454 125.51 191.771 124.53 189.739 130.95C185.851 128.229 180.345 125.667 173.703 123.47C177.125 102.156 180.337 72.7275 182.324 51.3172C182.279 51.2403 182.25 51.2246 182.213 51.1782C184.155 39.1915 139.969 33.1075 138.329 45.014C138.132 46.4453 138.664 47.7341 139.658 48.8998C139.642 48.9641 139.603 49.0162 139.594 49.083L130.256 116.887C112.071 117.034 100.694 121.212 99.7326 128.194C99.7317 128.201 99.7337 128.207 99.7328 128.213C98.9572 129.144 99.76 126.652 93.2658 172.739C93.1244 172.969 93.0231 173.228 92.9839 173.513C90.4673 191.787 159.756 205.415 183.581 194.142C195.715 201.956 206.15 202.791 220.931 204.096C220.913 204.15 220.892 204.206 220.875 204.261L224.663 204.519C225.684 204.588 226.65 204.007 227.036 203.058C227.753 201.296 237.596 174.13 245.192 150.328C246.226 147.086 249.345 141.129 247.474 137.773C246.372 135.796 243.32 134.624 241.354 133.419ZM236.514 136.256C236.834 136.582 237.168 136.911 237.503 137.241C237.1 137.145 236.702 137.05 236.296 136.953L236.514 136.256ZM251.693 56.7859C248.747 53.0457 246.311 47.0486 245.497 41.5372C249.112 45.2886 251.576 51.3083 251.693 56.7859ZM241.46 41.5553C242.418 48.8203 245.937 57.489 250.938 61.806C248.391 70.324 246.76 76.076 244.304 84.2622C238.252 83.0929 232.058 81.0353 225.982 78.1869C230.018 70.5945 231.379 51.9325 241.46 41.5553ZM221.346 80.3822C229.846 84.7342 238.682 87.6327 247.169 88.8215L232.384 136.015C225.744 134.42 217.77 132.496 211.717 131.067C209.597 130.147 207.481 129.095 205.374 127.999C205.739 127.277 203.955 132.277 221.346 80.3822ZM190.505 193.491C185.338 190.848 181.235 187.99 177.129 183.753C183.452 163.45 188.387 148.756 195.195 126.998C199.622 129.516 204.174 132.034 208.804 134.136L190.505 193.491ZM201.828 126.106C201.45 125.899 201.071 125.693 200.694 125.484C201.15 125.462 201.61 125.439 202.058 125.42L201.828 126.106ZM160.971 43.0664C172.125 44.6025 178.509 48.7621 178.267 50.5141C178.061 52.0125 172.5 54.2397 160.58 52.5981C148.119 50.8821 142.121 46.889 142.304 45.5614C142.546 43.8094 149.816 41.5302 160.971 43.0664ZM175.323 56.514L164.377 133.096C163.31 134.378 157.533 136.188 148.072 134.885C137.719 133.46 132.557 129.611 132.73 128.353C132.836 127.58 143.228 52.1067 143.286 51.6835C150.864 55.8575 166.466 58.4633 175.323 56.514ZM129.703 120.902C128.569 129.574 128.697 127.621 128.741 128.434C128.814 137.908 159.239 143.055 166.944 136.17C167.613 136.03 168.373 135.855 169.551 134.367C172.769 130.302 172.474 130.779 173.039 127.471C179.697 129.714 185.014 132.304 188.458 134.998C187.262 138.789 186.046 142.606 184.827 146.411C175.993 149.166 161.402 149.608 146.327 147.532C120.935 144.035 102.883 134.727 103.708 128.742C104.233 124.93 113.316 121.134 129.703 120.902ZM97.0057 174.891C105.422 113.939 101.275 143.969 102.47 135.319C113.663 147.805 158.073 157.09 183.357 150.981C180.04 161.259 176.412 172.534 172.948 183.686C172.734 184.374 172.904 185.123 173.395 185.649C175.415 187.822 177.497 189.721 179.682 191.418C171.08 194.46 155.781 195.085 139.842 192.89C115.442 189.529 97.8206 180.879 97.0057 174.891ZM194.185 195.174L212.613 135.403C221.532 137.52 230.739 139.761 240.413 142.062C234.06 161.341 227.068 180.772 220.726 200.049C211.717 199.241 202.57 198.528 194.185 195.174Z" fill="#E7A2D3"/>
<path d="M195.991 49.0048C197.099 48.9913 197.989 48.0854 197.977 46.9761L197.846 34.2636C197.834 33.1569 196.919 32.2741 195.82 32.2784C194.712 32.2919 193.822 33.1979 193.835 34.3071L193.965 47.0197C193.976 48.0692 194.808 48.9977 195.991 49.0048Z" fill="#E7A2D3"/>
<path d="M204.353 49.6604C204.377 49.6664 204.402 49.6698 204.426 49.6731C205.49 49.8196 206.488 49.0975 206.675 48.0314C207.612 42.6834 209.299 37.4993 211.689 32.6257C212.178 31.6303 211.766 30.4291 210.772 29.9415C209.777 29.4485 208.574 29.8629 208.088 30.8587C205.53 36.0732 203.725 41.6181 202.722 47.3394C202.531 48.4312 203.261 49.4705 204.353 49.6604Z" fill="#E7A2D3"/>
<path d="M212.574 54.8167L223.413 44.6089C224.219 43.8497 224.257 42.5786 223.497 41.7726C222.739 40.9693 221.469 40.9316 220.661 41.6879L209.823 51.8957C208.59 53.0571 209.273 55.1163 210.924 55.3435C211.505 55.4236 212.114 55.2491 212.574 54.8167Z" fill="#E7A2D3"/>
</g>
<defs>
<clipPath id="clip0_142_15639">
<rect width="368" height="175" rx="14" fill="white"/>
</clipPath>
</defs>
</svg>
