<svg width="368" height="175" viewBox="0 0 368 175" fill="none" xmlns="http://www.w3.org/2000/svg">
<g clip-path="url(#clip0_142_16307)">
<rect width="368" height="175" rx="14" fill="#F5FABD"/>
<path d="M38.0027 101.09C37.8828 105.143 38.4456 110.051 38.3317 113.923C38.2835 115.525 40.2369 116.358 41.3563 115.216C43.2181 113.325 45.1217 111.464 47.0219 109.6C46.206 111.888 46.3582 108.109 47.3971 170.605C47.5177 177.852 48.2248 186.251 54.2109 190.338C57.9501 192.891 62.784 192.993 67.3115 193.004C180.374 193.287 173.197 193.629 175.475 192.622C179.46 190.859 179.24 185.108 170.85 185.685C168.839 185.822 166.826 185.929 164.814 186.053C166.833 183.597 166.614 181.132 166.661 180.896C167.388 155.866 168.107 130.024 167.635 104.371C171.377 107.749 175.092 111.163 178.72 114.643C179.883 115.755 181.8 114.859 181.707 113.267C181.495 109.587 181.597 104.184 181.378 100.435C181.352 99.9883 181.159 99.5695 180.837 99.2612C157.552 76.9306 131.264 56.4269 110.966 41.0612C110.357 40.601 109.526 40.5826 108.897 41.0129C83.3727 58.5829 59.6902 78.3963 38.51 99.9032C38.1971 100.221 38.0153 100.646 38.0027 101.09ZM88.757 185.364C88.0762 171.506 88.2803 157.485 89.377 143.656C100.869 143.979 112.518 143.865 124.092 144.185C124.089 150.561 124.299 157.254 124.503 163.745C125.228 186.901 124.717 184.134 124.98 185.308C110.115 185.323 101.875 185.366 88.757 185.364ZM163.12 181.094C163.047 183.547 161.077 185.45 158.619 185.45C155.481 185.45 151.08 185.299 128.364 185.307C128.862 183.045 127.542 155.355 127.634 142.482C127.64 141.525 126.881 140.736 125.923 140.703C113.178 140.301 100.302 140.475 87.8089 140.073C86.8356 140.02 86.0705 140.754 85.9911 141.691C84.7679 156.159 84.5158 170.849 85.2216 185.365C77.0652 185.356 68.8885 185.317 60.8062 185.22C58.366 185.192 56.4068 183.25 56.3469 180.8C54.1346 99.3061 54.7874 103.847 53.9978 102.906C71.3682 86.5635 90.1867 71.3177 110.18 57.483C126.042 69.5066 145.4 84.6054 164.066 101.178C164.667 127.801 163.89 154.591 163.12 181.094ZM109.851 44.6507C129.78 59.7586 155.244 79.6802 177.885 101.327C177.992 103.654 178 106.571 178.041 109.123C155.549 87.9406 130.688 68.5713 111.295 53.8935C110.686 53.4334 109.856 53.4172 109.226 53.8452C84.8867 70.5961 62.2247 89.3902 41.8073 109.749C41.6922 107.027 41.4965 104.344 41.522 101.882C62.1281 81.0239 85.1087 61.7743 109.851 44.6507Z" fill="#DAE27A"/>
<path d="M96.5042 113.704C103.187 120.999 116.539 119.343 121.959 110.61C125.374 105.108 124.841 97.7128 120.694 93.0258C107.807 78.4592 83.2766 99.2468 96.5042 113.704ZM118.957 108.746C114.633 115.707 104.038 116.697 99.1111 111.316C89.1388 100.425 108.203 84.2334 118.047 95.3682C121.133 98.8564 121.525 104.609 118.957 108.746Z" fill="#DAE27A"/>
<path d="M152.205 44.4528L149.024 62.1792C148.852 63.141 149.491 64.0591 150.452 64.2316C151.445 64.4044 152.336 63.7371 152.503 62.8051L155.684 45.0786C155.857 44.1168 155.217 43.1987 154.257 43.0262C153.306 42.8536 152.378 43.4933 152.205 44.4528Z" fill="#DAE27A"/>
<path d="M160.161 69.501C161.574 69.501 161.02 69.0962 173.324 56.1233C173.987 55.4077 173.944 54.2895 173.229 53.6268C172.512 52.9618 171.396 53.0078 170.731 53.7211L158.864 66.5328C157.816 67.6642 158.632 69.501 160.161 69.501Z" fill="#DAE27A"/>
<path d="M187.965 70.4233C187.739 69.4776 186.791 68.8978 185.836 69.1164C179.97 70.5199 174.19 72.4527 168.655 74.8595C167.761 75.2484 167.35 76.2884 167.739 77.1835C168.136 78.0964 169.193 78.483 170.065 78.0992C175.41 75.7753 180.992 73.9092 186.657 72.554C187.607 72.3262 188.192 71.3736 187.965 70.4233Z" fill="#DAE27A"/>
</g>
<defs>
<clipPath id="clip0_142_16307">
<rect width="368" height="175" rx="14" fill="white"/>
</clipPath>
</defs>
</svg>
