<svg width="368" height="175" viewBox="0 0 368 175" fill="none" xmlns="http://www.w3.org/2000/svg">
<rect width="368" height="175" rx="14" fill="#EAEBEC"/>
<path d="M188.732 61.1019C186.241 57.117 187.237 52.3849 189.977 50.1434C192.717 47.9019 196.951 48.151 199.192 50.6416C201.434 52.8831 201.932 57.117 199.69 59.8566C197.698 62.5963 192.966 63.8416 188.732 61.1019C189.977 63.0944 192.219 64.5887 194.958 64.8378C197.449 65.0868 200.437 64.3397 202.43 62.3472C204.671 60.6038 205.917 57.6151 205.917 54.8755C205.917 51.8868 204.92 48.8982 202.679 46.9057C200.687 44.9133 197.698 43.668 194.709 43.668C191.72 43.668 188.981 45.1623 187.237 47.1548C185.245 49.1472 184.498 52.1359 184.747 54.6265C185.494 57.6151 186.739 60.1057 188.732 61.1019Z" fill="#B0BCC8"/>
<path d="M246.015 115.147C246.015 105.185 246.015 101.449 245.517 58.3623C245.517 57.8642 245.268 39.9321 245.268 40.6793C245.268 39.434 245.268 38.1887 245.019 36.9434C244.521 34.2038 243.026 31.9623 240.785 30.468C238.792 28.7246 236.053 27.9774 233.313 28.2264C232.815 28.2264 211.645 28.7246 211.894 28.7246C202.43 28.9736 192.966 29.2227 183.502 29.4717C201.185 29.4717 207.411 29.4717 226.091 29.9698L233.313 30.2189C235.555 30.2189 237.547 30.9661 239.291 32.2114C240.785 33.4566 242.03 35.4491 242.528 37.4415V40.6793C242.528 41.1774 242.279 59.3585 242.279 58.3623C241.781 95.2227 241.781 101.449 241.781 112.906C238.045 106.679 234.309 100.204 230.324 93.9774L222.853 82.0227L215.132 70.317C214.883 70.068 214.634 69.8189 214.385 69.5698C213.389 69.0717 212.143 69.3208 211.645 70.317C206.415 79.2831 200.687 89.7434 195.955 99.2076C186.989 83.268 180.015 71.5623 170.302 56.1208C170.053 55.8717 169.804 55.6227 169.555 55.3736C168.309 54.6264 166.815 55.1246 166.068 56.1208C159.592 66.5812 153.366 76.7925 147.14 87.5019C141.162 97.9623 135.185 108.423 129.706 119.132C128.46 119.132 127.464 119.381 126.219 119.381C126.219 97.9623 126.468 123.117 125.472 45.4114C125.472 43.1698 125.472 40.4302 125.472 38.4378C125.721 36.4453 126.468 34.4529 127.962 32.9585C129.457 31.4642 131.449 30.468 133.441 30.2189C135.683 30.2189 138.174 30.2189 140.415 29.9698C159.343 29.4717 166.068 29.4717 183.502 28.9736C166.068 28.4755 159.343 28.4755 140.913 27.9774C138.423 27.9774 136.181 27.7283 133.691 27.9774C130.951 27.9774 128.46 29.2227 126.468 30.9661C124.475 32.7095 123.23 35.4491 122.981 37.9397C122.732 40.6793 122.981 42.9208 122.732 45.1623C121.985 124.611 122.234 96.2189 121.985 130.589V134.076V135.819C121.985 136.566 121.985 137.313 122.234 138.06C122.732 140.8 124.475 143.54 126.717 145.283C128.958 147.026 131.947 148.023 134.687 148.023C135.185 148.023 156.355 148.023 156.106 148.023C156.355 148.023 232.815 148.023 232.566 148.023H234.558C237.547 147.774 240.287 146.528 242.279 144.536C244.272 142.543 245.766 139.804 246.015 136.815C246.015 135.321 246.015 134.325 246.015 133.079C246.015 132.581 246.015 114.151 246.015 115.147ZM205.17 86.7548C207.909 83.0189 210.4 79.034 213.14 75.2981L218.619 84.7623L226.091 96.717C230.324 103.691 234.808 110.664 239.291 117.389C234.808 117.638 230.324 117.638 225.841 117.887C221.857 117.638 217.872 117.389 213.887 117.389C211.147 117.389 208.408 117.14 205.419 117.14C202.43 111.162 199.192 105.185 195.955 99.4566C199.192 95.2227 202.181 90.9887 205.17 86.7548ZM150.377 89.2453C156.355 80.2793 162.332 71.0642 168.06 61.8491C173.789 71.0642 179.766 80.2793 185.743 89.2453C191.97 98.7095 198.445 107.925 205.17 117.14C198.196 116.891 191.223 116.891 184.249 116.891C174.287 116.891 164.324 117.14 154.362 117.389C146.392 117.638 138.174 118.136 130.204 118.883C137.177 109.17 143.902 99.2076 150.377 89.2453ZM241.532 133.079V136.317C241.034 140.053 238.294 143.042 234.309 143.291C233.811 143.291 233.313 143.291 232.566 143.291H230.823C201.683 143.291 130.204 143.291 134.687 143.291C132.694 143.291 130.951 142.792 129.457 141.547C127.962 140.302 126.966 138.808 126.468 137.064C126.468 136.566 126.219 136.068 126.219 135.57C126.219 135.072 126.219 134.325 126.219 133.826C126.219 133.328 126.219 118.385 126.219 119.381C135.434 120.377 144.649 120.876 153.864 121.125C163.826 121.623 173.789 121.623 183.751 121.623C193.713 121.623 203.675 121.374 213.638 121.125C217.623 120.876 221.358 120.876 225.343 120.626C230.574 120.876 236.053 121.125 241.283 121.374C241.532 121.623 241.532 133.577 241.532 133.079Z" fill="#B0BCC8"/>
</svg>
