<svg width="215" height="187" viewBox="0 0 215 187" fill="none" xmlns="http://www.w3.org/2000/svg">
<g clip-path="url(#clip0_92_6662)">
<path d="M77.5458 -42.363C76.2884 -43.5288 74.8735 -44.3176 73.3262 -45.014C70.4053 -46.324 67.2882 -47.0039 64.3778 -47.669C58.6616 -48.993 52.5858 -51.4576 45.367 -51.6539C43.5573 -51.6489 41.6542 -51.5139 39.734 -50.8642C37.6781 -50.1009 36.4003 -49.2856 34.8476 -48.4553C25.3072 -43.1621 16.8403 -36.7897 8.01199 -31.4635C1.83183 -27.7611 -4.86893 -24.2485 -11.4794 -20.1224C-18.0505 -15.9644 -24.7907 -11.3997 -30.4093 -5.06153C-33.2283 -1.92268 -35.6556 1.72765 -37.4524 5.79098C-39.0181 9.9173 -40.1992 14.434 -39.874 18.9843C-39.7883 28.2026 -35.6458 36.4892 -31.6232 44.0239C-23.4326 59.1593 -14.5906 73.4581 -5.36549 86.7979C-0.643894 93.486 3.78461 99.7347 7.84411 106.357C11.9541 112.896 15.9456 119.426 20.3052 125.561C24.7307 131.67 29.1677 137.449 34.5306 142.519C39.8287 147.442 46.4545 151.679 53.9013 152.037C61.2576 152.428 67.6897 149.504 72.9922 146.38C78.3686 143.204 82.9906 139.611 87.5159 136.553C106.13 124.698 121.357 115.098 131.721 108.312C138.754 103.727 143.556 100.492 145.905 98.7496C148.503 100.034 151.681 101.155 155.542 101.569C159.059 101.902 163.127 101.486 167.011 99.8376C170.898 98.2368 174.598 95.6252 177.793 92.2518C180.986 88.8741 183.623 84.6682 185.41 79.8583C187.096 75.079 187.842 69.3099 186.357 63.8446C185.685 61.1475 184.563 58.5527 183.319 56.318C178.22 46.7188 171.266 36.9399 164.691 28.3294C162.256 25.2993 160.351 22.3122 157.597 19.7547C152.204 14.8396 146.082 13.7626 142.298 14.016C139.689 14.1682 138.07 14.7369 137.265 15.1874C136.323 15.0417 135.383 14.9458 134.457 14.9691C129.679 14.9046 125.688 16.5112 122.468 18.3033C122.057 17.7384 121.424 16.9602 120.667 15.9173C119.202 13.901 117.259 10.7926 116.318 6.6075C115.361 2.50188 115.655 -2.80081 118.253 -7.59683C119.509 -10.0179 121.407 -11.9415 123.877 -14.393C126.183 -16.7575 129.297 -20.0486 129.711 -24.9285C130.227 -33.2416 122.128 -40.4372 113.915 -40.4821C106.672 -40.5448 101.345 -37.1416 97.5081 -34.3798C92.8348 -30.8782 89.9201 -27.54 88.4611 -25.3406C87.2449 -27.3454 85.8955 -29.463 84.7508 -31.4849C82.7089 -35.1546 80.728 -39.4545 77.5458 -42.363ZM63.4598 -43.378C66.4828 -42.7534 69.2371 -42.1845 71.6861 -41.1455C71.7325 -41.1261 71.7664 -41.1046 71.812 -41.0847C70.7558 -40.6306 69.4641 -39.9761 67.972 -39.1329C64.2193 -37.2934 59.2402 -32.7402 54.6698 -32.659C53.5517 -32.6689 52.7706 -32.9669 52.3118 -33.403C51.7671 -33.8651 50.9669 -35.2997 50.2332 -36.5039C48.4629 -39.418 45.393 -44.241 43.0597 -46.7293C43.8186 -46.8465 44.6052 -46.914 45.4066 -46.9285C51.3563 -46.9015 57.3526 -44.7228 63.4598 -43.378ZM130.587 106.397C119.83 112.624 104.364 121.643 85.2908 133.18C75.5739 139.434 65.1147 148.127 54.1661 147.322C48.3451 146.995 42.7275 143.454 37.9217 138.875C33.1271 134.249 28.7559 128.476 24.5677 122.56C20.4015 116.577 16.5204 110.114 12.4282 103.496C8.43079 96.8578 3.74336 90.1495 -0.80241 83.6512C-9.85191 70.4335 -18.558 56.279 -26.6395 41.3453C-30.6101 33.965 -34.2064 26.4623 -34.2307 18.8846C-34.5384 15.0996 -33.5354 11.4646 -32.2811 8.01969C-30.7842 4.63407 -28.744 1.47834 -26.2359 -1.33454C-21.2704 -7.01747 -14.9154 -11.437 -8.58209 -15.497C-2.19754 -19.5499 4.39718 -23.0769 10.7587 -26.9712C19.4801 -32.3559 28.2778 -39.0537 37.2587 -44.2039C38.4926 -44.9087 39.8681 -45.6974 40.9052 -46.1419C41.5605 -42.8613 44.2361 -36.9873 45.6791 -33.9671C46.3426 -32.7018 46.7618 -31.3379 48.351 -29.5214C50.0545 -27.6829 52.5713 -26.9423 54.6954 -26.9595C59.0863 -27.0301 62.2555 -29.1655 64.6044 -30.9113C67.146 -32.8942 72.1523 -37.2199 74.0633 -39.8414C74.3218 -39.6617 74.6018 -39.5024 74.8353 -39.2897C77.4878 -36.9736 79.5484 -32.8333 81.4484 -29.5972C82.8526 -27.2643 81.5442 -29.355 105.934 8.09449C110.883 15.6002 114.295 20.5987 115.969 22.7786C114.794 23.7651 113.745 24.7369 112.85 25.6487C108.905 29.744 107.509 32.5981 107.785 32.7946C108.133 33.0717 110.122 30.7089 114.338 27.3022C115.603 26.2953 117.111 25.1991 118.814 24.1053C119.951 29.5891 127.085 41.0658 131.627 44.7174C124.665 49.4773 119.542 55.3267 117.078 60.4475C116.382 61.887 115.909 63.1918 115.58 64.3529C115.043 63.4432 114.514 62.5363 114.024 61.6539C111.657 57.3564 109.749 53.3035 108.097 49.7208C106.42 46.223 105.504 43.1233 105.418 40.5497C105.312 38.0363 106.294 36.2007 106.943 34.9175C107.609 33.6385 107.949 32.9167 107.785 32.7946C107.634 32.6818 107.003 33.1465 106 34.2584C105.051 35.3323 103.478 37.3126 103.21 40.4545C102.931 43.472 103.699 47.1479 105.17 50.9226C106.562 54.6637 108.246 58.9118 110.469 63.4898C114.934 72.4997 121.588 83.4672 133.584 91.0416C134.938 91.8669 136.385 92.5694 137.884 93.1786C138.546 93.8297 139.373 94.5731 140.532 95.4505C141.733 96.3261 143.247 97.3538 145.07 98.3251C142.335 99.7197 137.425 102.459 130.587 106.397ZM177.886 61.6003C176.793 61.5806 175.832 61.7661 175.013 62.057C174.566 59.8986 173.909 57.8312 173.11 55.8986C173.447 55.9187 173.778 55.9537 174.129 55.9204C174.938 55.8376 175.655 55.5801 176.291 55.2507C176.983 56.4797 177.686 57.6866 178.348 58.9578C178.876 59.927 179.331 60.888 179.735 61.8624C179.158 61.7123 178.548 61.6037 177.886 61.6003ZM173.406 50.2771C172.37 50.3995 171.52 50.7786 170.853 51.2651C169.71 49.1502 168.481 47.1566 167.202 45.2534C168.252 45.4609 169.108 45.3289 170.099 44.9259C171.206 46.6642 172.306 48.4488 173.406 50.2771ZM163.806 35.4122C164.804 36.8941 165.833 38.4231 166.882 39.9792C165.966 40.2785 165.134 40.7305 164.683 41.3568C164.64 41.4146 164.653 41.4713 164.616 41.529C163.659 40.2051 162.702 38.9117 161.774 37.6426C161.371 37.1045 161.013 36.6009 160.629 36.0777C160.916 36.0874 161.181 36.1359 161.483 36.1088C162.387 36.0274 163.145 35.7531 163.806 35.4122ZM155.474 23.4237C157.087 25.3463 158.691 27.9266 160.51 30.5279C159.316 30.7221 158.317 31.2385 157.656 31.9342C157.175 31.2447 156.69 30.5665 156.205 29.8549C154.786 27.8348 153.282 25.9019 151.681 24.0658C151.884 24.0591 152.08 24.0679 152.284 24.0545C153.442 23.943 154.562 23.7564 155.474 23.4237ZM158.564 42.1436C163.712 49.454 170.033 58.5064 169.962 67.3657C169.964 70.6187 169.139 74.0156 167.866 77.2795C166.512 80.667 165.033 83.4638 162.62 85.4631C160.242 87.4692 157.309 88.8547 154.182 89.453C147.905 90.7297 141.349 89.5258 136.198 86.5188C127.782 81.4874 121.811 74.2141 117.348 67.2166C118.117 66.0122 119.121 64.4008 120.51 62.567C123.448 58.6132 128.577 53.7102 134.878 49.4143C141.184 45.1202 147.705 42.9873 152.616 42.4823C155.064 42.187 157.103 42.1816 158.564 42.1436ZM171.765 82.522C172.786 80.4606 173.52 78.6217 174.261 76.1182C175.165 76.9321 176.517 77.6722 178.093 78.2319C178.693 78.4377 179.281 78.5904 179.855 78.7202C178.941 81.188 177.704 83.5083 176.271 85.6002C175.067 84.2035 173.604 83.1468 171.765 82.522ZM145.192 95.1366C148.492 95.6053 151.915 95.585 155.324 94.9273C155.842 94.8326 156.356 94.6725 156.873 94.5429C157.062 95.4589 157.595 96.4623 158.405 97.4329C157.505 97.5336 156.611 97.5851 155.74 97.5456C151.582 97.448 148.059 96.3245 145.192 95.1366ZM164.258 95.8348C163.509 94.5446 162.618 93.6493 161.459 92.8927C163.167 92.0644 164.811 91.0456 166.312 89.7848C167.376 88.9177 168.278 87.8857 169.108 86.801C170.251 87.8739 171.455 88.806 172.929 89.7162C170.28 92.4724 167.306 94.5273 164.258 95.8348ZM181.206 73.4067C178.985 72.2691 176.723 72.0913 175.103 72.5371C175.406 70.8722 175.609 69.1829 175.606 67.4619C175.606 67.3129 175.581 67.1706 175.58 67.0226C176.283 67.1721 177.026 67.2773 177.804 67.2969C179.069 67.3026 180.221 67.1899 181.153 66.9092C181.515 69.0881 181.515 71.2655 181.206 73.4067ZM149.804 18.813C148.929 19.1248 148.199 19.5548 147.674 20.0493C145.593 18.3592 143.278 16.9899 140.876 16.1091C141.322 16.145 141.733 16.1662 142.243 16.2335C144.339 16.4889 147.059 17.2836 149.804 18.813ZM146.875 25.6795C150.18 29.2857 153.003 34.2088 156.43 39.0912C155.313 38.8051 154.012 38.5726 152.516 38.453C147.45 37.9525 140.467 39.4542 134.022 43.2129C132.727 37.5429 125.575 26.1711 121.14 22.7082C121.594 22.4506 122.032 22.1906 122.513 21.9394C125.851 20.2232 129.896 18.6817 134.364 18.9967C138.84 19.1654 143.233 21.5823 146.875 25.6795ZM99.7431 -31.0124C103.552 -33.2068 108.471 -35.5976 113.73 -35.2358C116.288 -35.0897 118.732 -34.0428 120.808 -32.195C122.844 -30.3834 124.233 -27.7949 124.052 -25.3945C123.867 -20.3905 116.524 -16.5949 113.591 -10.0163C110.575 -3.75487 110.767 2.87636 112.464 7.69162C114.147 12.5613 116.957 15.7104 119.081 17.4465C119.969 18.169 120.706 18.6235 121.327 18.9423C121.201 19.0173 121.052 19.0888 120.93 19.1639C119.256 20.2095 117.787 21.2864 116.481 22.348C115.244 19.8493 112.294 14.6136 107.805 6.93272C93.9452 -16.4468 97.6867 -10.2024 89.381 -23.8331C91.3442 -25.3031 94.7311 -28.0705 99.7431 -31.0124Z" fill="#D1D4F4"/>
<path d="M5.73057 15.4145C5.14922 14.5798 4.4033 13.4145 3.19734 12.3697C2.57656 11.848 1.79755 11.3088 0.759938 11.0132C-0.248266 10.6935 -1.51424 10.7483 -2.43878 11.0498C-4.37016 11.7364 -5.06356 12.3234 -6.29384 12.846C-8.61615 13.9882 -11.2861 15.124 -13.9401 17.154C-15.2477 18.2082 -16.5943 19.4102 -17.571 21.3184C-18.6668 23.4361 -18.5775 25.8423 -18.1124 27.6849C-17.1218 31.4374 -15.2468 34.0612 -13.5509 36.5375C-12.6918 37.7105 -11.8483 38.862 -11.0214 39.9906C-10.2874 40.9581 -9.49596 42.3221 -8.21105 43.5644C-7.57056 44.1833 -6.77626 44.7798 -5.8454 45.1894C-5.35749 45.3836 -4.79802 45.5262 -4.28105 45.6446L-2.91523 45.7256C-1.24323 45.6556 0.0884017 45.2622 1.34487 44.8581C3.79581 43.9746 5.82086 42.85 7.59119 41.6886C9.35262 40.5166 10.8383 39.298 12.0286 38.007C13.221 36.7665 14.144 35.1156 14.2301 33.7656C14.4023 31.0273 13.3235 29.9503 13.0443 30.0441C13.3946 29.9819 13.5387 28.5494 12.6622 26.3009C11.8452 24.0361 9.9923 21.1136 7.54617 17.8886C6.96772 17.1006 6.36193 16.2743 5.73057 15.4145ZM12.0848 33.2194C11.4674 34.8187 8.95219 36.4793 5.56681 38.1906C3.88516 39.0082 1.96161 39.8041 -0.06107 40.3356C-1.05498 40.5663 -2.101 40.7465 -2.93979 40.7141C-3.11374 40.6787 -3.28475 40.6553 -3.45982 40.6437C-3.54946 40.5752 -3.61801 40.5697 -3.72941 40.5321C-3.9734 40.3975 -4.23946 40.1857 -4.53569 39.8635C-5.14655 39.2226 -5.72339 38.1926 -6.5958 36.8907C-7.37805 35.7458 -8.17749 34.577 -8.99092 33.3859C-10.5226 31.0974 -12.0509 28.6189 -12.5986 26.3943C-2.21255 4.56088 11.4852 29.2086 12.9243 30.1918C12.6657 30.5358 12.7054 31.7311 12.0848 33.2194Z" fill="#D1D4F4"/>
<path d="M30.2157 54.5671C29.6343 53.7324 28.8889 52.5679 27.6824 51.5223C27.0622 51.0014 26.2832 50.4622 25.245 50.1658C24.2374 49.8469 22.9709 49.9009 22.0463 50.2023C20.1155 50.8898 19.4215 51.476 18.1918 51.9994C15.8689 53.1408 13.199 54.2766 10.545 56.3066C9.23735 57.3608 7.89081 58.5628 6.91459 60.4718C5.81879 62.5895 5.90812 64.9957 6.37272 66.8375C7.36328 70.5899 9.23825 73.2138 10.9342 75.6901C11.7933 76.863 12.6374 78.0155 13.4642 79.144C14.1977 80.1107 14.9891 81.4747 16.2746 82.7178C16.9145 83.3359 17.7094 83.9332 18.6397 84.342C19.1276 84.5362 19.6876 84.6796 20.2046 84.798L21.5699 84.8782C23.2424 84.809 24.574 84.4156 25.8305 84.0115C28.2809 83.1271 30.306 82.0025 32.0763 80.8412C33.8377 79.6692 35.3234 78.4506 36.5137 77.1595C37.7066 75.92 38.6291 74.2682 38.7152 72.9181C38.8879 70.1807 37.8091 69.1037 37.5294 69.1967C37.8797 69.1344 38.0243 67.7028 37.1473 65.4535C36.3308 63.1895 34.4779 60.267 32.0313 57.0412C31.4528 56.2532 30.8476 55.4277 30.2157 54.5671ZM36.5699 72.372C35.9525 73.9713 33.4378 75.6328 30.0519 77.3432C28.3708 78.1616 26.4472 78.9575 24.4245 79.489C23.4301 79.7189 22.3841 79.8991 21.5458 79.8675C21.3719 79.8321 21.2003 79.8079 21.0258 79.7971C20.9362 79.7286 20.8676 79.7231 20.7557 79.6847C20.5122 79.5509 20.2462 79.3391 19.9494 79.0161C19.3385 78.3752 18.7622 77.346 17.8898 76.0441C17.1071 74.8983 16.3076 73.7296 15.4947 72.5393C13.9625 70.25 12.4342 67.7715 11.887 65.5477C22.2731 43.7143 35.9708 68.362 37.4094 69.3444C37.1513 69.6892 37.191 70.8845 36.5699 72.372Z" fill="#D1D4F4"/>
<path d="M54.7025 93.7196C54.1216 92.8857 53.3757 91.7204 52.1697 90.6756C51.549 90.1539 50.77 89.6147 49.7323 89.3192C48.7241 88.9994 47.4582 89.0542 46.5336 89.3557C44.6023 90.0423 43.9088 90.6293 42.6786 91.1519C40.3563 92.2941 37.6864 93.4299 35.0323 95.4599C33.7247 96.5142 32.3776 97.7153 31.4014 99.6243C30.3056 101.742 30.3949 104.148 30.8595 105.99C31.8506 109.743 33.7256 112.367 35.4215 114.843C36.2807 116.016 37.1241 117.168 37.951 118.297C38.6845 119.263 39.4759 120.627 40.7614 121.87C41.4013 122.488 42.1962 123.086 43.127 123.495C43.6149 123.69 44.1744 123.832 44.6914 123.95L46.0572 124.032C47.7292 123.962 49.0608 123.568 50.3173 123.164C52.7682 122.28 54.7933 121.156 56.5631 119.994C58.325 118.823 59.8107 117.604 61.001 116.313C62.1934 115.072 63.1164 113.422 63.2025 112.071C63.3747 109.333 62.2959 108.256 62.0167 108.35C62.367 108.288 62.5111 106.855 61.6347 104.607C60.8176 102.342 58.9647 99.4195 56.5186 96.1945C55.9401 95.4065 55.3343 94.5802 54.7025 93.7196ZM61.0572 111.525C60.4398 113.125 57.9246 114.785 54.5392 116.497C52.8576 117.314 50.934 118.11 48.9113 118.642C47.9174 118.872 46.8714 119.052 46.0326 119.02C45.8587 118.985 45.6877 118.961 45.5126 118.95C45.4229 118.881 45.3544 118.876 45.243 118.838C44.999 118.703 44.7329 118.492 44.4367 118.169C43.8259 117.529 43.249 116.498 42.3766 115.197C41.5944 114.052 40.7944 112.882 39.9815 111.692C38.4498 109.403 36.9215 106.925 36.3738 104.7C46.7599 82.8668 60.4576 107.515 61.8967 108.498C61.6381 108.842 61.6778 110.037 61.0572 111.525Z" fill="#D1D4F4"/>
<path d="M87.5069 89.6785C96.6793 83.9421 103.436 78.2065 102.599 76.8675C101.761 75.5285 93.6468 79.0933 84.4745 84.8297C75.3021 90.5661 68.5453 96.3018 69.3827 97.6407C70.2201 98.9797 78.3346 95.4149 87.5069 89.6785Z" fill="#D1D4F4"/>
<path d="M90.4285 26.8055C89.5917 25.4675 78.1725 31.1006 64.9227 39.387C51.673 47.6734 41.61 55.4752 42.4468 56.8132C43.2836 58.1512 54.7033 52.5189 67.9531 44.2325C81.2028 35.9461 91.2653 28.1435 90.4285 26.8055Z" fill="#D1D4F4"/>
<path d="M46.557 3.30477C61.4748 -6.02482 72.8892 -14.6734 72.0518 -16.0124C71.2144 -17.3514 58.4423 -10.8737 43.5245 -1.54409C28.6067 7.7855 17.1923 16.4341 18.0297 17.7731C18.8671 19.112 31.6392 12.6344 46.557 3.30477Z" fill="#D1D4F4"/>
</g>
<defs>
<clipPath id="clip0_92_6662">
<rect width="206.152" height="208.256" fill="white" transform="translate(-71 10.311) rotate(-32.0218)"/>
</clipPath>
</defs>
</svg>
