<svg width="252" height="156" viewBox="0 0 252 156" fill="none" xmlns="http://www.w3.org/2000/svg">
<path d="M135.924 -59.7018C134.725 -60.9271 133.35 -61.7836 131.838 -62.5541C128.984 -64.0042 125.904 -64.8345 123.029 -65.6399C117.384 -67.2394 111.434 -69.9956 104.234 -70.5416C102.426 -70.6243 100.518 -70.5817 98.5689 -70.0259C96.4785 -69.3632 95.1626 -68.6108 93.5715 -67.8567C83.7857 -63.0322 75.0199 -57.0778 65.9437 -52.1858C59.5914 -48.7873 52.7282 -45.6037 45.9255 -41.8029C39.1606 -37.9683 32.207 -33.7357 26.2878 -27.6774C23.3199 -24.6789 20.7185 -21.1505 18.7268 -17.179C16.963 -13.1334 15.5643 -8.67935 15.6685 -4.11865C15.3073 5.09303 19.0432 13.5707 22.6959 21.2915C30.143 36.8061 38.2815 51.5168 46.8491 65.2881C51.241 72.1973 55.3614 78.6533 59.0951 85.4648C62.8833 92.1953 66.5535 98.9112 70.6106 105.25C74.7347 111.566 78.8864 117.553 83.9972 122.878C89.0504 128.052 95.463 132.605 102.884 133.324C110.212 134.07 116.779 131.462 122.226 128.599C127.751 125.687 132.541 122.322 137.209 119.488C156.376 108.548 172.051 99.6984 182.731 93.4219C189.979 89.1837 194.932 86.1856 197.363 84.5588C199.895 85.9671 203.015 87.2417 206.852 87.8422C210.348 88.3454 214.432 88.1265 218.391 86.6686C222.351 85.2582 226.174 82.829 229.527 79.6144C232.881 76.3955 235.719 72.3224 237.736 67.6047C239.652 62.9128 240.677 57.1866 239.459 51.6557C238.919 48.9293 237.923 46.2831 236.79 43.9908C232.161 34.1556 225.69 24.0511 219.54 15.132C217.254 11.9874 215.497 8.91155 212.87 6.22354C207.721 1.05273 201.659 -0.319754 197.867 -0.250043C195.254 -0.224492 193.609 0.265037 192.783 0.675931C191.849 0.484739 190.915 0.343364 189.989 0.321761C185.22 0.0257219 181.156 1.43705 177.853 3.07095C177.47 2.48677 176.875 1.67878 176.169 0.60039C174.804 -1.48454 173.014 -4.68348 172.277 -8.90926C171.52 -13.0564 172.071 -18.3387 174.898 -23.0031C176.27 -25.3605 178.259 -27.1898 180.845 -29.5186C183.263 -31.7686 186.533 -34.9049 187.183 -39.759C188.101 -48.0373 180.361 -55.6171 172.159 -56.06C164.928 -56.4737 159.442 -53.3327 155.476 -50.7603C150.638 -47.4893 147.565 -44.2963 146.001 -42.1702C144.884 -44.2316 143.639 -46.4121 142.593 -48.4872C140.732 -52.2516 138.962 -56.6424 135.924 -59.7018ZM121.904 -61.3984C124.893 -60.628 127.617 -59.9262 130.012 -58.7697C130.058 -58.7481 130.091 -58.725 130.135 -58.7029C129.058 -58.3005 127.736 -57.7095 126.205 -56.9396C122.368 -55.2841 117.174 -50.9777 112.605 -51.118C111.488 -51.1822 110.723 -51.5177 110.285 -51.9755C109.764 -52.4634 109.034 -53.9352 108.36 -55.1735C106.733 -58.17 103.9 -63.1361 101.69 -65.7347C102.454 -65.8149 103.243 -65.8442 104.044 -65.8199C109.986 -65.5045 115.869 -63.0376 121.904 -61.3984ZM181.692 91.4545C170.646 97.1526 154.761 105.412 135.15 116.01C125.142 121.786 114.273 129.961 103.377 128.627C97.5785 128.018 92.1391 124.209 87.561 119.402C82.9962 114.55 78.9101 108.571 75.0135 102.459C71.1422 96.2816 67.579 89.638 63.8125 82.8292C60.1415 76.005 55.7848 69.0773 51.5594 62.3663C43.1613 48.7254 35.1516 34.1656 27.8035 18.8577C24.1953 11.2935 20.967 3.62536 21.31 -3.94459C21.1861 -7.7401 22.3642 -11.3221 23.784 -14.7022C25.4433 -18.0113 27.6341 -21.0644 30.2756 -23.7524C35.5108 -29.188 42.0725 -33.2943 48.5952 -37.0425C55.1687 -40.7811 61.9266 -43.9842 68.4695 -47.5656C77.4416 -52.5212 86.5537 -58.7846 95.7737 -63.4934C97.0403 -64.1376 98.4524 -64.8587 99.5099 -65.2524C100.005 -61.9439 102.393 -55.9471 103.688 -52.8605C104.289 -51.5645 104.642 -50.1819 106.141 -48.2904C107.754 -46.3715 110.232 -45.5099 112.354 -45.424C116.743 -45.2817 120.012 -47.2609 122.443 -48.8908C125.078 -50.7482 130.288 -54.8261 132.324 -57.3519C132.573 -57.1599 132.845 -56.9872 133.068 -56.7635C135.605 -54.3215 137.462 -50.0862 139.203 -46.7617C140.493 -44.3635 139.287 -46.5152 161.833 -7.92741C166.412 -0.190683 169.578 4.96738 171.144 7.22589C169.923 8.15422 168.828 9.07407 167.889 9.9414C163.751 13.8407 162.219 16.6237 162.485 16.8334C162.819 17.127 164.92 14.8635 169.296 11.6651C170.609 10.7207 172.167 9.69891 173.921 8.68888C174.791 14.2213 181.361 26.0305 185.72 29.898C178.536 34.3148 173.136 39.9089 170.426 44.9042C169.661 46.3083 169.126 47.5887 168.74 48.7325C168.248 47.7978 167.764 46.8663 167.317 45.9612C165.161 41.554 163.452 37.4134 161.975 33.7548C160.471 30.1798 159.705 27.0393 159.744 24.4646C159.76 21.949 160.83 20.1632 161.54 18.913C162.267 17.6677 162.643 16.9633 162.485 16.8334C162.339 16.7134 161.686 17.147 160.63 18.2089C159.631 19.2356 157.964 21.1373 157.544 24.2625C157.118 27.2629 157.707 30.9717 158.994 34.8133C160.203 38.6175 161.679 42.9423 163.677 47.6226C167.7 56.8384 173.815 68.1155 185.429 76.2625C186.742 77.1525 188.153 77.9243 189.62 78.6055C190.251 79.2879 191.041 80.0705 192.155 81.003C193.313 81.9359 194.775 83.0357 196.549 84.0943C193.75 85.3547 188.713 87.8532 181.692 91.4545ZM231.107 49.0034C230.016 48.9308 229.047 49.0695 228.215 49.3204C227.873 47.1428 227.317 45.046 226.613 43.077C226.948 43.1133 227.278 43.1644 227.629 43.148C228.441 43.1046 229.171 42.8822 229.821 42.584C230.453 43.8451 231.097 45.0847 231.696 46.3865C232.177 47.3801 232.585 48.362 232.941 49.3549C232.372 49.177 231.768 49.039 231.107 49.0034ZM227.181 37.4764C226.14 37.5484 225.273 37.8859 224.583 38.3395C223.543 36.1716 222.413 34.1208 221.227 32.1578C222.266 32.416 223.128 32.3256 224.137 31.9712C225.159 33.7611 226.171 35.5969 227.181 37.4764ZM218.313 22.1636C219.237 23.6921 220.191 25.2692 221.163 26.8743C220.234 27.1289 219.382 27.54 218.9 28.1437C218.855 28.1994 218.865 28.2566 218.825 28.3124C217.933 26.9437 217.041 25.6055 216.175 24.2928C215.799 23.7358 215.465 23.2155 215.107 22.6743C215.393 22.6979 215.656 22.7592 215.958 22.7467C216.866 22.7093 217.636 22.472 218.313 22.1636ZM210.572 9.7853C212.09 11.7838 213.567 14.4388 215.257 17.1253C214.055 17.2613 213.032 17.7287 212.339 18.3916C211.891 17.6796 211.44 16.9786 210.99 16.2443C209.671 14.1579 208.262 12.1543 206.752 10.2428C206.955 10.2459 207.151 10.2642 207.355 10.2607C208.516 10.2054 209.645 10.0734 210.572 9.7853ZM212.75 28.633C217.538 36.1844 223.413 45.5325 222.912 54.3779C222.757 57.6272 221.768 60.9801 220.338 64.1785C218.822 67.4964 217.209 70.2182 214.701 72.0981C212.229 73.9866 209.233 75.2283 206.08 75.6743C199.749 76.6452 193.259 75.125 188.26 71.8718C180.097 66.4383 174.486 58.8841 170.367 51.6785C171.194 50.5128 172.275 48.9519 173.751 47.1877C176.878 43.3809 182.238 38.7323 188.74 34.7469C195.247 30.7636 201.864 28.9493 206.793 28.6829C209.253 28.5067 211.29 28.6001 212.75 28.633ZM223.978 69.6038C225.098 67.5943 225.921 65.7932 226.782 63.3286C227.646 64.1854 228.96 64.9901 230.507 65.6255C231.097 65.8602 231.676 66.0412 232.244 66.1987C231.211 68.6193 229.862 70.8769 228.33 72.8969C227.195 71.4434 225.785 70.317 223.978 69.6038ZM196.825 80.9155C200.098 81.5435 203.519 81.6893 206.955 81.1975C207.478 81.128 207.999 80.9931 208.522 80.8886C208.666 81.8128 209.15 82.8408 209.912 83.8496C209.008 83.9065 208.113 83.9146 207.244 83.8329C203.096 83.5339 199.631 82.2409 196.825 80.9155ZM215.835 82.5371C215.149 81.212 214.303 80.2747 213.182 79.4628C214.928 78.7182 216.619 77.7803 218.18 76.5938C219.285 75.7792 220.235 74.7921 221.118 73.749C222.207 74.876 223.364 75.8654 224.793 76.8461C222.013 79.4705 218.942 81.3789 215.835 82.5371ZM233.85 60.9569C231.687 59.7129 229.437 59.4258 227.796 59.7924C228.18 58.1443 228.465 56.4667 228.545 54.7476C228.552 54.5988 228.534 54.4554 228.54 54.3076C229.235 54.491 229.972 54.6321 230.748 54.6894C232.012 54.7564 233.168 54.6996 234.112 54.4645C234.369 56.6584 234.263 58.8332 233.85 60.9569ZM205.132 4.90513C204.243 5.17414 203.493 5.56824 202.945 6.03674C200.948 4.24779 198.702 2.76781 196.346 1.77167C196.79 1.82916 197.199 1.87022 197.705 1.96216C199.786 2.31883 202.464 3.24444 205.132 4.90513ZM201.874 11.6216C205 15.3837 207.581 20.4379 210.767 25.4807C209.665 25.1408 208.377 24.8455 206.888 24.6535C201.853 23.908 194.805 25.0694 188.185 28.5112C187.167 22.7852 180.575 11.0801 176.313 7.4062C176.779 7.17096 177.229 6.93248 177.721 6.70486C181.138 5.15255 185.254 3.80892 189.701 4.34015C194.164 4.72569 198.434 7.35268 201.874 11.6216ZM157.545 -47.2885C161.456 -49.2956 166.485 -51.4452 171.72 -50.8288C174.269 -50.5589 176.659 -49.3948 178.642 -47.4485C180.588 -45.5403 181.85 -42.8875 181.553 -40.4988C181.126 -35.5096 173.607 -32.0744 170.359 -25.6457C167.043 -19.5379 166.913 -12.9051 168.375 -8.01325C169.82 -3.06775 172.474 0.213934 174.511 2.05096C175.363 2.81562 176.078 3.30531 176.682 3.65383C176.553 3.72266 176.4 3.78683 176.275 3.85596C174.552 4.81921 173.033 5.8236 171.676 6.82057C170.563 4.26495 167.87 -1.10769 163.758 -8.99713C151.048 -33.021 154.482 -26.6026 146.847 -40.6199C148.879 -41.993 152.396 -44.593 157.545 -47.2885Z" fill="#4F5A65"/>
<path d="M61.3927 -5.4733C60.8525 -6.33514 60.1639 -7.53526 59.01 -8.63732C58.4153 -9.18847 57.6633 -9.76479 56.6412 -10.1103C55.6497 -10.4785 54.3826 -10.4852 53.4445 -10.2289C51.4821 -9.63671 50.7611 -9.08398 49.5069 -8.62161C47.132 -7.59338 44.4101 -6.58833 41.6608 -4.68935C40.3036 -3.69976 38.9004 -2.56452 37.8323 -0.705866C36.6351 1.35615 36.6077 3.76394 36.9829 5.62692C37.7904 9.42294 39.536 12.1346 41.1099 14.6902C41.9112 15.9034 42.6979 17.0945 43.469 18.2619C44.1553 19.2638 44.8797 20.6646 46.1029 21.9677C46.7126 22.6169 47.477 23.2512 48.3869 23.7055C48.8649 23.9231 49.4168 24.0926 49.9274 24.2359L51.2877 24.3831C52.9611 24.3942 54.3102 24.0658 55.5848 23.7231C58.0757 22.9594 60.1529 21.9343 61.9775 20.8601C63.7936 19.7749 65.3366 18.6298 66.5881 17.3979C67.8392 16.2168 68.8412 14.6125 68.9926 13.2682C69.2974 10.5415 68.272 9.41346 67.9886 9.4937C68.3416 9.44849 68.5549 8.02467 67.7885 5.73638C67.0821 3.43461 65.3731 0.425708 63.0862 -2.91405C62.5466 -3.72918 61.9816 -4.58385 61.3927 -5.4733ZM66.8763 12.6187C66.1821 14.1862 63.5894 15.723 60.125 17.2681C58.4057 18.0032 56.4458 18.705 54.3998 19.1378C53.3958 19.32 52.3423 19.4493 51.5061 19.3762C51.3341 19.3325 51.1644 19.3008 50.9901 19.2808C50.9039 19.208 50.8357 19.1991 50.7262 19.1562C50.489 19.01 50.2336 18.7855 49.9533 18.4493C49.3742 17.7796 48.848 16.7228 48.0397 15.3801C47.3139 14.1986 46.5721 12.9925 45.8173 11.7633C44.3984 9.40331 42.992 6.85364 42.5528 4.6051C53.985 -16.6992 66.4718 8.58358 67.8616 9.63539C67.5866 9.96642 67.5684 11.1622 66.8763 12.6187Z" fill="#4F5A65"/>
<path d="M83.9513 34.8201C83.4111 33.9583 82.723 32.759 81.5686 31.6561C80.9743 31.1058 80.2224 30.5295 79.1998 30.1831C78.2088 29.8157 76.9412 29.8083 76.0031 30.0645C74.0412 30.6576 73.3197 31.2095 72.066 31.6727C69.6906 32.7001 66.9687 33.7051 64.2194 35.6041C62.8622 36.5937 61.459 37.7289 60.3913 39.5884C59.1942 41.6505 59.1668 44.0582 59.5415 45.9204C60.349 49.7164 62.0946 52.428 63.6685 54.9837C64.4698 56.1969 65.2569 57.3888 66.0281 58.5562C66.7139 59.5572 67.4383 60.9581 68.6619 62.262C69.2712 62.9104 70.0361 63.5455 70.9455 63.9989C71.4235 64.2166 71.9758 64.3869 72.4865 64.5302L73.8463 64.6766C75.5202 64.6885 76.8693 64.3601 78.1439 64.0174C80.6343 63.2529 82.7115 62.2277 84.536 61.1536C86.3522 60.0684 87.8952 58.9232 89.1467 57.6914C90.3983 56.5111 91.3998 54.906 91.5512 53.5617C91.8565 50.8358 90.8311 49.7078 90.5472 49.7871C90.9001 49.7419 91.114 48.319 90.3471 46.0298C89.6412 43.7289 87.9322 40.72 85.6448 37.3794C85.1052 36.5643 84.5407 35.7105 83.9513 34.8201ZM89.4349 52.9121C88.7407 54.4797 86.1484 56.0173 82.6836 57.5616C80.9648 58.2975 79.0049 58.9993 76.9588 59.4321C75.9544 59.6135 74.9009 59.7427 74.0652 59.6705C73.8931 59.6268 73.723 59.5943 73.5491 59.5751C73.4629 59.5023 73.3947 59.4934 73.2848 59.4496C73.0481 59.3043 72.7926 59.0797 72.5119 58.7428C71.9328 58.073 71.4071 57.0171 70.5988 55.6744C69.8725 54.4921 69.1306 53.2859 68.3764 52.0576C66.957 49.6968 65.5506 47.1471 65.1119 44.8994C76.5441 23.5951 89.0309 48.8779 90.4202 49.9288C90.1457 50.2607 90.1274 51.4565 89.4349 52.9121Z" fill="#4F5A65"/>
<path d="M106.511 75.1137C105.972 74.2528 105.283 73.0526 104.129 71.9506C103.534 71.3994 102.782 70.8231 101.76 70.4776C100.769 70.1093 99.5017 70.1027 98.5637 70.359C96.6013 70.9512 95.8802 71.5039 94.6261 71.9663C92.2511 72.9945 89.5293 73.9996 86.78 75.8985C85.4227 76.8881 84.019 78.0225 82.9514 79.882C81.7543 81.944 81.7268 84.3518 82.1016 86.214C82.9096 90.0108 84.6552 92.7225 86.2291 95.2781C87.0303 96.4913 87.817 97.6824 88.5881 98.8498C89.274 99.8508 89.9983 101.252 91.222 102.556C91.8313 103.204 92.5962 103.839 93.5061 104.293C93.984 104.511 94.5359 104.681 95.0465 104.824L96.4068 104.971C98.0803 104.982 99.4294 104.654 100.704 104.311C103.195 103.547 105.272 102.522 107.096 101.447C108.913 100.363 110.456 99.2177 111.707 97.9858C112.958 96.8047 113.96 95.2004 114.112 93.8561C114.417 91.1294 113.391 90.0013 113.108 90.0816C113.461 90.0364 113.674 88.6126 112.908 86.3243C112.201 84.0225 110.492 81.0136 108.205 77.6738C107.666 76.8587 107.101 76.004 106.511 75.1137ZM111.995 93.2066C111.301 94.7741 108.709 96.3109 105.244 97.856C103.525 98.5911 101.565 99.2929 99.5189 99.7257C98.515 99.9079 97.4615 100.037 96.6252 99.9641C96.4532 99.9204 96.2835 99.8887 96.1092 99.8687C96.023 99.7959 95.9548 99.787 95.8454 99.7441C95.6082 99.5979 95.3527 99.3733 95.0724 99.0372C94.4934 98.3675 93.9671 97.3107 93.1589 95.968C92.433 94.7865 91.6907 93.5795 90.9365 92.3512C89.5175 89.9912 88.1111 87.4415 87.672 85.193C99.1042 63.8887 111.591 89.1715 112.981 90.2233C112.706 90.5543 112.687 91.7501 111.995 93.2066Z" fill="#4F5A65"/>
<path d="M139.473 72.6674C148.912 67.3824 155.939 61.981 155.168 60.603C154.396 59.225 146.119 62.3923 136.679 67.6772C127.239 72.9622 120.212 78.3637 120.984 79.7417C121.755 81.1197 130.033 77.9524 139.473 72.6674Z" fill="#4F5A65"/>
<path d="M145.439 10.0098C144.668 8.63278 132.989 13.7058 119.353 21.3401C105.717 28.9744 95.2879 36.2793 96.0588 37.6562C96.8297 39.0332 108.509 33.9611 122.145 26.3268C135.781 18.6924 146.21 11.3868 145.439 10.0098Z" fill="#4F5A65"/>
</svg>
